<svg width="32.9413" height="92.2525" overflow="visible" style="display: block;" viewBox="0 0 32.9413 92.2525" fill="none" xmlns="http://www.w3.org/2000/svg">
<g id="arrow">
<path id="Line 5" d="M16.9439 34.6981L22.0872 35.3695L22.1308 35.0353V34.6981H16.9439ZM15.2504 47.671L10.1072 46.9996V46.9996L15.2504 47.671ZM15.2399 48.9161L10.1894 50.0979L15.2399 48.9161ZM16.7688 55.4495L21.8193 54.2677V54.2677L16.7688 55.4495ZM18.2976 61.983L13.2472 63.1648L18.2976 61.983ZM18.2152 62.817L13.4531 60.7613H13.4531L18.2152 62.817ZM15.3948 69.3505L20.157 71.4062V71.4062L15.3948 69.3505ZM12.5744 75.8839L7.8123 73.8282H7.8123L12.5744 75.8839ZM12.5276 76.718L17.4686 75.1396L17.4686 75.1396L12.5276 76.718ZM14.6147 83.2514L9.67381 84.8298L14.6147 83.2514ZM16.7019 89.7848L21.6428 88.2065V88.2065L16.7019 89.7848ZM16.8383 90.2558L11.6609 90.5692H11.6609L16.8383 90.2558ZM16.8895 91.1009L11.7121 91.4144L11.7132 91.4339L11.7146 91.4534L16.8895 91.1009ZM16.9439 91.9H22.1308V91.7236L22.1189 91.5475L16.9439 91.9ZM16.9439 34.5981H11.757V34.6981H16.9439H22.1308V34.5981H16.9439ZM16.9439 34.6981L11.8006 34.0267L10.1072 46.9996L15.2504 47.671L20.3937 48.3424L22.0872 35.3695L16.9439 34.6981ZM15.2504 47.671L10.1072 46.9996C10.0161 47.6971 9.90378 48.8771 10.1894 50.0979L15.2399 48.9161L20.2904 47.7343C20.3403 47.9474 20.3611 48.1167 20.3706 48.223C20.3802 48.3317 20.3808 48.407 20.3805 48.4401C20.38 48.4994 20.3763 48.4756 20.3937 48.3424L15.2504 47.671ZM15.2399 48.9161L10.1894 50.0979L11.7183 56.6314L16.7688 55.4495L21.8193 54.2677L20.2904 47.7343L15.2399 48.9161ZM16.7688 55.4495L11.7183 56.6314L13.2472 63.1648L18.2976 61.983L23.3481 60.8011L21.8193 54.2677L16.7688 55.4495ZM18.2976 61.983L13.2472 63.1648C13.0431 62.2929 13.161 61.4379 13.4531 60.7613L18.2152 62.817L22.9774 64.8728C23.5095 63.6401 23.6823 62.2291 23.3481 60.8011L18.2976 61.983ZM18.2152 62.817L13.4531 60.7613L10.6327 67.2947L15.3948 69.3505L20.157 71.4062L22.9774 64.8728L18.2152 62.817ZM15.3948 69.3505L10.6327 67.2947L7.8123 73.8282L12.5744 75.8839L17.3366 77.9397L20.157 71.4062L15.3948 69.3505ZM12.5744 75.8839L7.8123 73.8282C7.21621 75.209 7.10135 76.777 7.58671 78.2963L12.5276 76.718L17.4686 75.1396C17.6075 75.5744 17.6809 76.0681 17.6515 76.5916C17.6223 77.1119 17.4969 77.5683 17.3366 77.9397L12.5744 75.8839ZM12.5276 76.718L7.58671 78.2963L9.67381 84.8298L14.6147 83.2514L19.5557 81.673L17.4686 75.1396L12.5276 76.718ZM14.6147 83.2514L9.67381 84.8298L11.7609 91.3632L16.7019 89.7848L21.6428 88.2065L19.5557 81.673L14.6147 83.2514ZM16.7019 89.7848L11.7609 91.3632C11.7793 91.4209 11.7936 91.4663 11.8043 91.5008C11.8095 91.5179 11.8135 91.5311 11.8164 91.5407C11.8194 91.5504 11.8207 91.5549 11.8206 91.5548C11.8206 91.5547 11.8201 91.5528 11.8191 91.5494C11.8181 91.546 11.8166 91.5404 11.8145 91.5328C11.8109 91.5196 11.803 91.4905 11.7931 91.4503C11.7844 91.4152 11.7658 91.3383 11.7458 91.2364C11.7356 91.184 11.7211 91.106 11.7068 91.01C11.6938 90.9222 11.6728 90.7661 11.6609 90.5692L16.8383 90.2558L22.0158 89.9424C21.9943 89.5883 21.94 89.3127 21.9252 89.237C21.9019 89.1185 21.8787 89.0212 21.8641 88.9621C21.8345 88.8424 21.8046 88.7366 21.7845 88.6674C21.7424 88.522 21.6923 88.3614 21.6428 88.2065L16.7019 89.7848ZM16.8383 90.2558L11.6609 90.5692L11.7121 91.4144L16.8895 91.1009L22.0669 90.7875L22.0158 89.9424L16.8383 90.2558ZM16.8895 91.1009L11.7146 91.4534L11.769 92.2525L16.9439 91.9L22.1189 91.5475L22.0644 90.7485L16.8895 91.1009ZM16.9439 91.9H11.757V92H16.9439H22.1308V91.9H16.9439Z" fill="var(--stroke-0, #C1BAAC)"/>
<path id="Polygon 3" d="M15.192 3.10071C15.6626 1.95958 17.2788 1.95958 17.7494 3.10071L32.1535 38.0287C32.5289 38.9392 31.8596 39.9393 30.8747 39.9393H2.06659C1.08175 39.9393 0.412413 38.9392 0.787881 38.0287L15.192 3.10071Z" fill="var(--fill-0, #C1BAAC)"/>
</g>
</svg>
