<svg width="93.4435" height="174.655" overflow="visible" style="display: block;" viewBox="0 0 93.4435 174.655" fill="none" xmlns="http://www.w3.org/2000/svg">
<g id="clovek">
<path id="Vector 40" d="M1.21719 163.06C-1.04417 166.53 -0.0640664 171.177 3.40631 173.438C6.87669 175.7 11.5232 174.719 13.7845 171.249L7.50087 167.155L1.21719 163.06ZM7.55546 167.071L1.76661 162.302L1.50039 162.625L1.27179 162.976L7.55546 167.071ZM9.97454 164.134L15.7634 168.903L16.1073 168.485L16.3877 168.023L9.97454 164.134ZM12.0208 160.759L8.09214 154.371L6.54769 155.32L5.60763 156.871L12.0208 160.759ZM15.517 158.609L19.4457 164.998L21.794 163.554L22.648 160.933L15.517 158.609ZM16.8043 154.659L12.3515 148.624L10.4178 150.05L9.67327 152.335L16.8043 154.659ZM20.0639 152.254L24.5166 158.289L25.1799 157.8L25.721 157.178L20.0639 152.254ZM22.638 149.297L17.6455 143.7L17.2919 144.015L16.9809 144.372L22.638 149.297ZM25.6753 146.587L30.6679 152.184L32.5653 150.491L33.0422 147.994L25.6753 146.587ZM26.4619 142.467L19.1683 140.72L19.1277 140.89L19.095 141.061L26.4619 142.467ZM27.4034 138.537L21.2421 134.261L20.4382 135.419L20.1098 136.79L27.4034 138.537ZM29.6319 135.327L35.7932 139.603L35.8908 139.462L35.9819 139.318L29.6319 135.327ZM31.7112 132.018L26.1509 126.985L25.7105 127.472L25.3612 128.027L31.7112 132.018ZM34.42 129.026L39.9803 134.059L41.8873 131.952L41.9195 129.111L34.42 129.026ZM34.4695 124.661L27.8465 121.141L26.9906 122.752L26.97 124.576L34.4695 124.661ZM36.308 121.201L42.931 124.72L43.0378 124.519L43.1322 124.312L36.308 121.201ZM37.9449 117.611L32.2918 112.682L31.5739 113.505L31.1207 114.499L37.9449 117.611ZM40.5807 114.587L46.2338 119.516L47.015 118.62L47.4808 117.527L40.5807 114.587ZM42.1453 110.914L42.7085 103.436L37.3508 103.032L35.2452 107.975L42.1453 110.914ZM46.1157 111.213L48.9308 104.262L47.846 103.822L46.6789 103.735L46.1157 111.213ZM49.7625 112.69L56.2643 108.952L54.975 106.709L52.5777 105.739L49.7625 112.69ZM51.7247 116.103L45.2229 119.841L45.4118 120.17L45.6329 120.478L51.7247 116.103ZM53.9936 119.262L47.9018 123.637L48.4814 124.444L49.2511 125.072L53.9936 119.262ZM57.0628 121.767L64.0648 119.08L63.3502 117.218L61.8053 115.957L57.0628 121.767ZM58.5395 125.615L51.5375 128.302L52.3594 130.444L54.2387 131.759L58.5395 125.615ZM61.8751 127.949L68.049 123.691L67.2823 122.579L66.1758 121.805L61.8751 127.949ZM64.0982 131.173L57.9242 135.431L57.9304 135.44L57.9367 135.449L64.0982 131.173ZM66.329 134.387L72.7494 130.51L72.6263 130.307L72.4906 130.111L66.329 134.387ZM68.3498 137.734L75.6953 136.22L75.4355 134.959L74.7702 133.857L68.3498 137.734ZM69.2 141.858L61.8545 143.373L62.119 144.656L62.803 145.774L69.2 141.858ZM71.233 145.18L64.836 149.095L65.8482 150.749L67.5351 151.705L71.233 145.18ZM75.0422 147.339L81.5796 143.663L80.5564 141.843L78.7401 140.814L75.0422 147.339ZM76.9579 150.746L83.7774 147.624L83.6478 147.341L83.4953 147.07L76.9579 150.746ZM78.6198 154.376L71.8002 157.498L72.6907 159.443L74.4736 160.626L78.6198 154.376ZM82.456 156.921L89.3407 159.896L91.8286 154.139L86.6022 150.672L82.456 156.921ZM81.3559 159.467L74.4711 156.492L71.7264 162.844L77.8372 166.091L81.3559 159.467ZM78.2495 166.31C81.9075 168.253 86.4482 166.863 88.3915 163.205C90.3349 159.547 88.9448 155.006 85.2868 153.063L81.7682 159.686L78.2495 166.31ZM7.50087 167.155L13.7845 171.249L13.8391 171.165L7.55546 167.071L1.27179 162.976L1.21719 163.06L7.50087 167.155ZM7.55546 167.071L13.3443 171.839L15.7634 168.903L9.97454 164.134L4.18569 159.366L1.76661 162.302L7.55546 167.071ZM9.97454 164.134L16.3877 168.023L18.4339 164.648L12.0208 160.759L5.60763 156.871L3.56139 160.245L9.97454 164.134ZM12.0208 160.759L15.9494 167.148L19.4457 164.998L15.517 158.609L11.5884 152.221L8.09214 154.371L12.0208 160.759ZM15.517 158.609L22.648 160.933L23.9353 156.982L16.8043 154.659L9.67327 152.335L8.38601 156.286L15.517 158.609ZM16.8043 154.659L21.257 160.694L24.5166 158.289L20.0639 152.254L15.6111 146.219L12.3515 148.624L16.8043 154.659ZM20.0639 152.254L25.721 157.178L28.2952 154.221L22.638 149.297L16.9809 144.372L14.4067 147.33L20.0639 152.254ZM22.638 149.297L27.6306 154.893L30.6679 152.184L25.6753 146.587L20.6828 140.99L17.6455 143.7L22.638 149.297ZM25.6753 146.587L33.0422 147.994L33.8289 143.874L26.4619 142.467L19.095 141.061L18.3084 145.181L25.6753 146.587ZM26.4619 142.467L33.7556 144.215L34.697 140.285L27.4034 138.537L20.1098 136.79L19.1683 140.72L26.4619 142.467ZM27.4034 138.537L33.5647 142.814L35.7932 139.603L29.6319 135.327L23.4706 131.05L21.2421 134.261L27.4034 138.537ZM29.6319 135.327L35.9819 139.318L38.0612 136.009L31.7112 132.018L25.3612 128.027L23.2819 131.336L29.6319 135.327ZM31.7112 132.018L37.2715 137.051L39.9803 134.059L34.42 129.026L28.8597 123.993L26.1509 126.985L31.7112 132.018ZM34.42 129.026L41.9195 129.111L41.969 124.746L34.4695 124.661L26.97 124.576L26.9205 128.941L34.42 129.026ZM34.4695 124.661L41.0925 128.18L42.931 124.72L36.308 121.201L29.685 117.681L27.8465 121.141L34.4695 124.661ZM36.308 121.201L43.1322 124.312L44.769 120.722L37.9449 117.611L31.1207 114.499L29.4839 118.089L36.308 121.201ZM37.9449 117.611L43.598 122.539L46.2338 119.516L40.5807 114.587L34.9276 109.659L32.2918 112.682L37.9449 117.611ZM40.5807 114.587L47.4808 117.527L49.0454 113.854L42.1453 110.914L35.2452 107.975L33.6806 111.648L40.5807 114.587ZM42.1453 110.914L41.582 118.393L45.5524 118.692L46.1157 111.213L46.6789 103.735L42.7085 103.436L42.1453 110.914ZM46.1157 111.213L43.3005 118.165L46.9474 119.642L49.7625 112.69L52.5777 105.739L48.9308 104.262L46.1157 111.213ZM49.7625 112.69L43.2607 116.429L45.2229 119.841L51.7247 116.103L58.2264 112.364L56.2643 108.952L49.7625 112.69ZM51.7247 116.103L45.6329 120.478L47.9018 123.637L53.9936 119.262L60.0853 114.887L57.8164 111.728L51.7247 116.103ZM53.9936 119.262L49.2511 125.072L52.3202 127.577L57.0628 121.767L61.8053 115.957L58.7361 113.452L53.9936 119.262ZM57.0628 121.767L50.0608 124.454L51.5375 128.302L58.5395 125.615L65.5414 122.927L64.0648 119.08L57.0628 121.767ZM58.5395 125.615L54.2387 131.759L57.5743 134.094L61.8751 127.949L66.1758 121.805L62.8402 119.47L58.5395 125.615ZM61.8751 127.949L55.7011 132.207L57.9242 135.431L64.0982 131.173L70.2722 126.914L68.049 123.691L61.8751 127.949ZM64.0982 131.173L57.9367 135.449L60.1675 138.663L66.329 134.387L72.4906 130.111L70.2598 126.897L64.0982 131.173ZM66.329 134.387L59.9086 138.264L61.9294 141.61L68.3498 137.734L74.7702 133.857L72.7494 130.51L66.329 134.387ZM68.3498 137.734L61.0042 139.248L61.8545 143.373L69.2 141.858L76.5456 140.344L75.6953 136.22L68.3498 137.734ZM69.2 141.858L62.803 145.774L64.836 149.095L71.233 145.18L77.63 141.265L75.597 137.943L69.2 141.858ZM71.233 145.18L67.5351 151.705L71.3443 153.864L75.0422 147.339L78.7401 140.814L74.9309 138.655L71.233 145.18ZM75.0422 147.339L68.5048 151.015L70.4205 154.422L76.9579 150.746L83.4953 147.07L81.5796 143.663L75.0422 147.339ZM76.9579 150.746L70.1384 153.867L71.8002 157.498L78.6198 154.376L85.4393 151.255L83.7774 147.624L76.9579 150.746ZM78.6198 154.376L74.4736 160.626L78.3098 163.171L82.456 156.921L86.6022 150.672L82.7659 148.127L78.6198 154.376ZM82.456 156.921L75.5713 153.946L74.4711 156.492L81.3559 159.467L88.2406 162.442L89.3407 159.896L82.456 156.921ZM81.3559 159.467L77.8372 166.091L78.2495 166.31L81.7682 159.686L85.2868 153.063L84.8745 152.844L81.3559 159.467Z" fill="var(--stroke-0, #0D0D0D)"/>
<path id="Vector 41" d="M37.3467 107.674C37.4932 111.814 40.9678 115.05 45.1073 114.904C49.2468 114.757 52.4838 111.283 52.3373 107.143L44.842 107.409L37.3467 107.674ZM44.8384 107.309L52.3338 107.043L52.2108 103.569L49.4806 101.418L44.8384 107.309ZM42.0877 105.141L34.6604 104.099L34.062 108.365L37.4456 111.032L42.0877 105.141ZM42.66 101.061L35.5193 98.7675L35.3222 99.3811L35.2327 100.019L42.66 101.061ZM43.8974 97.2088L51.0381 99.5025L51.3794 98.4401L51.3965 97.3243L43.8974 97.2088ZM43.9569 93.3466L51.456 93.4621L51.4912 91.1754L50.2445 89.2581L43.9569 93.3466ZM41.3246 89.2986L35.2369 84.918L32.239 89.0842L35.037 93.3871L41.3246 89.2986ZM44.0229 85.5488L50.1106 89.9295L52.4862 86.6281L51.0152 82.8363L44.0229 85.5488ZM42.4688 81.5427L35.4504 78.8984L34.4394 81.5818L35.4765 84.2553L42.4688 81.5427ZM43.9061 77.7277L50.9245 80.372L51.2425 79.5281L51.3513 78.6328L43.9061 77.7277ZM44.3783 73.8438L51.8235 74.7489L51.9086 74.049L51.8617 73.3455L44.3783 73.8438ZM44.1169 69.9181L51.6003 69.4198L51.5285 68.3414L51.1551 67.3271L44.1169 69.9181ZM42.6983 66.0648L35.3659 64.4884L34.9087 66.6148L35.6601 68.6558L42.6983 66.0648ZM43.5442 62.1301L50.8767 63.7064L51.2238 62.0919L50.8607 60.481L43.5442 62.1301ZM50.4989 58.8758C49.5881 54.835 45.5741 52.2976 41.5334 53.2084C37.4926 54.1191 34.9552 58.1331 35.8659 62.1739L43.1824 60.5248L50.4989 58.8758ZM44.842 107.409L52.3373 107.143L52.3338 107.043L44.8384 107.309L37.3431 107.574L37.3467 107.674L44.842 107.409ZM44.8384 107.309L49.4806 101.418L46.7298 99.2503L42.0877 105.141L37.4456 111.032L40.1963 113.199L44.8384 107.309ZM42.0877 105.141L49.515 106.183L50.0872 102.103L42.66 101.061L35.2327 100.019L34.6604 104.099L42.0877 105.141ZM42.66 101.061L49.8006 103.355L51.0381 99.5025L43.8974 97.2088L36.7568 94.9151L35.5193 98.7675L42.66 101.061ZM43.8974 97.2088L51.3965 97.3243L51.456 93.4621L43.9569 93.3466L36.4578 93.2311L36.3983 97.0933L43.8974 97.2088ZM43.9569 93.3466L50.2445 89.2581L47.6122 85.21L41.3246 89.2986L35.037 93.3871L37.6693 97.4352L43.9569 93.3466ZM41.3246 89.2986L47.4124 93.6792L50.1106 89.9295L44.0229 85.5488L37.9352 81.1682L35.2369 84.918L41.3246 89.2986ZM44.0229 85.5488L51.0152 82.8363L49.4611 78.8302L42.4688 81.5427L35.4765 84.2553L37.0306 88.2614L44.0229 85.5488ZM42.4688 81.5427L49.4872 84.187L50.9245 80.372L43.9061 77.7277L36.8878 75.0834L35.4504 78.8984L42.4688 81.5427ZM43.9061 77.7277L51.3513 78.6328L51.8235 74.7489L44.3783 73.8438L36.9331 72.9387L36.461 76.8226L43.9061 77.7277ZM44.3783 73.8438L51.8617 73.3455L51.6003 69.4198L44.1169 69.9181L36.6335 70.4164L36.8949 74.3421L44.3783 73.8438ZM44.1169 69.9181L51.1551 67.3271L49.7365 63.4737L42.6983 66.0648L35.6601 68.6558L37.0787 72.5092L44.1169 69.9181ZM42.6983 66.0648L50.0308 67.6411L50.8767 63.7064L43.5442 62.1301L36.2117 60.5537L35.3659 64.4884L42.6983 66.0648ZM43.5442 62.1301L50.8607 60.481L50.4989 58.8758L43.1824 60.5248L35.8659 62.1739L36.2277 63.7791L43.5442 62.1301Z" fill="var(--stroke-0, #0D0D0D)"/>
<path id="Vector 42" d="M49.5685 63.0731C52.3507 60.0045 52.1186 55.2614 49.05 52.4792C45.9813 49.6969 41.2383 49.9291 38.456 52.9977L44.0123 58.0354L49.5685 63.0731ZM43.9451 58.1095L46.3335 65.219L48.1876 64.5961L49.5013 63.1472L43.9451 58.1095ZM40.1652 59.3793L37.7768 52.2698L34.5952 53.3386L33.2723 56.4232L40.1652 59.3793ZM38.4139 63.463L39.9108 70.8121L43.7589 70.0283L45.3067 66.4191L38.4139 63.463ZM34.0477 64.3524L32.5507 57.0033L28.4175 57.8452L26.9901 61.8145L34.0477 64.3524ZM32.5504 68.5163L35.2316 75.5207L38.444 74.291L39.608 71.0542L32.5504 68.5163ZM28.6178 70.0216L25.9366 63.0173L23.8058 63.8329L22.4902 65.697L28.6178 70.0216ZM26.332 73.2604L30.3088 79.6193L31.589 78.8186L32.4597 77.585L26.332 73.2604ZM22.8528 75.4363L18.876 69.0774L18.0423 69.5988L17.3711 70.3175L22.8528 75.4363ZM20.1652 78.3144L14.6836 73.1956L13.6503 74.3021L13.1272 75.7228L20.1652 78.3144ZM18.745 82.1713L23.6723 87.8257L25.1196 86.5644L25.783 84.7629L18.745 82.1713ZM15.7501 84.7811L10.8228 79.1268L10.713 79.2225L10.6069 79.3224L15.7501 84.7811ZM12.8919 87.4742L7.74867 82.0155L6.19784 83.4767L5.64692 85.535L12.8919 87.4742ZM12.5761 88.6539L5.33116 86.7147L0.695004 104.036L16.2829 95.1739L12.5761 88.6539ZM15.9866 86.715L19.6933 93.2349L20.9071 92.5449L21.7912 91.4644L15.9866 86.715ZM18.4781 83.6699L13.3761 78.1727L12.9992 78.5225L12.6735 78.9205L18.4781 83.6699ZM21.3329 81.0204L19.6983 73.7007L17.7181 74.1429L16.2309 75.5232L21.3329 81.0204ZM25.7541 80.0331L27.3886 87.3528L29.7478 86.826L31.3553 85.0207L25.7541 80.0331ZM28.3601 77.1065L33.9613 82.0941L34.593 81.3847L35.0279 80.5402L28.3601 77.1065ZM30.247 73.4422L26.0056 67.2567L24.4453 68.3266L23.5792 70.0085L30.247 73.4422ZM33.5287 71.1919L37.7702 77.3774L39.0273 76.5153L39.8482 75.2309L33.5287 71.1919ZM35.639 67.8901L31.2254 61.8263L30.0815 62.6589L29.3195 63.8511L35.639 67.8901ZM39.0025 65.4419L43.4162 71.5057L45.9152 69.6867L46.407 66.6351L39.0025 65.4419ZM39.6844 61.2102L33.848 56.4999L32.5969 58.0502L32.2799 60.017L39.6844 61.2102ZM42.1916 58.1035L40.4416 50.8106L37.9588 51.4063L36.3553 53.3932L42.1916 58.1035ZM46.1914 57.1438L51.4525 51.7986L48.4872 48.8799L44.4413 49.8508L46.1914 57.1438ZM49.2787 60.1825L44.0176 65.5277L46.9738 68.4374L51.0097 67.48L49.2787 60.1825ZM54.143 59.0287L59.2075 53.4969L56.2774 50.8143L52.4121 51.7312L54.143 59.0287ZM57.1441 61.7762L52.0796 67.3081L52.929 68.0857L53.9725 68.5727L57.1441 61.7762ZM60.77 63.4683L65.8892 57.987L65.0197 57.175L63.9416 56.6719L60.77 63.4683ZM63.6723 66.1788L70.5869 63.2741L69.965 61.7936L68.7914 60.6976L63.6723 66.1788ZM65.3692 70.2184L58.4546 73.1231L59.2871 75.105L61.0431 76.3449L65.3692 70.2184ZM68.5686 72.4776L72.9044 66.3578L72.8947 66.351L68.5686 72.4776ZM71.8256 74.7851L76.734 69.1144L76.4586 68.876L76.1614 68.6654L71.8256 74.7851ZM74.8749 77.4246L82.1823 75.7358L81.6318 73.3538L79.7834 71.7539L74.8749 77.4246ZM75.8244 81.5331L68.517 83.2218L68.5857 83.5193L68.6784 83.8102L75.8244 81.5331ZM77.0363 85.3363L69.8904 87.6135L70.8875 90.7426L73.8633 92.1321L77.0363 85.3363ZM81.0966 87.2321L86.7398 82.292L85.7 81.1042L84.2696 80.4364L81.0966 87.2321ZM83.4435 89.9131L89.0502 94.8946L93.4435 89.9499L89.0867 84.973L83.4435 89.9131ZM77.4063 85.4162C74.6551 88.5127 74.935 93.2531 78.0315 96.0043C81.128 98.7555 85.8684 98.4756 88.6197 95.3792L83.013 90.3977L77.4063 85.4162ZM44.0123 58.0354L38.456 52.9977L38.3889 53.0718L43.9451 58.1095L49.5013 63.1472L49.5685 63.0731L44.0123 58.0354ZM43.9451 58.1095L41.5566 50.9999L37.7768 52.2698L40.1652 59.3793L42.5537 66.4888L46.3335 65.219L43.9451 58.1095ZM40.1652 59.3793L33.2723 56.4232L31.521 60.5069L38.4139 63.463L45.3067 66.4191L47.0581 62.3354L40.1652 59.3793ZM38.4139 63.463L36.9169 56.1139L32.5507 57.0033L34.0477 64.3524L35.5447 71.7015L39.9108 70.8121L38.4139 63.463ZM34.0477 64.3524L26.9901 61.8145L25.4928 65.9784L32.5504 68.5163L39.608 71.0542L41.1053 66.8902L34.0477 64.3524ZM32.5504 68.5163L29.8692 61.5119L25.9366 63.0173L28.6178 70.0216L31.299 77.026L35.2316 75.5207L32.5504 68.5163ZM28.6178 70.0216L22.4902 65.697L20.2044 68.9358L26.332 73.2604L32.4597 77.585L34.7454 74.3463L28.6178 70.0216ZM26.332 73.2604L22.3553 66.9015L18.876 69.0774L22.8528 75.4363L26.8296 81.7951L30.3088 79.6193L26.332 73.2604ZM22.8528 75.4363L17.3711 70.3175L14.6836 73.1956L20.1652 78.3144L25.6469 83.4331L28.3344 80.555L22.8528 75.4363ZM20.1652 78.3144L13.1272 75.7228L11.707 79.5798L18.745 82.1713L25.783 84.7629L27.2032 80.906L20.1652 78.3144ZM18.745 82.1713L13.8177 76.517L10.8228 79.1268L15.7501 84.7811L20.6774 90.4355L23.6723 87.8257L18.745 82.1713ZM15.7501 84.7811L10.6069 79.3224L7.74867 82.0155L12.8919 87.4742L18.0351 92.9329L20.8933 90.2398L15.7501 84.7811ZM12.8919 87.4742L5.64692 85.535L5.33116 86.7147L12.5761 88.6539L19.8211 90.5931L20.1369 89.4134L12.8919 87.4742ZM12.5761 88.6539L16.2829 95.1739L19.6933 93.2349L15.9866 86.715L12.2799 80.195L8.8694 82.1339L12.5761 88.6539ZM15.9866 86.715L21.7912 91.4644L24.2827 88.4193L18.4781 83.6699L12.6735 78.9205L10.182 81.9656L15.9866 86.715ZM18.4781 83.6699L23.5801 89.1671L26.4349 86.5176L21.3329 81.0204L16.2309 75.5232L13.3761 78.1727L18.4781 83.6699ZM21.3329 81.0204L22.9674 88.3401L27.3886 87.3528L25.7541 80.0331L24.1195 72.7134L19.6983 73.7007L21.3329 81.0204ZM25.7541 80.0331L31.3553 85.0207L33.9613 82.0941L28.3601 77.1065L22.7588 72.1189L20.1529 75.0455L25.7541 80.0331ZM28.3601 77.1065L35.0279 80.5402L36.9149 76.8758L30.247 73.4422L23.5792 70.0085L21.6922 73.6729L28.3601 77.1065ZM30.247 73.4422L34.4885 79.6277L37.7702 77.3774L33.5287 71.1919L29.2873 65.0064L26.0056 67.2567L30.247 73.4422ZM33.5287 71.1919L39.8482 75.2309L41.9585 71.9291L35.639 67.8901L29.3195 63.8511L27.2092 67.1529L33.5287 71.1919ZM35.639 67.8901L40.0527 73.9539L43.4162 71.5057L39.0025 65.4419L34.5888 59.3781L31.2254 61.8263L35.639 67.8901ZM39.0025 65.4419L46.407 66.6351L47.0889 62.4034L39.6844 61.2102L32.2799 60.017L31.598 64.2487L39.0025 65.4419ZM39.6844 61.2102L45.5208 65.9205L48.028 62.8138L42.1916 58.1035L36.3553 53.3932L33.848 56.4999L39.6844 61.2102ZM42.1916 58.1035L43.9417 65.3965L47.9414 64.4367L46.1914 57.1438L44.4413 49.8508L40.4416 50.8106L42.1916 58.1035ZM46.1914 57.1438L40.9303 62.4889L44.0176 65.5277L49.2787 60.1825L54.5398 54.8374L51.4525 51.7986L46.1914 57.1438ZM49.2787 60.1825L51.0097 67.48L55.874 66.3262L54.143 59.0287L52.4121 51.7312L47.5477 52.885L49.2787 60.1825ZM54.143 59.0287L49.0785 64.5605L52.0796 67.3081L57.1441 61.7762L62.2086 56.2444L59.2075 53.4969L54.143 59.0287ZM57.1441 61.7762L53.9725 68.5727L57.5985 70.2647L60.77 63.4683L63.9416 56.6719L60.3156 54.9798L57.1441 61.7762ZM60.77 63.4683L55.6509 68.9495L58.5531 71.66L63.6723 66.1788L68.7914 60.6976L65.8892 57.987L60.77 63.4683ZM63.6723 66.1788L56.7576 69.0835L58.4546 73.1231L65.3692 70.2184L72.2839 67.3137L70.5869 63.2741L63.6723 66.1788ZM65.3692 70.2184L61.0431 76.3449L64.2424 78.6041L68.5686 72.4776L72.8947 66.351L69.6954 64.0919L65.3692 70.2184ZM68.5686 72.4776L64.2328 78.5973L67.4898 80.9049L71.8256 74.7851L76.1614 68.6654L72.9044 66.3579L68.5686 72.4776ZM71.8256 74.7851L66.9171 80.4558L69.9664 83.0953L74.8749 77.4246L79.7834 71.7539L76.734 69.1144L71.8256 74.7851ZM74.8749 77.4246L67.5675 79.1133L68.517 83.2218L75.8244 81.5331L83.1318 79.8443L82.1823 75.7358L74.8749 77.4246ZM75.8244 81.5331L68.6784 83.8102L69.8904 87.6135L77.0363 85.3363L84.1823 83.0592L82.9703 79.2559L75.8244 81.5331ZM77.0363 85.3363L73.8633 92.1321L77.9236 94.0278L81.0966 87.2321L84.2696 80.4364L80.2093 78.5406L77.0363 85.3363ZM81.0966 87.2321L75.4534 92.1722L77.8003 94.8532L83.4435 89.9131L89.0867 84.973L86.7398 82.292L81.0966 87.2321ZM83.4435 89.9131L77.8369 84.9316L77.4063 85.4162L83.013 90.3977L88.6197 95.3792L89.0502 94.8946L83.4435 89.9131Z" fill="var(--stroke-0, #0D0D0D)"/>
<path id="Vector 43" d="M38.7576 52.3137C38.2494 56.4246 41.1699 60.1691 45.2808 60.6773C49.3916 61.1855 53.1361 58.265 53.6443 54.1542L46.201 53.2339L38.7576 52.3137ZM46.2132 53.1347L53.6566 54.0549L53.8082 52.8282L53.5582 51.6176L46.2132 53.1347ZM45.4526 49.4521L52.7976 47.935L52.488 46.4364L51.6161 45.1788L45.4526 49.4521ZM43.4911 46.623L49.6546 42.3497L48.7026 40.9765L47.2577 40.1374L43.4911 46.623ZM40.1145 44.662L34.661 49.8107L35.4075 50.6015L36.3479 51.1476L40.1145 44.662ZM37.4676 41.8585L42.9211 36.7098L42.5951 36.3644L42.2281 36.063L37.4676 41.8585ZM34.6652 39.5565L27.1926 40.1978L27.4628 43.3463L29.9047 45.3521L34.6652 39.5565ZM34.3207 35.5434L41.7933 34.9021L41.5855 32.4807L39.997 30.6413L34.3207 35.5434ZM31.5554 32.3412L24.0555 32.2907L24.0365 35.1097L25.8791 37.2432L31.5554 32.3412ZM31.5821 28.3784L39.0819 28.429L39.0844 28.0515L39.0491 27.6757L31.5821 28.3784ZM31.1988 24.3059L24.9377 20.1769L23.4845 22.3805L23.7318 25.0086L31.1988 24.3059ZM33.5372 20.7601L27.5831 16.1996L27.422 16.4099L27.2761 16.631L33.5372 20.7601ZM35.9041 17.6699L32.7814 10.8509L31.0847 11.6279L29.9499 13.1094L35.9041 17.6699ZM39.4382 16.0515L42.5609 22.8705L43.2818 22.5403L43.9178 22.0668L39.4382 16.0515ZM42.6982 13.6238L42.4887 6.12673L40.1195 6.19294L38.2187 7.60851L42.6982 13.6238ZM46.8419 13.508L47.0515 21.0051L48.5709 20.9626L49.954 20.3319L46.8419 13.508ZM50.3888 11.8904L53.5009 18.7143L54.7792 18.1313L55.7598 17.1252L50.3888 11.8904ZM53.3301 8.87262L56.1984 1.94278L51.5047 0L47.9591 3.63787L53.3301 8.87262ZM57.1027 10.4342L54.2344 17.364L55.9488 18.0736L57.7964 17.902L57.1027 10.4342ZM61.3749 10.0373L68.1658 6.8541L65.929 2.08206L60.6813 2.56949L61.3749 10.0373ZM63.1719 13.8711L56.381 17.0543L56.7386 17.8172L57.2565 18.4817L63.1719 13.8711ZM65.5538 16.9271L59.6384 21.5377L60.4229 22.5442L61.4962 23.2346L65.5538 16.9271ZM68.973 19.1266L74.8723 14.4954L74.0926 13.5022L73.0307 12.819L68.973 19.1266ZM71.5597 22.4216L79.0553 22.167L78.9722 19.7179L77.459 17.7904L71.5597 22.4216ZM71.7047 26.6918L77.3585 31.6197L79.3007 29.3914L79.2004 26.4372L71.7047 26.6918ZM68.8885 29.9227L63.2348 24.9947L61.9872 26.4261L61.5709 28.2787L68.8885 29.9227ZM68.0114 33.8268L60.6938 32.1827L60.6475 32.3888L60.6129 32.5972L68.0114 33.8268ZM67.3515 37.798L71.4636 44.0703L74.2113 42.2688L74.75 39.0276L67.3515 37.798ZM63.4759 40.3389L59.3638 34.0667L55.984 36.2825L55.9759 40.3239L63.4759 40.3389ZM63.4672 44.7033L68.4582 50.3016L70.9605 48.0707L70.9672 44.7183L63.4672 44.7033ZM60.3538 47.4791L64.8869 53.4541L65.1233 53.2747L65.3448 53.0773L60.3538 47.4791ZM56.9426 50.0671L57.4143 57.5523L59.6728 57.4099L61.4757 56.0421L56.9426 50.0671ZM52.8968 50.3221L50.9044 57.5526L52.1152 57.8863L53.3686 57.8073L52.8968 50.3221ZM52.9084 42.5458C48.9151 41.4454 44.7859 43.7905 43.6855 47.7838C42.5851 51.7771 44.9303 55.9064 48.9236 57.0068L50.916 49.7763L52.9084 42.5458ZM46.201 53.2339L53.6443 54.1542L53.6566 54.0549L46.2132 53.1347L38.7699 52.2145L38.7576 52.3137L46.201 53.2339ZM46.2132 53.1347L53.5582 51.6176L52.7976 47.935L45.4526 49.4521L38.1077 50.9692L38.8683 54.6518L46.2132 53.1347ZM45.4526 49.4521L51.6161 45.1788L49.6546 42.3497L43.4911 46.623L37.3276 50.8964L39.2891 53.7255L45.4526 49.4521ZM43.4911 46.623L47.2577 40.1374L43.8811 38.1764L40.1145 44.662L36.3479 51.1476L39.7246 53.1086L43.4911 46.623ZM40.1145 44.662L45.568 39.5133L42.9211 36.7098L37.4676 41.8585L32.0142 47.0073L34.661 49.8107L40.1145 44.662ZM37.4676 41.8585L42.2281 36.063L39.4256 33.761L34.6652 39.5565L29.9047 45.3521L32.7072 47.654L37.4676 41.8585ZM34.6652 39.5565L42.1377 38.9152L41.7933 34.9021L34.3207 35.5434L26.8482 36.1847L27.1926 40.1978L34.6652 39.5565ZM34.3207 35.5434L39.997 30.6413L37.2316 27.4392L31.5554 32.3412L25.8791 37.2432L28.6445 40.4454L34.3207 35.5434ZM31.5554 32.3412L39.0552 32.3917L39.0819 28.429L31.5821 28.3784L24.0822 28.3279L24.0555 32.2907L31.5554 32.3412ZM31.5821 28.3784L39.0491 27.6757L38.6658 23.6032L31.1988 24.3059L23.7318 25.0086L24.1151 29.0811L31.5821 28.3784ZM31.1988 24.3059L37.4599 28.4349L39.7983 24.8891L33.5372 20.7601L27.2761 16.631L24.9377 20.1769L31.1988 24.3059ZM33.5372 20.7601L39.4914 25.3205L41.8582 22.2304L35.9041 17.6699L29.9499 13.1094L27.5831 16.1996L33.5372 20.7601ZM35.9041 17.6699L39.0268 24.4889L42.5609 22.8705L39.4382 16.0515L36.3156 9.23245L32.7814 10.8509L35.9041 17.6699ZM39.4382 16.0515L43.9178 22.0668L47.1777 19.6391L42.6982 13.6238L38.2187 7.60851L34.9587 10.0362L39.4382 16.0515ZM42.6982 13.6238L42.9077 21.1209L47.0515 21.0051L46.8419 13.508L46.6324 6.01092L42.4887 6.12673L42.6982 13.6238ZM46.8419 13.508L49.954 20.3319L53.5009 18.7143L50.3888 11.8904L47.2768 5.06655L43.7299 6.68411L46.8419 13.508ZM50.3888 11.8904L55.7598 17.1252L58.7011 14.1074L53.3301 8.87262L47.9591 3.63787L45.0179 6.65568L50.3888 11.8904ZM53.3301 8.87262L50.4618 15.8025L54.2344 17.364L57.1027 10.4342L59.9711 3.50431L56.1984 1.94278L53.3301 8.87262ZM57.1027 10.4342L57.7964 17.902L62.0685 17.5052L61.3749 10.0373L60.6813 2.56949L56.4091 2.9663L57.1027 10.4342ZM61.3749 10.0373L54.5839 13.2206L56.381 17.0543L63.1719 13.8711L69.9629 10.6878L68.1658 6.8541L61.3749 10.0373ZM63.1719 13.8711L57.2565 18.4817L59.6384 21.5377L65.5538 16.9271L71.4693 12.3164L69.0874 9.26045L63.1719 13.8711ZM65.5538 16.9271L61.4962 23.2346L64.9153 25.4342L68.973 19.1266L73.0307 12.819L69.6115 10.6195L65.5538 16.9271ZM68.973 19.1266L63.0737 23.7578L65.6603 27.0528L71.5597 22.4216L77.459 17.7904L74.8723 14.4954L68.973 19.1266ZM71.5597 22.4216L64.064 22.6761L64.209 26.9463L71.7047 26.6918L79.2004 26.4372L79.0553 22.167L71.5597 22.4216ZM71.7047 26.6918L66.0509 21.7638L63.2348 24.9947L68.8885 29.9227L74.5423 34.8507L77.3585 31.6197L71.7047 26.6918ZM68.8885 29.9227L61.5709 28.2787L60.6938 32.1827L68.0114 33.8268L75.329 35.4708L76.2061 31.5667L68.8885 29.9227ZM68.0114 33.8268L60.6129 32.5972L59.9529 36.5685L67.3515 37.798L74.75 39.0276L75.41 35.0563L68.0114 33.8268ZM67.3515 37.798L63.2394 31.5258L59.3638 34.0667L63.4759 40.3389L67.588 46.6111L71.4636 44.0703L67.3515 37.798ZM63.4759 40.3389L55.9759 40.3239L55.9672 44.6884L63.4672 44.7033L70.9672 44.7183L70.9759 40.3539L63.4759 40.3389ZM63.4672 44.7033L58.4762 39.1051L55.3628 41.8809L60.3538 47.4791L65.3448 53.0773L68.4582 50.3016L63.4672 44.7033ZM60.3538 47.4791L55.8206 41.5041L52.4094 44.0921L56.9426 50.0671L61.4757 56.0421L64.8869 53.4541L60.3538 47.4791ZM56.9426 50.0671L56.4708 42.582L52.4251 42.837L52.8968 50.3221L53.3686 57.8073L57.4143 57.5523L56.9426 50.0671ZM52.8968 50.3221L54.8893 43.0916L52.9084 42.5458L50.916 49.7763L48.9236 57.0068L50.9044 57.5526L52.8968 50.3221Z" fill="var(--stroke-0, #0D0D0D)"/>
<path id="Vector 44" d="M38.436 40.2628C38.9107 44.3777 42.6312 47.3287 46.746 46.854C50.8609 46.3794 53.8119 42.6588 53.3372 38.544L45.8866 39.4034L38.436 40.2628ZM45.8752 39.3041L38.4056 39.9794L38.414 40.0716L38.4246 40.1635L45.8752 39.3041ZM45.5291 35.476L38.9942 31.7955L37.8495 33.828L38.0595 36.1513L45.5291 35.476ZM47.6089 31.7831L54.1437 35.4636L55.2784 33.449L55.0817 31.1453L47.6089 31.7831ZM47.2725 27.8413L40.2892 25.1056L39.6508 26.7353L39.7996 28.4792L47.2725 27.8413ZM48.6818 24.2437L44.3635 18.1117L42.5207 19.4094L41.6986 21.508L48.6818 24.2437ZM51.4346 22.3052L48.7116 15.3169L47.8619 15.648L47.1163 16.1731L51.4346 22.3052ZM54.8843 20.961L53.9499 13.5194L53.0275 13.6352L52.1613 13.9727L54.8843 20.961ZM58.9003 20.4567L59.8347 27.8983L62.0349 27.622L63.7312 26.1937L58.9003 20.4567ZM62.3224 17.5752L69.6336 15.903L66.8933 3.92138L57.4915 11.8382L62.3224 17.5752ZM63.2443 21.606L70.6181 22.9757L70.9018 21.4483L70.5555 19.9338L63.2443 21.606ZM62.633 24.8967L67.5929 30.5225L69.5343 28.8109L70.0069 26.2664L62.633 24.8967ZM59.7113 27.4726L63.3679 34.0208L64.0689 33.6294L64.6712 33.0984L59.7113 27.4726ZM56.3831 29.3311L52.7265 22.7828L52.1044 23.1303L51.5588 23.5886L56.3831 29.3311ZM53.3054 31.9167L52.3264 39.3525L55.6009 39.7837L58.1298 37.6592L53.3054 31.9167ZM49.122 31.3659L50.101 23.9301L47.513 23.5893L45.2727 24.9291L49.122 31.3659ZM45.8379 33.3298L38.3379 33.3387L38.3535 46.5444L49.6872 39.7667L45.8379 33.3298ZM45.8341 30.1059L38.7528 27.6351L38.3326 28.8394L38.3341 30.1148L45.8341 30.1059ZM47.0697 26.5646L42.4763 20.6359L40.7202 21.9964L39.9884 24.0938L47.0697 26.5646ZM50.3241 24.0433L53.4449 17.2234L49.3181 15.3349L45.7306 18.1145L50.3241 24.0433ZM53.1376 25.3308L58.6284 20.2218L57.6133 19.1309L56.2584 18.5109L53.1376 25.3308ZM55.8701 28.2675L62.8661 30.9705L64.5571 26.5937L61.3609 23.1586L55.8701 28.2675ZM54.3503 32.201L47.3543 29.498L46.335 32.1363L47.3116 34.7906L54.3503 32.201ZM55.7952 36.1283L63.2199 37.1879L63.4873 35.3146L62.8339 33.5387L55.7952 36.1283ZM55.2401 40.0177L47.8153 38.9581L47.7921 39.1207L47.7761 39.2841L55.2401 40.0177ZM54.852 43.9661L59.5991 49.7726L62.0113 47.8005L62.3161 44.6998L54.852 43.9661ZM51.8357 46.4322L49.7827 53.6457L53.5502 54.7179L56.5827 52.2386L51.8357 46.4322ZM48.2483 45.4112L40.9972 47.3273L42.0881 51.4559L46.1954 52.6248L48.2483 45.4112ZM47.477 42.4924L42.0663 37.2987L39.15 40.3369L40.2259 44.4084L47.477 42.4924ZM48.873 41.0381L54.2837 46.2318L59.9682 40.3096L53.5582 35.1816L48.873 41.0381ZM53.0865 34.8042C49.8521 32.2167 45.1324 32.7411 42.5448 35.9755C39.9572 39.21 40.4816 43.9297 43.7161 46.5173L48.4013 40.6607L53.0865 34.8042ZM45.8866 39.4034L53.3372 38.544L53.3258 38.4447L45.8752 39.3041L38.4246 40.1635L38.436 40.2628L45.8866 39.4034ZM45.8752 39.3041L53.3447 38.6288L52.9986 34.8006L45.5291 35.476L38.0595 36.1513L38.4056 39.9794L45.8752 39.3041ZM45.5291 35.476L52.0639 39.1564L54.1437 35.4636L47.6089 31.7831L41.0741 28.1027L38.9942 31.7955L45.5291 35.476ZM47.6089 31.7831L55.0817 31.1453L54.7453 27.2035L47.2725 27.8413L39.7996 28.4792L40.1361 32.421L47.6089 31.7831ZM47.2725 27.8413L54.2557 30.5771L55.6651 26.9794L48.6818 24.2437L41.6986 21.508L40.2892 25.1056L47.2725 27.8413ZM48.6818 24.2437L53.0002 30.3758L55.753 28.4372L51.4346 22.3052L47.1163 16.1731L44.3635 18.1117L48.6818 24.2437ZM51.4346 22.3052L54.1576 29.2934L57.6073 27.9492L54.8843 20.961L52.1613 13.9727L48.7116 15.3169L51.4346 22.3052ZM54.8843 20.961L55.8187 28.4025L59.8347 27.8983L58.9003 20.4567L57.9659 13.0151L53.9499 13.5194L54.8843 20.961ZM58.9003 20.4567L63.7312 26.1937L67.1532 23.3121L62.3224 17.5752L57.4915 11.8382L54.0695 14.7197L58.9003 20.4567ZM62.3224 17.5752L55.0112 19.2473L55.933 23.2781L63.2443 21.606L70.5555 19.9338L69.6336 15.903L62.3224 17.5752ZM63.2443 21.606L55.8704 20.2363L55.2592 23.527L62.633 24.8967L70.0069 26.2664L70.6181 22.9757L63.2443 21.606ZM62.633 24.8967L57.6731 19.2709L54.7514 21.8468L59.7113 27.4726L64.6712 33.0984L67.5929 30.5225L62.633 24.8967ZM59.7113 27.4726L56.0548 20.9243L52.7265 22.7828L56.3831 29.3311L60.0397 35.8793L63.3679 34.0208L59.7113 27.4726ZM56.3831 29.3311L51.5588 23.5886L48.4811 26.1743L53.3054 31.9167L58.1298 37.6592L61.2074 35.0735L56.3831 29.3311ZM53.3054 31.9167L54.2844 24.4809L50.101 23.9301L49.122 31.3659L48.143 38.8017L52.3264 39.3525L53.3054 31.9167ZM49.122 31.3659L45.2727 24.9291L41.9886 26.893L45.8379 33.3298L49.6872 39.7667L52.9713 37.8027L49.122 31.3659ZM45.8379 33.3298L53.3379 33.321L53.3341 30.0971L45.8341 30.1059L38.3341 30.1148L38.3379 33.3387L45.8379 33.3298ZM45.8341 30.1059L52.9154 32.5767L54.1511 29.0355L47.0697 26.5646L39.9884 24.0938L38.7528 27.6351L45.8341 30.1059ZM47.0697 26.5646L51.6632 32.4934L54.9175 29.972L50.3241 24.0433L45.7306 18.1145L42.4763 20.6359L47.0697 26.5646ZM50.3241 24.0433L47.2032 30.8631L50.0167 32.1506L53.1376 25.3308L56.2584 18.5109L53.4449 17.2234L50.3241 24.0433ZM53.1376 25.3308L47.6468 30.4397L50.3793 33.3765L55.8701 28.2675L61.3609 23.1586L58.6284 20.2218L53.1376 25.3308ZM55.8701 28.2675L48.8741 25.5645L47.3543 29.498L54.3503 32.201L61.3463 34.904L62.8661 30.9705L55.8701 28.2675ZM54.3503 32.201L47.3116 34.7906L48.7564 38.7179L55.7952 36.1283L62.8339 33.5387L61.3891 29.6115L54.3503 32.201ZM55.7952 36.1283L48.3704 35.0687L47.8153 38.9581L55.2401 40.0177L62.6649 41.0773L63.2199 37.1879L55.7952 36.1283ZM55.2401 40.0177L47.7761 39.2841L47.388 43.2325L54.852 43.9661L62.3161 44.6998L62.7041 40.7514L55.2401 40.0177ZM54.852 43.9661L50.1049 38.1597L47.0886 40.6257L51.8357 46.4322L56.5827 52.2386L59.5991 49.7726L54.852 43.9661ZM51.8357 46.4322L53.8886 39.2186L50.3013 38.1977L48.2483 45.4112L46.1954 52.6248L49.7827 53.6457L51.8357 46.4322ZM48.2483 45.4112L55.4994 43.4952L54.7282 40.5763L47.477 42.4924L40.2259 44.4084L40.9972 47.3273L48.2483 45.4112ZM47.477 42.4924L52.8878 47.686L54.2837 46.2318L48.873 41.0381L43.4623 35.8444L42.0663 37.2987L47.477 42.4924ZM48.873 41.0381L53.5582 35.1816L53.0865 34.8042L48.4013 40.6607L43.7161 46.5173L44.1878 46.8946L48.873 41.0381Z" fill="var(--stroke-0, #0D0D0D)"/>
</g>
</svg>
