<svg width="81.5126" height="164.284" overflow="visible" style="display: block;" viewBox="0 0 81.5126 164.284" fill="none" xmlns="http://www.w3.org/2000/svg">
<g id="clovek">
<path id="Vector 40" d="M0.675876 159.387C-0.371722 160.671 -0.180381 162.561 1.10325 163.608C2.38688 164.656 4.27671 164.465 5.32431 163.181L3.00009 161.284L0.675876 159.387ZM3.06332 161.207L0.756255 159.289L0.747633 159.299L0.739104 159.31L3.06332 161.207ZM3.99765 160.083L6.30472 162L6.42617 161.854L6.52822 161.694L3.99765 160.083ZM4.84773 158.747L3.37069 156.136L2.71918 156.505L2.31715 157.136L4.84773 158.747ZM6.27805 157.938L7.75509 160.55L8.69222 160.019L9.07842 159.014L6.27805 157.938ZM6.87472 156.386L5.2527 153.862L4.4266 154.393L4.07436 155.309L6.87472 156.386ZM8.24022 155.508L9.86225 158.032L10.124 157.863L10.3457 157.645L8.24022 155.508ZM9.3566 154.408L7.59717 151.978L7.41308 152.111L7.25117 152.271L9.3566 154.408ZM10.6635 153.462L12.423 155.892L13.1997 155.329L13.5062 154.421L10.6635 153.462ZM11.1973 151.88L8.43043 150.72L8.38894 150.819L8.35463 150.921L11.1973 151.88ZM11.8235 150.385L9.69019 148.276L9.28137 148.69L9.05663 149.226L11.8235 150.385ZM12.9247 149.272L15.0579 151.381L15.1017 151.337L15.1436 151.291L12.9247 149.272ZM13.9763 148.116L12.1323 145.75L11.93 145.907L11.7574 146.097L13.9763 148.116ZM15.2499 147.124L17.0939 149.49L18.0051 148.78L18.2047 147.642L15.2499 147.124ZM15.5513 145.406L13.1342 143.629L12.7179 144.195L12.5964 144.887L15.5513 145.406ZM16.4729 144.152L18.89 145.929L18.9681 145.823L19.0366 145.71L16.4729 144.152ZM17.2834 142.819L15.1952 140.665L14.9193 140.932L14.7197 141.261L17.2834 142.819ZM18.4183 141.718L20.5065 143.872L20.9201 143.471L21.1558 142.946L18.4183 141.718ZM19.0608 140.285L17.8011 137.563L16.7825 138.034L16.3233 139.058L19.0608 140.285ZM20.7386 139.509L21.9983 142.232L23.4086 141.579L23.6893 140.051L20.7386 139.509ZM21.041 137.863L18.617 136.095L18.214 136.648L18.0904 137.321L21.041 137.863ZM21.9631 136.598L24.3872 138.366L24.4618 138.263L24.5276 138.155L21.9631 136.598ZM22.7726 135.265L25.337 136.821L25.4966 136.559L25.5995 136.269L22.7726 135.265ZM23.302 133.775L21.2737 131.564L20.7246 132.068L20.4751 132.77L23.302 133.775ZM24.5153 132.662L26.5435 134.872L27.2576 134.217L27.4534 133.268L24.5153 132.662ZM24.8443 131.066L22.259 129.544L22.0066 129.973L21.9061 130.46L24.8443 131.066ZM25.6357 129.722L28.221 131.244L28.2452 131.203L28.268 131.161L25.6357 129.722ZM26.3837 128.354L23.8126 126.808L23.781 126.861L23.7515 126.915L26.3837 128.354ZM27.1891 127.014L25.2465 124.728L24.8715 125.047L24.618 125.469L27.1891 127.014ZM28.475 125.922L30.4176 128.208L30.8282 127.859L31.0917 127.389L28.475 125.922ZM29.2388 124.559L31.8555 126.027L32.2376 125.345L32.2388 124.564L29.2388 124.559ZM29.2415 122.808L26.6869 121.235L26.2428 121.956L26.2415 122.803L29.2415 122.808ZM30.0618 121.475L27.7075 119.616L27.599 119.753L27.5072 119.902L30.0618 121.475ZM31.0464 120.228L33.4007 122.088L34.0619 121.251L34.0461 120.184L31.0464 120.228ZM31.0201 118.456L28.7692 116.473L28.0033 117.342L28.0204 118.5L31.0201 118.456ZM32.0829 117.25L29.9673 115.123L29.8972 115.192L29.8319 115.266L32.0829 117.25ZM33.24 116.099L35.3556 118.226L35.5153 118.067L35.6495 117.886L33.24 116.099ZM34.1766 114.836L36.5862 116.623L36.8892 116.215L37.0406 115.729L34.1766 114.836ZM34.6497 113.319L37.5137 114.212L37.5663 114.043L37.5988 113.869L34.6497 113.319ZM34.9525 111.696L32.9149 109.494L32.1858 110.169L32.0035 111.146L34.9525 111.696ZM36.1503 110.588L38.188 112.789L39.0082 112.03L39.1319 110.919L36.1503 110.588ZM36.3408 108.877L35.1716 106.114L33.5536 106.799L33.3592 108.545L36.3408 108.877ZM38.0965 108.134L39.2657 110.897L40.3589 110.434L40.8395 109.348L38.0965 108.134ZM38.7347 106.692L36.2544 105.005L36.1016 105.229L35.9917 105.478L38.7347 106.692ZM39.6067 105.411L37.2815 103.515L37.1995 103.616L37.1264 103.723L39.6067 105.411ZM40.5104 104.302L41.8694 101.628L39.7133 100.532L38.1852 102.407L40.5104 104.302ZM41.7974 104.956L40.4383 107.631L40.8573 107.844L41.3214 107.918L41.7974 104.956ZM43.4451 105.221L46.1751 103.977L45.5085 102.514L43.921 102.259L43.4451 105.221ZM44.125 106.714L46.8782 105.522L46.8669 105.496L46.855 105.47L44.125 106.714ZM44.7531 108.165L41.9998 109.356L42.5595 110.65L43.912 111.045L44.7531 108.165ZM46.6631 108.723L49.6631 108.704L49.6489 106.47L47.5042 105.843L46.6631 108.723ZM46.6752 110.618L43.6752 110.637L43.6819 111.69L44.3447 112.507L46.6752 110.618ZM47.6656 111.84L50.1598 110.173L50.083 110.058L49.9961 109.951L47.6656 111.84ZM48.5426 113.152L46.0484 114.819L46.1601 114.986L46.2932 115.137L48.5426 113.152ZM49.5898 114.339L47.3404 116.324L47.3625 116.349L47.3852 116.373L49.5898 114.339ZM50.6478 115.485L48.4432 117.52L48.6347 117.727L48.8616 117.895L50.6478 115.485ZM51.9301 116.435L54.7199 115.332L54.4047 114.535L53.7162 114.025L51.9301 116.435ZM52.5338 117.962L49.744 119.065L49.8979 119.454L50.1524 119.786L52.5338 117.962ZM53.4794 119.196L51.0979 121.02L51.138 121.073L51.1803 121.123L53.4794 119.196ZM54.4782 120.388L52.1792 122.315L52.6748 122.906L53.3942 123.185L54.4782 120.388ZM56.1632 121.04L58.887 119.783L58.3785 118.682L57.2471 118.243L56.1632 121.04ZM56.8351 122.496L54.1112 123.753L54.4302 124.444L55.0401 124.9L56.8351 122.496ZM58.1351 123.467L60.861 122.214L60.5421 121.52L59.93 121.063L58.1351 123.467ZM58.8027 124.92L61.5866 123.802L61.5593 123.733L61.5286 123.667L58.8027 124.92ZM59.403 126.414L56.6191 127.532L57.0877 128.699L58.2483 129.183L59.403 126.414ZM61.0912 127.118L64.0886 127.243L64.1757 125.154L62.2459 124.349L61.0912 127.118ZM61.009 129.092L58.0116 128.967L57.9585 130.24L58.8372 131.162L61.009 129.092ZM62.0953 130.232L64.5044 128.444L64.3944 128.296L64.2671 128.163L62.0953 130.232ZM63.0247 131.485L60.6156 133.272L60.9204 133.683L61.3441 133.97L63.0247 131.485ZM64.4134 132.424L67.2758 131.526L66.962 130.526L66.0941 129.939L64.4134 132.424ZM64.9014 133.979L62.0391 134.877L62.097 135.062L62.1781 135.237L64.9014 133.979ZM65.5628 135.41L62.8395 136.669L63.2098 137.47L63.9551 137.943L65.5628 135.41ZM67.0043 136.325L69.8976 135.532L69.5911 134.414L68.6121 133.793L67.0043 136.325ZM67.4387 137.91L64.5454 138.703L64.6484 139.079L64.844 139.416L67.4387 137.91ZM68.2227 139.261L70.8691 137.848L70.8441 137.801L70.8173 137.755L68.2227 139.261ZM68.9603 140.642L66.3138 142.055L66.4094 142.234L66.5282 142.399L68.9603 140.642ZM69.8748 141.909L72.5551 140.561L72.4473 140.347L72.3069 140.152L69.8748 141.909ZM70.5817 143.315L67.9015 144.662L68.2063 145.268L68.7423 145.684L70.5817 143.315ZM71.882 144.324L70.0426 146.694L70.0883 146.729L70.1352 146.763L71.882 144.324ZM73.2281 145.288L75.9109 143.945L75.5786 143.281L74.9749 142.849L73.2281 145.288ZM73.9323 146.695L76.8228 145.892L76.745 145.612L76.6151 145.353L73.9323 146.695ZM74.3801 148.307L71.4896 149.11L71.7425 150.02L72.4712 150.621L74.3801 148.307ZM75.6143 149.325L77.5716 147.051L77.5476 147.03L77.5231 147.01L75.6143 149.325ZM76.9323 150.459L79.8706 149.854L79.6645 148.853L78.8896 148.186L76.9323 150.459ZM77.272 152.11L80.272 152.097L80.2707 151.798L80.2104 151.505L77.272 152.11ZM77.2785 153.652L80.2716 153.855L80.2789 153.747L80.2785 153.639L77.2785 153.652ZM74.2743 153.613C74.1622 155.266 75.4114 156.697 77.0645 156.809C78.7176 156.921 80.1485 155.672 80.2605 154.019L77.2674 153.816L74.2743 153.613ZM3.00009 161.284L5.32431 163.181L5.38754 163.103L3.06332 161.207L0.739104 159.31L0.675876 159.387L3.00009 161.284ZM3.06332 161.207L5.37039 163.124L6.30472 162L3.99765 160.083L1.69058 158.165L0.756255 159.289L3.06332 161.207ZM3.99765 160.083L6.52822 161.694L7.3783 160.359L4.84773 158.747L2.31715 157.136L1.46708 158.471L3.99765 160.083ZM4.84773 158.747L6.32476 161.359L7.75509 160.55L6.27805 157.938L4.80101 155.327L3.37069 156.136L4.84773 158.747ZM6.27805 157.938L9.07842 159.014L9.67509 157.462L6.87472 156.386L4.07436 155.309L3.47768 156.862L6.27805 157.938ZM6.87472 156.386L8.49675 158.909L9.86225 158.032L8.24022 155.508L6.6182 152.984L5.2527 153.862L6.87472 156.386ZM8.24022 155.508L10.3457 157.645L11.462 156.545L9.3566 154.408L7.25117 152.271L6.13479 153.371L8.24022 155.508ZM9.3566 154.408L11.116 156.838L12.423 155.892L10.6635 153.462L8.90411 151.032L7.59717 151.978L9.3566 154.408ZM10.6635 153.462L13.5062 154.421L14.0399 152.839L11.1973 151.88L8.35463 150.921L7.82092 152.503L10.6635 153.462ZM11.1973 151.88L13.9641 153.039L14.5903 151.545L11.8235 150.385L9.05663 149.226L8.43043 150.72L11.1973 151.88ZM11.8235 150.385L13.9567 152.495L15.0579 151.381L12.9247 149.272L10.7914 147.162L9.69019 148.276L11.8235 150.385ZM12.9247 149.272L15.1436 151.291L16.1952 150.135L13.9763 148.116L11.7574 146.097L10.7057 147.253L12.9247 149.272ZM13.9763 148.116L15.8203 150.482L17.0939 149.49L15.2499 147.124L13.4059 144.757L12.1323 145.75L13.9763 148.116ZM15.2499 147.124L18.2047 147.642L18.5061 145.924L15.5513 145.406L12.5964 144.887L12.295 146.605L15.2499 147.124ZM15.5513 145.406L17.9683 147.183L18.89 145.929L16.4729 144.152L14.0558 142.375L13.1342 143.629L15.5513 145.406ZM16.4729 144.152L19.0366 145.71L19.8471 144.377L17.2834 142.819L14.7197 141.261L13.9092 142.594L16.4729 144.152ZM17.2834 142.819L19.3715 144.973L20.5065 143.872L18.4183 141.718L16.3302 139.564L15.1952 140.665L17.2834 142.819ZM18.4183 141.718L21.1558 142.946L21.7983 141.513L19.0608 140.285L16.3233 139.058L15.6809 140.491L18.4183 141.718ZM19.0608 140.285L20.3205 143.008L21.9983 142.232L20.7386 139.509L19.4789 136.786L17.8011 137.563L19.0608 140.285ZM20.7386 139.509L23.6893 140.051L23.9917 138.405L21.041 137.863L18.0904 137.321L17.788 138.967L20.7386 139.509ZM21.041 137.863L23.4651 139.63L24.3872 138.366L21.9631 136.598L19.5391 134.831L18.617 136.095L21.041 137.863ZM21.9631 136.598L24.5276 138.155L25.337 136.821L22.7726 135.265L20.2082 133.708L19.3987 135.041L21.9631 136.598ZM22.7726 135.265L25.5995 136.269L26.1289 134.779L23.302 133.775L20.4751 132.77L19.9458 134.26L22.7726 135.265ZM23.302 133.775L25.3303 135.985L26.5435 134.872L24.5153 132.662L22.487 130.451L21.2737 131.564L23.302 133.775ZM24.5153 132.662L27.4534 133.268L27.7824 131.672L24.8443 131.066L21.9061 130.46L21.5771 132.055L24.5153 132.662ZM24.8443 131.066L27.4295 132.588L28.221 131.244L25.6357 129.722L23.0505 128.2L22.259 129.544L24.8443 131.066ZM25.6357 129.722L28.268 131.161L29.016 129.793L26.3837 128.354L23.7515 126.915L23.0035 128.283L25.6357 129.722ZM26.3837 128.354L28.9548 129.9L29.7602 128.56L27.1891 127.014L24.618 125.469L23.8126 126.808L26.3837 128.354ZM27.1891 127.014L29.1316 129.3L30.4176 128.208L28.475 125.922L26.5325 123.635L25.2465 124.728L27.1891 127.014ZM28.475 125.922L31.0917 127.389L31.8555 126.027L29.2388 124.559L26.6221 123.092L25.8583 124.454L28.475 125.922ZM29.2388 124.559L32.2388 124.564L32.2415 122.812L29.2415 122.808L26.2415 122.803L26.2388 124.555L29.2388 124.559ZM29.2415 122.808L31.7961 124.38L32.6164 123.048L30.0618 121.475L27.5072 119.902L26.6869 121.235L29.2415 122.808ZM30.0618 121.475L32.4161 123.335L33.4007 122.088L31.0464 120.228L28.6921 118.369L27.7075 119.616L30.0618 121.475ZM31.0464 120.228L34.0461 120.184L34.0198 118.411L31.0201 118.456L28.0204 118.5L28.0467 120.273L31.0464 120.228ZM31.0201 118.456L33.2711 120.439L34.3339 119.233L32.0829 117.25L29.8319 115.266L28.7692 116.473L31.0201 118.456ZM32.0829 117.25L34.1985 119.377L35.3556 118.226L33.24 116.099L31.1244 113.972L29.9673 115.123L32.0829 117.25ZM33.24 116.099L35.6495 117.886L36.5862 116.623L34.1766 114.836L31.767 113.049L30.8304 114.312L33.24 116.099ZM34.1766 114.836L37.0406 115.729L37.5137 114.212L34.6497 113.319L31.7857 112.426L31.3126 113.943L34.1766 114.836ZM34.6497 113.319L37.5988 113.869L37.9016 112.246L34.9525 111.696L32.0035 111.146L31.7006 112.768L34.6497 113.319ZM34.9525 111.696L36.9902 113.898L38.188 112.789L36.1503 110.588L34.1126 108.386L32.9149 109.494L34.9525 111.696ZM36.1503 110.588L39.1319 110.919L39.3223 109.209L36.3408 108.877L33.3592 108.545L33.1687 110.256L36.1503 110.588ZM36.3408 108.877L37.51 111.64L39.2657 110.897L38.0965 108.134L36.9272 105.371L35.1716 106.114L36.3408 108.877ZM38.0965 108.134L40.8395 109.348L41.4778 107.907L38.7347 106.692L35.9917 105.478L35.3534 106.919L38.0965 108.134ZM38.7347 106.692L41.215 108.38L42.087 107.099L39.6067 105.411L37.1264 103.723L36.2544 105.005L38.7347 106.692ZM39.6067 105.411L41.9319 107.307L42.8356 106.198L40.5104 104.302L38.1852 102.407L37.2815 103.515L39.6067 105.411ZM40.5104 104.302L39.1513 106.977L40.4383 107.631L41.7974 104.956L43.1564 102.282L41.8694 101.628L40.5104 104.302ZM41.7974 104.956L41.3214 107.918L42.9691 108.183L43.4451 105.221L43.921 102.259L42.2734 101.994L41.7974 104.956ZM43.4451 105.221L40.7151 106.465L41.395 107.957L44.125 106.714L46.855 105.47L46.1751 103.977L43.4451 105.221ZM44.125 106.714L41.3717 107.905L41.9998 109.356L44.7531 108.165L47.5063 106.973L46.8782 105.522L44.125 106.714ZM44.7531 108.165L43.912 111.045L45.8221 111.602L46.6631 108.723L47.5042 105.843L45.5942 105.285L44.7531 108.165ZM46.6631 108.723L43.6632 108.742L43.6752 110.637L46.6752 110.618L49.6751 110.599L49.6631 108.704L46.6631 108.723ZM46.6752 110.618L44.3447 112.507L45.3351 113.729L47.6656 111.84L49.9961 109.951L49.0056 108.729L46.6752 110.618ZM47.6656 111.84L45.1715 113.507L46.0484 114.819L48.5426 113.152L51.0367 111.485L50.1598 110.173L47.6656 111.84ZM48.5426 113.152L46.2932 115.137L47.3404 116.324L49.5898 114.339L51.8391 112.354L50.7919 111.167L48.5426 113.152ZM49.5898 114.339L47.3852 116.373L48.4432 117.52L50.6478 115.485L52.8523 113.45L51.7943 112.304L49.5898 114.339ZM50.6478 115.485L48.8616 117.895L50.144 118.845L51.9301 116.435L53.7162 114.025L52.4339 113.075L50.6478 115.485ZM51.9301 116.435L49.1403 117.538L49.744 119.065L52.5338 117.962L55.3236 116.859L54.7199 115.332L51.9301 116.435ZM52.5338 117.962L50.1524 119.786L51.0979 121.02L53.4794 119.196L55.8608 117.372L54.9153 116.137L52.5338 117.962ZM53.4794 119.196L51.1803 121.123L52.1792 122.315L54.4782 120.388L56.7773 118.46L55.7784 117.269L53.4794 119.196ZM54.4782 120.388L53.3942 123.185L55.0792 123.838L56.1632 121.04L57.2471 118.243L55.5622 117.59L54.4782 120.388ZM56.1632 121.04L53.4393 122.298L54.1112 123.753L56.8351 122.496L59.5589 121.239L58.887 119.783L56.1632 121.04ZM56.8351 122.496L55.0401 124.9L56.3402 125.871L58.1351 123.467L59.93 121.063L58.63 120.092L56.8351 122.496ZM58.1351 123.467L55.4092 124.72L56.0768 126.172L58.8027 124.92L61.5286 123.667L60.861 122.214L58.1351 123.467ZM58.8027 124.92L56.0188 126.038L56.6191 127.532L59.403 126.414L62.1869 125.296L61.5866 123.802L58.8027 124.92ZM59.403 126.414L58.2483 129.183L59.9365 129.887L61.0912 127.118L62.2459 124.349L60.5577 123.645L59.403 126.414ZM61.0912 127.118L58.0938 126.993L58.0116 128.967L61.009 129.092L64.0064 129.217L64.0886 127.243L61.0912 127.118ZM61.009 129.092L58.8372 131.162L59.9236 132.302L62.0953 130.232L64.2671 128.163L63.1807 127.023L61.009 129.092ZM62.0953 130.232L59.6862 132.02L60.6156 133.272L63.0247 131.485L65.4338 129.697L64.5044 128.444L62.0953 130.232ZM63.0247 131.485L61.3441 133.97L62.7327 134.909L64.4134 132.424L66.0941 129.939L64.7054 129L63.0247 131.485ZM64.4134 132.424L61.551 133.322L62.0391 134.877L64.9014 133.979L67.7638 133.081L67.2758 131.526L64.4134 132.424ZM64.9014 133.979L62.1781 135.237L62.8395 136.669L65.5628 135.41L68.2862 134.152L67.6248 132.721L64.9014 133.979ZM65.5628 135.41L63.9551 137.943L65.3966 138.858L67.0043 136.325L68.6121 133.793L67.1706 132.878L65.5628 135.41ZM67.0043 136.325L64.1111 137.119L64.5454 138.703L67.4387 137.91L70.3319 137.117L69.8976 135.532L67.0043 136.325ZM67.4387 137.91L64.844 139.416L65.628 140.767L68.2227 139.261L70.8173 137.755L70.0333 136.404L67.4387 137.91ZM68.2227 139.261L65.5762 140.674L66.3138 142.055L68.9603 140.642L71.6067 139.229L70.8691 137.848L68.2227 139.261ZM68.9603 140.642L66.5282 142.399L67.4427 143.665L69.8748 141.909L72.3069 140.152L71.3923 138.886L68.9603 140.642ZM69.8748 141.909L67.1946 143.256L67.9015 144.662L70.5817 143.315L73.262 141.967L72.5551 140.561L69.8748 141.909ZM70.5817 143.315L68.7423 145.684L70.0426 146.694L71.882 144.324L73.7214 141.954L72.4211 140.945L70.5817 143.315ZM71.882 144.324L70.1352 146.763L71.4813 147.727L73.2281 145.288L74.9749 142.849L73.6288 141.885L71.882 144.324ZM73.2281 145.288L70.5452 146.63L71.2494 148.038L73.9323 146.695L76.6151 145.353L75.9109 143.945L73.2281 145.288ZM73.9323 146.695L71.0418 147.498L71.4896 149.11L74.3801 148.307L77.2706 147.504L76.8228 145.892L73.9323 146.695ZM74.3801 148.307L72.4712 150.621L73.7054 151.639L75.6143 149.325L77.5231 147.01L76.2889 145.992L74.3801 148.307ZM75.6143 149.325L73.6569 151.598L74.9749 152.733L76.9323 150.459L78.8896 148.186L77.5716 147.051L75.6143 149.325ZM76.9323 150.459L73.9939 151.064L74.3336 152.715L77.272 152.11L80.2104 151.505L79.8706 149.854L76.9323 150.459ZM77.272 152.11L74.272 152.122L74.2785 153.665L77.2785 153.652L80.2785 153.639L80.272 152.097L77.272 152.11ZM77.2785 153.652L74.2854 153.449L74.2743 153.613L77.2674 153.816L80.2605 154.019L80.2716 153.855L77.2785 153.652Z" fill="var(--stroke-0, white)"/>
<path id="Vector 41" d="M37.3509 101.779C37.4838 103.43 38.9304 104.661 40.5819 104.528C42.2334 104.396 43.4645 102.949 43.3315 101.297L40.3412 101.538L37.3509 101.779ZM40.3332 101.438L43.3235 101.198L43.1067 98.5041L40.405 98.4393L40.3332 101.438ZM39.0151 101.407L36.0635 101.944L36.5007 104.347L38.9433 104.406L39.0151 101.407ZM38.7201 99.7845L35.728 99.5672L35.7004 99.9468L35.7685 100.321L38.7201 99.7845ZM38.8355 98.1945L41.8277 98.4118L41.8534 98.0573L41.7956 97.7066L38.8355 98.1945ZM38.5897 96.7031L41.5498 96.2152L41.4152 95.3987L40.8811 94.7667L38.5897 96.7031ZM37.3428 95.2276L34.7716 93.682L33.6649 95.5232L35.0514 97.164L37.3428 95.2276ZM38.2993 93.6362L40.8706 95.1818L41.6866 93.8242L41.0258 92.3846L38.2993 93.6362ZM37.5831 92.076L34.7347 91.1341L34.3642 92.2548L34.8566 93.3276L37.5831 92.076ZM38.0954 90.5266L40.9437 91.4684L41.0477 91.1541L41.0806 90.8246L38.0954 90.5266ZM38.2505 88.9731L41.2357 89.2711L41.2601 89.0263L41.2443 88.7807L38.2505 88.9731ZM38.15 87.4086L41.1438 87.2162L41.1214 86.8673L41.0194 86.533L38.15 87.4086ZM37.6652 85.8201L34.8729 84.7234L34.4908 85.6961L34.7959 86.6957L37.6652 85.8201ZM38.2659 84.2909L41.0582 85.3876L41.3668 84.6019L41.2204 83.7706L38.2659 84.2909ZM37.9879 82.7121L35.0088 83.0661L35.0187 83.1495L35.0333 83.2323L37.9879 82.7121ZM37.8013 81.1421L34.8754 80.4796L34.7613 80.9833L34.8223 81.4961L37.8013 81.1421ZM38.1516 79.595L35.5106 78.1719L35.3162 78.5328L35.2257 78.9325L38.1516 79.595ZM38.9665 78.0826L41.6075 79.5057L42.0973 78.5968L41.924 77.579L38.9665 78.0826ZM38.6973 76.502L35.8759 75.4824L35.6072 76.2261L35.7399 77.0056L38.6973 76.502ZM39.2492 74.9748L42.0706 75.9943L42.5212 74.7472L41.9023 73.5745L39.2492 74.9748ZM38.3943 73.355L35.3945 73.3895L35.4028 74.1143L35.7411 74.7552L38.3943 73.355ZM38.3762 71.791L35.7315 70.3748L35.3675 71.0546L35.3764 71.8256L38.3762 71.791ZM39.1855 70.2797L41.8302 71.6959L42.0837 71.2225L42.1573 70.6906L39.1855 70.2797ZM39.3999 68.7293L42.3716 69.1402L42.4442 68.6149L42.3324 68.0966L39.3999 68.7293ZM39.0586 67.1478L36.2838 66.0076L35.9296 66.8696L36.1261 67.7806L39.0586 67.1478ZM39.688 65.6162L42.4628 66.7565L42.6605 66.2756L42.6847 65.7562L39.688 65.6162ZM39.761 64.0522L42.7578 64.1922L42.791 63.4822L42.502 62.8328L39.761 64.0522ZM39.0609 62.4785L36.0614 62.4272L36.05 63.0912L36.32 63.698L39.0609 62.4785ZM39.0875 60.9289L36.1175 60.5056L36.0911 60.6906L36.0879 60.8776L39.0875 60.9289ZM39.31 59.3677L36.3823 58.7132L36.3566 58.8279L36.34 58.9443L39.31 59.3677ZM39.6707 57.754L42.5985 58.4085L42.8947 57.0833L42.0945 55.9861L39.6707 57.754ZM38.6341 56.3329L35.667 55.8902L35.4854 57.1069L36.2104 58.1008L38.6341 56.3329ZM38.877 54.7051L41.8441 55.1478L42.2421 52.4807L39.6323 51.8018L38.877 54.7051ZM39.4369 51.7509C37.8334 51.3338 36.1954 52.2955 35.7783 53.899C35.3611 55.5025 36.3229 57.1405 37.9263 57.5577L38.6816 54.6543L39.4369 51.7509ZM40.3412 101.538L43.3315 101.297L43.3235 101.198L40.3332 101.438L37.3429 101.679L37.3509 101.779L40.3412 101.538ZM40.3332 101.438L40.405 98.4393L39.087 98.4077L39.0151 101.407L38.9433 104.406L40.2613 104.438L40.3332 101.438ZM39.0151 101.407L41.9667 100.87L41.6717 99.2477L38.7201 99.7845L35.7685 100.321L36.0635 101.944L39.0151 101.407ZM38.7201 99.7845L41.7122 100.002L41.8277 98.4118L38.8355 98.1945L35.8434 97.9773L35.728 99.5672L38.7201 99.7845ZM38.8355 98.1945L41.7956 97.7066L41.5498 96.2152L38.5897 96.7031L35.6297 97.191L35.8755 98.6824L38.8355 98.1945ZM38.5897 96.7031L40.8811 94.7667L39.6342 93.2912L37.3428 95.2276L35.0514 97.164L36.2983 98.6395L38.5897 96.7031ZM37.3428 95.2276L39.9141 96.7731L40.8706 95.1818L38.2993 93.6362L35.7281 92.0907L34.7716 93.682L37.3428 95.2276ZM38.2993 93.6362L41.0258 92.3846L40.3095 90.8244L37.5831 92.076L34.8566 93.3276L35.5729 94.8879L38.2993 93.6362ZM37.5831 92.076L40.4314 93.0178L40.9437 91.4684L38.0954 90.5266L35.2471 89.5847L34.7347 91.1341L37.5831 92.076ZM38.0954 90.5266L41.0806 90.8246L41.2357 89.2711L38.2505 88.9731L35.2654 88.675L35.1102 90.2285L38.0954 90.5266ZM38.2505 88.9731L41.2443 88.7807L41.1438 87.2162L38.15 87.4086L35.1562 87.601L35.2567 89.1654L38.2505 88.9731ZM38.15 87.4086L41.0194 86.533L40.5346 84.9445L37.6652 85.8201L34.7959 86.6957L35.2806 88.2842L38.15 87.4086ZM37.6652 85.8201L40.4576 86.9168L41.0582 85.3876L38.2659 84.2909L35.4735 83.1942L34.8729 84.7234L37.6652 85.8201ZM38.2659 84.2909L41.2204 83.7706L40.9424 82.1918L37.9879 82.7121L35.0333 83.2323L35.3113 84.8111L38.2659 84.2909ZM37.9879 82.7121L40.9669 82.358L40.7803 80.7881L37.8013 81.1421L34.8223 81.4961L35.0088 83.0661L37.9879 82.7121ZM37.8013 81.1421L40.7272 81.8046L41.0775 80.2575L38.1516 79.595L35.2257 78.9325L34.8754 80.4796L37.8013 81.1421ZM38.1516 79.595L40.7926 81.0181L41.6075 79.5057L38.9665 78.0826L36.3255 76.6595L35.5106 78.1719L38.1516 79.595ZM38.9665 78.0826L41.924 77.579L41.6548 75.9983L38.6973 76.502L35.7399 77.0056L36.0091 78.5863L38.9665 78.0826ZM38.6973 76.502L41.5188 77.5215L42.0706 75.9943L39.2492 74.9748L36.4277 73.9553L35.8759 75.4824L38.6973 76.502ZM39.2492 74.9748L41.9023 73.5745L41.0474 71.9547L38.3943 73.355L35.7411 74.7552L36.596 76.3751L39.2492 74.9748ZM38.3943 73.355L41.3941 73.3204L41.376 71.7564L38.3762 71.791L35.3764 71.8256L35.3945 73.3895L38.3943 73.355ZM38.3762 71.791L41.0209 73.2072L41.8302 71.6959L39.1855 70.2797L36.5408 68.8635L35.7315 70.3748L38.3762 71.791ZM39.1855 70.2797L42.1573 70.6906L42.3716 69.1402L39.3999 68.7293L36.4281 68.3184L36.2138 69.8688L39.1855 70.2797ZM39.3999 68.7293L42.3324 68.0966L41.9911 66.5151L39.0586 67.1478L36.1261 67.7806L36.4674 69.3621L39.3999 68.7293ZM39.0586 67.1478L41.8335 68.288L42.4628 66.7565L39.688 65.6162L36.9131 64.476L36.2838 66.0076L39.0586 67.1478ZM39.688 65.6162L42.6847 65.7562L42.7578 64.1922L39.761 64.0522L36.7643 63.9122L36.6913 65.4762L39.688 65.6162ZM39.761 64.0522L42.502 62.8328L41.8019 61.2591L39.0609 62.4785L36.32 63.698L37.0201 65.2717L39.761 64.0522ZM39.0609 62.4785L42.0605 62.5299L42.087 60.9803L39.0875 60.9289L36.0879 60.8776L36.0614 62.4272L39.0609 62.4785ZM39.0875 60.9289L42.0574 61.3523L42.28 59.7911L39.31 59.3677L36.34 58.9443L36.1175 60.5056L39.0875 60.9289ZM39.31 59.3677L42.2377 60.0222L42.5985 58.4085L39.6707 57.754L36.743 57.0995L36.3823 58.7132L39.31 59.3677ZM39.6707 57.754L42.0945 55.9861L41.0579 54.565L38.6341 56.3329L36.2104 58.1008L37.247 59.5219L39.6707 57.754ZM38.6341 56.3329L41.6013 56.7756L41.8441 55.1478L38.877 54.7051L35.9098 54.2624L35.667 55.8902L38.6341 56.3329ZM38.877 54.7051L39.6323 51.8018L39.4369 51.7509L38.6816 54.6543L37.9263 57.5577L38.1217 57.6085L38.877 54.7051Z" fill="var(--stroke-0, white)"/>
<path id="Vector 42" d="M41.4725 54.4352C42.7264 53.3522 42.8649 51.4578 41.7818 50.2039C40.6988 48.95 38.8044 48.8115 37.5505 49.8945L39.5115 52.1649L41.4725 54.4352ZM39.4358 52.2302L40.2282 55.1237L40.883 54.9444L41.3968 54.5006L39.4358 52.2302ZM37.9584 52.6348L37.166 49.7414L35.8834 50.0926L35.2823 51.2789L37.9584 52.6348ZM37.1553 54.2199L37.5525 57.1935L39.1176 56.9844L39.8313 55.5758L37.1553 54.2199ZM35.3883 54.4559L34.9911 51.4823L33.3224 51.7052L32.6433 53.2456L35.3883 54.4559ZM34.6744 56.075L35.5416 58.947L36.8627 58.5481L37.4194 57.2854L34.6744 56.075ZM33.0619 56.5619L32.1947 53.69L31.3769 53.9369L30.8118 54.5777L33.0619 56.5619ZM32.0175 57.7463L33.2114 60.4985L33.8251 60.2323L34.2675 59.7305L32.0175 57.7463ZM30.515 58.3981L29.321 55.646L28.9854 55.7916L28.6945 56.0136L30.515 58.3981ZM29.2683 59.3499L27.4479 56.9654L26.973 57.328L26.6732 57.8449L29.2683 59.3499ZM28.4441 60.7712L30.008 63.3313L30.6574 62.9346L31.0392 62.2762L28.4441 60.7712ZM27.0862 61.6006L25.5223 59.0405L25.4532 59.0828L25.3865 59.1287L27.0862 61.6006ZM25.7836 62.4964L24.0838 60.0244L23.0228 60.7539L22.8208 62.0255L25.7836 62.4964ZM25.4744 64.442L27.083 66.9743L28.2249 66.2489L28.4372 64.9129L25.4744 64.442ZM24.1393 65.2901L22.5307 62.7579L22.0469 63.0652L21.7104 63.5293L24.1393 65.2901ZM23.2209 66.557L25.424 68.5933L25.5451 68.4622L25.6499 68.3178L23.2209 66.557ZM22.1696 67.6944L23.094 70.5484L23.8402 70.3067L24.3726 69.7307L22.1696 67.6944ZM20.4461 68.2526L19.5217 65.3986L18.5781 65.7043L18.0026 66.5121L20.4461 68.2526ZM19.5344 69.5326L17.0909 67.7921L16.859 68.1176L16.7205 68.4925L19.5344 69.5326ZM18.9606 71.085L20.7852 73.4664L21.4738 72.9388L21.7745 72.1251L18.9606 71.085ZM17.6884 72.0598L15.8638 69.6784L15.4924 69.963L15.2253 70.3472L17.6884 72.0598ZM16.7954 73.3441L18.367 75.8995L18.9007 75.5712L19.2585 75.0567L16.7954 73.3441ZM15.3794 74.2149L13.8078 71.6595L12.7518 72.3089L12.4623 73.5143L15.3794 74.2149ZM14.9784 75.8844L17.313 77.7684L17.7376 77.2423L17.8954 76.585L14.9784 75.8844ZM13.9987 77.0984L11.664 75.2145L11.5888 75.3077L11.5212 75.4067L13.9987 77.0984ZM13.1174 78.3891L14.3395 81.1289L15.1157 80.7827L15.595 80.0808L13.1174 78.3891ZM11.5035 79.109L10.2814 76.3692L8.47375 77.1755L8.50384 79.1546L11.5035 79.109ZM11.534 81.1149L13.4497 83.4236L14.5555 82.506L14.5336 81.0692L11.534 81.1149ZM10.3044 82.1351L8.38874 79.8264L7.96735 80.176L7.69666 80.652L10.3044 82.1351ZM9.52161 83.5115L11.6356 85.6401L11.9266 85.3511L12.1294 84.9946L9.52161 83.5115ZM8.42228 84.6033L6.30827 82.4747L9.60833 87.3589L8.42228 84.6033ZM9.27651 84.2356L10.4626 86.9912L11.1068 86.714L11.5613 86.1798L9.27651 84.2356ZM10.3013 83.0313L12.5861 84.9755L12.6584 84.8904L12.7243 84.8003L10.3013 83.0313ZM11.2437 81.7406L8.84905 79.9334L8.83473 79.9524L8.82072 79.9716L11.2437 81.7406ZM12.2025 80.4701L11.107 77.6773L10.3182 77.9866L9.80785 78.6629L12.2025 80.4701ZM13.7553 79.861L14.8508 82.6538L15.0657 82.5695L15.2652 82.4534L13.7553 79.861ZM15.1406 79.0542L16.6504 81.6466L17.5954 81.0962L17.9646 80.0667L15.1406 79.0542ZM15.7331 77.4017L13.8161 75.0941L13.1858 75.6177L12.9092 76.3892L15.7331 77.4017ZM16.9358 76.4026L18.8528 78.7103L18.8718 78.6945L18.8905 78.6784L16.9358 76.4026ZM18.1209 75.3847L16.2068 73.0746L16.1863 73.0916L16.1661 73.109L18.1209 75.3847ZM19.3254 74.3867L18.3862 71.5375L17.8479 71.7149L17.4114 72.0766L19.3254 74.3867ZM20.958 73.8485L21.8971 76.6977L22.9564 76.3486L23.5303 75.3922L20.958 73.8485ZM21.7949 72.4539L20.0716 69.9983L19.5502 70.3641L19.2225 70.9102L21.7949 72.4539ZM23.081 71.5513L24.8044 74.0069L25.4108 73.5813L25.7494 72.9223L23.081 71.5513ZM23.8405 70.073L22.2447 67.5327L21.5481 67.9703L21.1721 68.7021L23.8405 70.073ZM25.1873 69.227L23.6807 66.6327L23.6356 66.6589L23.5914 66.6867L25.1873 69.227ZM26.5749 68.4212L28.0814 71.0155L28.5698 70.7319L28.9216 70.2902L26.5749 68.4212ZM27.5655 67.1774L29.9122 69.0463L30.1137 68.7934L30.2566 68.5033L27.5655 67.1774ZM28.283 65.7212L30.9741 67.0471L31.0627 66.8673L31.1265 66.6774L28.283 65.7212ZM28.8084 64.1589L28.0015 61.2694L26.4713 61.6967L25.9648 63.2027L28.8084 64.1589ZM30.7025 63.63L31.5094 66.5194L32.8684 66.1399L33.4428 64.851L30.7025 63.63ZM31.3537 62.1687L34.0939 63.3898L34.2638 63.0087L34.3231 62.5957L31.3537 62.1687ZM31.6008 60.4503L29.1132 58.7734L28.7291 59.3432L28.6313 60.0233L31.6008 60.4503ZM32.4706 59.1599L30.6882 56.7468L30.2721 57.0542L29.9829 57.4831L32.4706 59.1599ZM33.805 58.1743L35.5874 60.5874L36.2657 60.0864L36.5837 59.3053L33.805 58.1743ZM34.4057 56.6984L32.2212 54.6422L31.8379 55.0495L31.6271 55.5674L34.4057 56.6984ZM35.4891 55.5474L37.6736 57.6035L38.0543 57.1991L38.2649 56.6853L35.4891 55.5474ZM36.0957 54.0676L34.933 51.3021L33.7901 51.7826L33.3199 52.9297L36.0957 54.0676ZM37.7273 53.3816L38.8901 56.1471L39.6203 55.8401L40.1038 55.2126L37.7273 53.3816ZM38.6095 52.2367L37.4209 49.4822L36.7074 49.7901L36.2331 50.4057L38.6095 52.2367ZM40.0501 51.615L39.3566 48.6963L39.1019 48.7568L38.8615 48.8605L40.0501 51.615ZM41.6975 51.2236L42.5135 48.3367L41.7629 48.1245L41.004 48.3049L41.6975 51.2236ZM43.2663 51.667L44.8452 49.1161L44.4873 48.8946L44.0823 48.7801L43.2663 51.667ZM44.6578 52.5283L43.0789 55.0792L43.6801 55.4514L44.3843 55.5158L44.6578 52.5283ZM46.2987 52.6785L48.8045 51.029L48.0104 49.8227L46.5721 49.691L46.2987 52.6785ZM47.3078 54.2115L44.802 55.861L45.6236 57.1091L47.1147 57.2053L47.3078 54.2115ZM49.0082 54.3212L50.5944 51.7748L49.9541 51.376L49.2013 51.3274L49.0082 54.3212ZM50.3417 55.1518L48.7555 57.6982L49.0829 57.9022L49.4513 58.0167L50.3417 55.1518ZM51.885 55.6315L54.3745 53.9574L53.7847 53.0803L52.7754 52.7667L51.885 55.6315ZM52.8384 57.0492L50.3489 58.7233L50.405 58.8066L50.4664 58.886L52.8384 57.0492ZM53.8429 58.3463L51.4709 60.1831L51.8733 60.7027L52.4561 61.0065L53.8429 58.3463ZM55.2282 59.0684L53.8414 61.7287L53.8499 61.7331L53.8584 61.7375L55.2282 59.0684ZM56.6289 59.7873L58.7515 57.6672L58.4182 57.3336L57.9987 57.1182L56.6289 59.7873ZM57.7401 60.8998L55.6175 63.0198L56.0789 63.4818L56.6905 63.7102L57.7401 60.8998ZM59.2747 61.4729L61.7941 59.8441L61.2548 59.01L60.3243 58.6625L59.2747 61.4729ZM60.155 62.8345L57.6357 64.4633L58.2948 65.4826L59.4772 65.7569L60.155 62.8345ZM61.8991 63.239L64.5623 61.858L63.9252 60.6294L62.5769 60.3166L61.8991 63.239ZM62.6613 64.7089L59.9981 66.09L60.0419 66.1746L60.0911 66.2563L62.6613 64.7089ZM63.4903 66.086L60.9201 67.6333L61.0245 67.8067L61.1513 67.9646L63.4903 66.086ZM64.4648 67.2993L62.1258 69.1779L62.7851 69.9988L63.8129 70.2276L64.4648 67.2993ZM66.3091 67.7098L68.8535 66.1205L68.1877 65.0546L66.961 64.7815L66.3091 67.7098ZM67.1536 69.0617L69.9241 67.9111L69.8291 67.6824L69.6979 67.4724L67.1536 69.0617ZM67.7804 70.5711L65.0098 71.7217L65.1835 72.1399L65.4728 72.4881L67.7804 70.5711ZM68.7726 71.7655L66.465 73.6825L66.6368 73.8893L66.8427 74.0623L68.7726 71.7655ZM70.0033 72.7996L72.4621 71.0807L72.2357 70.7568L71.9332 70.5027L70.0033 72.7996ZM70.9008 74.0833L68.442 75.8022L68.4964 75.8799L68.5555 75.9541L70.9008 74.0833ZM71.8855 75.3178L74.873 75.0444L74.7911 74.1495L74.2308 73.447L71.8855 75.3178ZM72.0431 77.0398L69.0556 77.3132L69.1505 78.3504L69.8678 79.1056L72.0431 77.0398ZM73.1475 78.2027L75.5881 76.458L75.4667 76.2882L75.3229 76.1368L73.1475 78.2027ZM74.0476 79.4617L71.6071 81.2064L71.9488 81.6844L72.4455 81.9981L74.0476 79.4617ZM75.4381 80.34L78.4279 80.0932L78.3049 78.6023L77.0401 77.8035L75.4381 80.34ZM75.5953 82.2444L72.6054 82.4911L72.7558 84.3124L74.4431 85.0143L75.5953 82.2444ZM77.1841 82.9053L80.064 82.065L79.6619 80.6868L78.3363 80.1354L77.1841 82.9053ZM77.6895 84.6375L74.8096 85.4777L75.532 87.9536L78.0882 87.6109L77.6895 84.6375ZM78.9109 87.5006C80.553 87.2804 81.7058 85.7707 81.4856 84.1285C81.2654 82.4863 79.7557 81.3336 78.1135 81.5538L78.5122 84.5272L78.9109 87.5006ZM39.5115 52.1649L37.5505 49.8945L37.4748 49.9599L39.4358 52.2302L41.3968 54.5006L41.4725 54.4352L39.5115 52.1649ZM39.4358 52.2302L38.6434 49.3368L37.166 49.7414L37.9584 52.6348L38.7508 55.5283L40.2282 55.1237L39.4358 52.2302ZM37.9584 52.6348L35.2823 51.2789L34.4792 52.8639L37.1553 54.2199L39.8313 55.5758L40.6345 53.9908L37.9584 52.6348ZM37.1553 54.2199L36.7581 51.2463L34.9911 51.4823L35.3883 54.4559L35.7855 57.4295L37.5525 57.1935L37.1553 54.2199ZM35.3883 54.4559L32.6433 53.2456L31.9294 54.8647L34.6744 56.075L37.4194 57.2854L38.1333 55.6662L35.3883 54.4559ZM34.6744 56.075L33.8072 53.2031L32.1947 53.69L33.0619 56.5619L33.9291 59.4339L35.5416 58.947L34.6744 56.075ZM33.0619 56.5619L30.8118 54.5777L29.7674 55.7621L32.0175 57.7463L34.2675 59.7305L35.312 58.5461L33.0619 56.5619ZM32.0175 57.7463L30.8235 54.9942L29.321 55.646L30.515 58.3981L31.709 61.1503L33.2114 60.4985L32.0175 57.7463ZM30.515 58.3981L28.6945 56.0136L27.4479 56.9654L29.2683 59.3499L31.0888 61.7344L32.3355 60.7826L30.515 58.3981ZM29.2683 59.3499L26.6732 57.8449L25.8489 59.2661L28.4441 60.7712L31.0392 62.2762L31.8635 60.8549L29.2683 59.3499ZM28.4441 60.7712L26.8802 58.2111L25.5223 59.0405L27.0862 61.6006L28.6502 64.1608L30.008 63.3313L28.4441 60.7712ZM27.0862 61.6006L25.3865 59.1287L24.0838 60.0244L25.7836 62.4964L27.4834 64.9684L28.786 64.0726L27.0862 61.6006ZM25.7836 62.4964L22.8208 62.0255L22.5116 63.9712L25.4744 64.442L28.4372 64.9129L28.7464 62.9672L25.7836 62.4964ZM25.4744 64.442L23.8657 61.9098L22.5307 62.7579L24.1393 65.2901L25.748 67.8224L27.083 66.9743L25.4744 64.442ZM24.1393 65.2901L21.7104 63.5293L20.792 64.7962L23.2209 66.557L25.6499 68.3178L26.5682 67.0509L24.1393 65.2901ZM23.2209 66.557L21.0179 64.5207L19.9665 65.6581L22.1696 67.6944L24.3726 69.7307L25.424 68.5933L23.2209 66.557ZM22.1696 67.6944L21.2452 64.8404L19.5217 65.3986L20.4461 68.2526L21.3705 71.1067L23.094 70.5484L22.1696 67.6944ZM20.4461 68.2526L18.0026 66.5121L17.0909 67.7921L19.5344 69.5326L21.9779 71.2731L22.8896 69.9931L20.4461 68.2526ZM19.5344 69.5326L16.7205 68.4925L16.1467 70.045L18.9606 71.085L21.7745 72.1251L22.3483 70.5727L19.5344 69.5326ZM18.9606 71.085L17.136 68.7037L15.8638 69.6784L17.6884 72.0598L19.513 74.4412L20.7852 73.4664L18.9606 71.085ZM17.6884 72.0598L15.2253 70.3472L14.3323 71.6314L16.7954 73.3441L19.2585 75.0567L20.1515 73.7724L17.6884 72.0598ZM16.7954 73.3441L15.2238 70.7887L13.8078 71.6595L15.3794 74.2149L16.9509 76.7703L18.367 75.8995L16.7954 73.3441ZM15.3794 74.2149L12.4623 73.5143L12.0613 75.1838L14.9784 75.8844L17.8954 76.585L18.2964 74.9155L15.3794 74.2149ZM14.9784 75.8844L12.6437 74.0004L11.664 75.2145L13.9987 77.0984L16.3334 78.9824L17.313 77.7684L14.9784 75.8844ZM13.9987 77.0984L11.5212 75.4067L10.6399 76.6974L13.1174 78.3891L15.595 80.0808L16.4762 78.7901L13.9987 77.0984ZM13.1174 78.3891L11.8953 75.6493L10.2814 76.3692L11.5035 79.109L12.7256 81.8488L14.3395 81.1289L13.1174 78.3891ZM11.5035 79.109L8.50384 79.1546L8.53434 81.1605L11.534 81.1149L14.5336 81.0692L14.5031 79.0634L11.5035 79.109ZM11.534 81.1149L9.61832 78.8061L8.38874 79.8264L10.3044 82.1351L12.2201 84.4438L13.4497 83.4236L11.534 81.1149ZM10.3044 82.1351L7.69666 80.652L6.91386 82.0284L9.52161 83.5115L12.1294 84.9946L12.9122 83.6182L10.3044 82.1351ZM9.52161 83.5115L7.4076 81.3829L6.30827 82.4747L8.42228 84.6033L10.5363 86.7319L11.6356 85.6401L9.52161 83.5115ZM8.42228 84.6033L9.60833 87.3589L10.4626 86.9912L9.27651 84.2356L8.09047 81.48L7.23624 81.8477L8.42228 84.6033ZM9.27651 84.2356L11.5613 86.1798L12.5861 84.9755L10.3013 83.0313L8.01656 81.0871L6.99174 82.2915L9.27651 84.2356ZM10.3013 83.0313L12.7243 84.8003L13.6666 83.5096L11.2437 81.7406L8.82072 79.9716L7.87839 81.2623L10.3013 83.0313ZM11.2437 81.7406L13.6383 83.5477L14.5971 82.2772L12.2025 80.4701L9.80785 78.6629L8.84905 79.9334L11.2437 81.7406ZM12.2025 80.4701L13.2979 83.2629L14.8508 82.6538L13.7553 79.861L12.6599 77.0682L11.107 77.6773L12.2025 80.4701ZM13.7553 79.861L15.2652 82.4534L16.6504 81.6466L15.1406 79.0542L13.6308 76.4618L12.2455 77.2686L13.7553 79.861ZM15.1406 79.0542L17.9646 80.0667L18.5571 78.4143L15.7331 77.4017L12.9092 76.3892L12.3166 78.0416L15.1406 79.0542ZM15.7331 77.4017L17.6501 79.7093L18.8528 78.7103L16.9358 76.4026L15.0188 74.095L13.8161 75.0941L15.7331 77.4017ZM16.9358 76.4026L18.8905 78.6784L20.0756 77.6605L18.1209 75.3847L16.1661 73.109L14.981 74.1269L16.9358 76.4026ZM18.1209 75.3847L20.0349 77.6948L21.2395 76.6968L19.3254 74.3867L17.4114 72.0766L16.2068 73.0746L18.1209 75.3847ZM19.3254 74.3867L20.2646 77.2359L21.8971 76.6977L20.958 73.8485L20.0188 70.9993L18.3862 71.5375L19.3254 74.3867ZM20.958 73.8485L23.5303 75.3922L24.3673 73.9976L21.7949 72.4539L19.2225 70.9102L18.3856 72.3049L20.958 73.8485ZM21.7949 72.4539L23.5182 74.9095L24.8044 74.0069L23.081 71.5513L21.3577 69.0957L20.0716 69.9983L21.7949 72.4539ZM23.081 71.5513L25.7494 72.9223L26.5089 71.444L23.8405 70.073L21.1721 68.7021L20.4126 70.1803L23.081 71.5513ZM23.8405 70.073L25.4364 72.6134L26.7831 71.7674L25.1873 69.227L23.5914 66.6867L22.2447 67.5327L23.8405 70.073ZM25.1873 69.227L26.6938 71.8213L28.0814 71.0155L26.5749 68.4212L25.0684 65.8269L23.6807 66.6327L25.1873 69.227ZM26.5749 68.4212L28.9216 70.2902L29.9122 69.0463L27.5655 67.1774L25.2188 65.3084L24.2282 66.5523L26.5749 68.4212ZM27.5655 67.1774L30.2566 68.5033L30.9741 67.0471L28.283 65.7212L25.5919 64.3952L24.8744 65.8514L27.5655 67.1774ZM28.283 65.7212L31.1265 66.6774L31.6519 65.1151L28.8084 64.1589L25.9648 63.2027L25.4395 64.7649L28.283 65.7212ZM28.8084 64.1589L29.6152 67.0483L31.5094 66.5194L30.7025 63.63L29.8957 60.7405L28.0015 61.2694L28.8084 64.1589ZM30.7025 63.63L33.4428 64.851L34.0939 63.3898L31.3537 62.1687L28.6134 60.9476L27.9623 62.4089L30.7025 63.63ZM31.3537 62.1687L34.3231 62.5957L34.5702 60.8773L31.6008 60.4503L28.6313 60.0233L28.3842 61.7417L31.3537 62.1687ZM31.6008 60.4503L34.0884 62.1271L34.9582 60.8368L32.4706 59.1599L29.9829 57.4831L29.1132 58.7734L31.6008 60.4503ZM32.4706 59.1599L34.2529 61.5731L35.5874 60.5874L33.805 58.1743L32.0226 55.7612L30.6882 56.7468L32.4706 59.1599ZM33.805 58.1743L36.5837 59.3053L37.1844 57.8294L34.4057 56.6984L31.6271 55.5674L31.0263 57.0433L33.805 58.1743ZM34.4057 56.6984L36.5903 58.7546L37.6736 57.6035L35.4891 55.5474L33.3046 53.4912L32.2212 54.6422L34.4057 56.6984ZM35.4891 55.5474L38.2649 56.6853L38.8715 55.2055L36.0957 54.0676L33.3199 52.9297L32.7133 54.4095L35.4891 55.5474ZM36.0957 54.0676L37.2584 56.8331L38.8901 56.1471L37.7273 53.3816L36.5646 50.6161L34.933 51.3021L36.0957 54.0676ZM37.7273 53.3816L40.1038 55.2126L40.9859 54.0677L38.6095 52.2367L36.2331 50.4057L35.3509 51.5505L37.7273 53.3816ZM38.6095 52.2367L39.7981 54.9912L41.2387 54.3695L40.0501 51.615L38.8615 48.8605L37.4209 49.4822L38.6095 52.2367ZM40.0501 51.615L40.7436 54.5338L42.391 54.1423L41.6975 51.2236L41.004 48.3049L39.3566 48.6963L40.0501 51.615ZM41.6975 51.2236L40.8815 54.1105L42.4503 54.5539L43.2663 51.667L44.0823 48.7801L42.5135 48.3367L41.6975 51.2236ZM43.2663 51.667L41.6874 54.2179L43.0789 55.0792L44.6578 52.5283L46.2367 49.9775L44.8452 49.1161L43.2663 51.667ZM44.6578 52.5283L44.3843 55.5158L46.0252 55.666L46.2987 52.6785L46.5721 49.691L44.9313 49.5408L44.6578 52.5283ZM46.2987 52.6785L43.7929 54.328L44.802 55.861L47.3078 54.2115L49.8136 52.562L48.8045 51.029L46.2987 52.6785ZM47.3078 54.2115L47.1147 57.2053L48.8151 57.315L49.0082 54.3212L49.2013 51.3274L47.5009 51.2178L47.3078 54.2115ZM49.0082 54.3212L47.4221 56.8676L48.7555 57.6982L50.3417 55.1518L51.9279 52.6055L50.5944 51.7748L49.0082 54.3212ZM50.3417 55.1518L49.4513 58.0167L50.9946 58.4963L51.885 55.6315L52.7754 52.7667L51.2321 52.287L50.3417 55.1518ZM51.885 55.6315L49.3956 57.3056L50.3489 58.7233L52.8384 57.0492L55.3278 55.3751L54.3745 53.9574L51.885 55.6315ZM52.8384 57.0492L50.4664 58.886L51.4709 60.1831L53.8429 58.3463L56.2148 56.5094L55.2103 55.2123L52.8384 57.0492ZM53.8429 58.3463L52.4561 61.0065L53.8414 61.7287L55.2282 59.0684L56.615 56.4082L55.2296 55.686L53.8429 58.3463ZM55.2282 59.0684L53.8584 61.7375L55.2592 62.4563L56.6289 59.7873L57.9987 57.1182L56.5979 56.3994L55.2282 59.0684ZM56.6289 59.7873L54.5063 61.9073L55.6175 63.0198L57.7401 60.8998L59.8627 58.7797L58.7515 57.6672L56.6289 59.7873ZM57.7401 60.8998L56.6905 63.7102L58.2252 64.2833L59.2747 61.4729L60.3243 58.6625L58.7896 58.0894L57.7401 60.8998ZM59.2747 61.4729L56.7554 63.1017L57.6357 64.4633L60.155 62.8345L62.6744 61.2057L61.7941 59.8441L59.2747 61.4729ZM60.155 62.8345L59.4772 65.7569L61.2212 66.1614L61.8991 63.239L62.5769 60.3166L60.8329 59.9121L60.155 62.8345ZM61.8991 63.239L59.2358 64.6201L59.9981 66.09L62.6613 64.7089L65.3245 63.3279L64.5623 61.858L61.8991 63.239ZM62.6613 64.7089L60.0911 66.2563L60.9201 67.6333L63.4903 66.086L66.0605 64.5386L65.2314 63.1616L62.6613 64.7089ZM63.4903 66.086L61.1513 67.9646L62.1258 69.1779L64.4648 67.2993L66.8038 65.4207L65.8293 64.2074L63.4903 66.086ZM64.4648 67.2993L63.8129 70.2276L65.6572 70.6382L66.3091 67.7098L66.961 64.7815L65.1167 64.371L64.4648 67.2993ZM66.3091 67.7098L63.7647 69.2992L64.6092 70.6511L67.1536 69.0617L69.6979 67.4724L68.8535 66.1205L66.3091 67.7098ZM67.1536 69.0617L64.383 70.2123L65.0098 71.7217L67.7804 70.5711L70.551 69.4205L69.9241 67.9111L67.1536 69.0617ZM67.7804 70.5711L65.4728 72.4881L66.465 73.6825L68.7726 71.7655L71.0802 69.8484L70.088 68.6541L67.7804 70.5711ZM68.7726 71.7655L66.8427 74.0623L68.0735 75.0964L70.0033 72.7996L71.9332 70.5027L70.7024 69.4686L68.7726 71.7655ZM70.0033 72.7996L67.5446 74.5184L68.442 75.8022L70.9008 74.0833L73.3596 72.3645L72.4621 71.0807L70.0033 72.7996ZM70.9008 74.0833L68.5555 75.9541L69.5403 77.1886L71.8855 75.3178L74.2308 73.447L73.246 72.2126L70.9008 74.0833ZM71.8855 75.3178L68.898 75.5912L69.0556 77.3132L72.0431 77.0398L75.0306 76.7663L74.873 75.0444L71.8855 75.3178ZM72.0431 77.0398L69.8678 79.1056L70.9722 80.2686L73.1475 78.2027L75.3229 76.1368L74.2185 74.9739L72.0431 77.0398ZM73.1475 78.2027L70.707 79.9474L71.6071 81.2064L74.0476 79.4617L76.4881 77.717L75.5881 76.458L73.1475 78.2027ZM74.0476 79.4617L72.4455 81.9981L73.8361 82.8764L75.4381 80.34L77.0401 77.8035L75.6496 76.9253L74.0476 79.4617ZM75.4381 80.34L72.4483 80.5867L72.6054 82.4911L75.5953 82.2444L78.5851 81.9976L78.4279 80.0932L75.4381 80.34ZM75.5953 82.2444L74.4431 85.0143L76.0319 85.6752L77.1841 82.9053L78.3363 80.1354L76.7475 79.4745L75.5953 82.2444ZM77.1841 82.9053L74.3042 83.7455L74.8096 85.4777L77.6895 84.6375L80.5694 83.7972L80.064 82.065L77.1841 82.9053ZM77.6895 84.6375L78.0882 87.6109L78.9109 87.5006L78.5122 84.5272L78.1135 81.5538L77.2908 81.6641L77.6895 84.6375Z" fill="var(--stroke-0, white)"/>
<path id="Vector 43" d="M39.3178 49.1866C40.3247 50.5024 42.2076 50.7528 43.5234 49.7459C44.8392 48.7389 45.0895 46.856 44.0826 45.5402L41.7002 47.3634L39.3178 49.1866ZM41.6394 47.284L38.6664 47.6853L38.7729 48.4747L39.257 49.1072L41.6394 47.284ZM41.439 45.7995L38.4974 45.2107L38.3988 45.7031L38.466 46.2008L41.439 45.7995ZM41.7506 44.2426L44.6923 44.8313L44.8124 44.2312L44.6878 43.6319L41.7506 44.2426ZM41.4322 42.7107L44.3694 42.1L44.2646 41.596L43.9978 41.1558L41.4322 42.7107ZM40.5579 41.2682L43.1235 39.7133L42.5743 38.807L41.5776 38.4468L40.5579 41.2682ZM39.015 40.7106L36.8253 42.7613L37.3178 43.2872L37.9954 43.532L39.015 40.7106ZM37.8862 39.5054L40.0759 37.4547L39.1933 36.5122L37.9021 36.5054L37.8862 39.5054ZM36.1224 39.4961L34.7517 42.1646L35.3895 42.4922L36.1066 42.496L36.1224 39.4961ZM34.7311 38.7814L36.1019 36.1129L35.8692 35.9933L35.6193 35.9159L34.7311 38.7814ZM33.1871 38.3028L30.7878 40.1038L31.371 40.8807L32.2989 41.1683L33.1871 38.3028ZM32.1776 36.958L34.5769 35.1571L34.4642 35.007L34.3338 34.8721L32.1776 36.958ZM31.0912 35.835L28.4212 37.2029L28.6247 37.6001L28.935 37.9209L31.0912 35.835ZM30.379 34.445L33.049 33.0771L32.8593 32.7068L32.576 32.4021L30.379 34.445ZM29.2691 33.2514L26.2731 33.4065L26.3295 34.4957L27.0722 35.2944L29.2691 33.2514ZM29.183 31.5861L32.179 31.4311L32.1546 30.9611L31.9876 30.5212L29.183 31.5861ZM28.6308 30.132L31.4354 29.067L31.2387 28.549L30.8699 28.1354L28.6308 30.132ZM27.495 28.8582L24.7391 27.6727L23.984 29.4284L25.2559 30.8548L27.495 28.8582ZM28.2191 27.1747L30.975 28.3601L31.6336 26.829L30.6815 25.461L28.2191 27.1747ZM27.1744 25.6736L24.4114 24.505L23.7668 26.0291L24.7121 27.3874L27.1744 25.6736ZM27.8311 24.1209L30.5942 25.2895L30.7481 24.9256L30.8025 24.5343L27.8311 24.1209ZM28.0449 22.584L31.0163 22.9974L31.0848 22.5055L30.991 22.0177L28.0449 22.584ZM27.7391 20.9927L24.7467 21.2072L24.7594 21.3845L24.793 21.559L27.7391 20.9927ZM27.6245 19.3953L24.6661 18.8976L24.6065 19.2516L24.6322 19.6098L27.6245 19.3953ZM27.8861 17.8406L25.4536 16.0849L25.0438 16.6525L24.9277 17.3429L27.8861 17.8406ZM28.8822 16.4606L31.3147 18.2164L31.8338 17.4972L31.8784 16.6114L28.8822 16.4606ZM28.9628 14.8579L26.0529 14.1285L25.9814 14.4136L25.9666 14.7071L28.9628 14.8579ZM29.3745 13.2155L28.5381 10.3344L26.8835 10.8148L26.4646 12.486L29.3745 13.2155ZM31.169 12.6945L32.0054 15.5756L33.3103 15.1967L33.8862 13.966L31.169 12.6945ZM31.8982 11.1362L30.5032 8.48022L29.6091 8.94987L29.181 9.86465L31.8982 11.1362ZM33.3088 10.3952L34.7038 13.0512L35.0026 12.8943L35.259 12.6749L33.3088 10.3952ZM34.5591 9.32568L34.0614 6.36726L33.2411 6.50527L32.6089 7.04602L34.5591 9.32568ZM36.1608 9.05621L36.6585 12.0146L36.8415 11.9839L37.0193 11.9308L36.1608 9.05621ZM37.6654 8.60685L38.5239 11.4814L38.9498 11.3542L39.3205 11.109L37.6654 8.60685ZM39.0051 7.72075L39.7803 4.82265L38.4761 4.47376L37.35 5.2186L39.0051 7.72075ZM40.8771 8.22153L40.1019 11.1196L41.8818 11.5958L43.1114 10.2235L40.8771 8.22153ZM42.0188 6.94734L41.0242 4.117L40.2981 4.37217L39.7845 4.94539L42.0188 6.94734ZM43.4979 6.4276L44.4924 9.25794L45.0496 9.06216L45.4909 8.66984L43.4979 6.4276ZM44.7135 5.34702L44.8861 2.35199L43.6476 2.28064L42.7205 3.10478L44.7135 5.34702ZM46.4801 5.44878L46.3076 8.44382L47.3155 8.50188L48.1535 7.93873L46.4801 5.44878ZM47.7904 4.56818L49.4638 7.05813L49.7058 6.89548L49.912 6.68926L47.7904 4.56818ZM48.983 3.37534L49.102 0.377698L47.7899 0.325617L46.8614 1.25426L48.983 3.37534ZM50.6921 3.44318L50.5731 6.44082L50.7594 6.44821L50.9452 6.43249L50.6921 3.44318ZM52.1353 3.32101L53.1991 0.515959L52.5616 0.274192L51.8822 0.331702L52.1353 3.32101ZM53.4524 3.82053L52.3886 6.62558L53.2183 6.94025L54.0857 6.75293L53.4524 3.82053ZM55.3975 3.40046L58.015 1.93456L56.9315 0L54.7642 0.468064L55.3975 3.40046ZM56.2586 4.93806L53.6412 6.40396L53.9498 6.95513L54.4546 7.33502L56.2586 4.93806ZM57.5044 5.87566L60.2503 4.66742L59.9347 3.95003L59.3084 3.4787L57.5044 5.87566ZM58.1787 7.40813L55.4328 8.61637L55.9605 9.8157L57.1989 10.2436L58.1787 7.40813ZM59.8225 7.9761L62.4982 6.61939L61.9493 5.53695L60.8022 5.1406L59.8225 7.9761ZM60.555 9.42073L57.8793 10.7774L58.3539 11.7135L59.3085 12.1495L60.555 9.42073ZM62.1054 10.129L64.0942 7.88287L63.7591 7.58617L63.3519 7.4002L62.1054 10.129ZM63.2859 11.1741L65.9215 9.74121L65.6695 9.27773L65.2746 8.92802L63.2859 11.1741ZM64.0495 12.5787L61.4138 14.0116L61.5226 14.2118L61.6605 14.3933L64.0495 12.5787ZM65.0108 13.8443L62.6218 15.6589L62.7349 15.8078L62.8656 15.9415L65.0108 13.8443ZM66.1891 15.0495L69.0396 15.9846L69.6072 14.2544L68.3343 12.9524L66.1891 15.0495ZM65.5731 16.9274L62.7225 15.9924L62.1847 17.6321L63.3316 18.9214L65.5731 16.9274ZM66.7921 18.2978L69.7367 18.8714L70.0207 17.4136L69.0336 16.3039L66.7921 18.2978ZM66.4805 19.8973L69.03 21.4785L69.32 21.0109L69.4252 20.4709L66.4805 19.8973ZM65.6065 21.3065L63.057 19.7253L62.5353 20.5666L62.6167 21.5533L65.6065 21.3065ZM65.7425 22.9542L67.9805 24.9521L68.8383 23.9912L68.7323 22.7075L65.7425 22.9542ZM64.6518 24.176L62.4138 22.1781L61.6191 23.0684L61.653 24.2613L64.6518 24.176ZM64.7022 25.9505L67.1604 27.6703L67.7292 26.8572L67.701 25.8653L64.7022 25.9505ZM63.805 27.2329L61.3469 25.5131L61.1248 25.8306L60.9906 26.1942L63.805 27.2329ZM63.2633 28.7009L66.0105 29.9061L66.0466 29.8238L66.0777 29.7395L63.2633 28.7009ZM62.6389 30.124L64.4316 32.5295L65.0676 32.0555L65.3862 31.3292L62.6389 30.124ZM61.2212 31.1806L59.4285 28.7751L58.6299 29.3702L58.3458 30.3249L61.2212 31.1806ZM60.7711 32.693L63.3959 34.1457L63.5536 33.8608L63.6465 33.5486L60.7711 32.693ZM60.0122 34.0641L57.3874 32.6114L57.3559 32.6682L57.3269 32.7264L60.0122 34.0641ZM59.3157 35.4621L56.6305 34.1244L56.4592 34.4683L56.38 34.8442L59.3157 35.4621ZM58.9882 37.0183L61.5382 38.5986L61.8155 38.1512L61.9239 37.6362L58.9882 37.0183ZM58.1708 38.3373L55.6208 36.757L55.3282 37.2291L55.224 37.7747L58.1708 38.3373ZM57.8353 40.0946L59.8021 42.3599L60.5871 41.6784L60.782 40.6573L57.8353 40.0946ZM56.5721 41.1914L58.1312 43.7545L58.3476 43.6228L58.5389 43.4567L56.5721 41.1914ZM55.1589 42.0511L55.7578 44.9907L56.2708 44.8862L56.718 44.6141L55.1589 42.0511ZM53.5423 42.3804L52.9434 39.4408L52.7027 39.4899L52.4733 39.5774L53.5423 42.3804ZM52.0676 42.9429L52.9106 45.822L53.0251 45.7885L53.1366 45.7459L52.0676 42.9429ZM50.5641 43.3831L50.6305 46.3823L51.0267 46.3736L51.4071 46.2622L50.5641 43.3831ZM48.947 43.4188L48.8806 40.4196L48.7616 40.4222L48.6431 40.4343L48.947 43.4188ZM47.4602 43.5702L47.1563 40.5856L46.262 40.6767L45.5651 41.2446L47.4602 43.5702ZM46.4152 44.4217H43.4152V50.7364L48.3103 46.7474L46.4152 44.4217ZM49.4152 43.9058C49.4152 42.2489 48.0721 40.9058 46.4152 40.9058C44.7584 40.9058 43.4152 42.2489 43.4152 43.9058H46.4152H49.4152ZM41.7002 47.3634L44.0826 45.5402L44.0218 45.4608L41.6394 47.284L39.257 49.1072L39.3178 49.1866L41.7002 47.3634ZM41.6394 47.284L44.6125 46.8827L44.4121 45.3982L41.439 45.7995L38.466 46.2008L38.6664 47.6853L41.6394 47.284ZM41.439 45.7995L44.3807 46.3882L44.6923 44.8313L41.7506 44.2426L38.809 43.6538L38.4974 45.2107L41.439 45.7995ZM41.7506 44.2426L44.6878 43.6319L44.3694 42.1L41.4322 42.7107L38.495 43.3213L38.8134 44.8532L41.7506 44.2426ZM41.4322 42.7107L43.9978 41.1558L43.1235 39.7133L40.5579 41.2682L37.9923 42.8231L38.8666 44.2656L41.4322 42.7107ZM40.5579 41.2682L41.5776 38.4468L40.0346 37.8892L39.015 40.7106L37.9954 43.532L39.5383 44.0896L40.5579 41.2682ZM39.015 40.7106L41.2047 38.6599L40.0759 37.4547L37.8862 39.5054L35.6966 41.556L36.8253 42.7613L39.015 40.7106ZM37.8862 39.5054L37.9021 36.5054L36.1382 36.4961L36.1224 39.4961L36.1066 42.496L37.8704 42.5053L37.8862 39.5054ZM36.1224 39.4961L37.4932 36.8275L36.1019 36.1129L34.7311 38.7814L33.3604 41.4499L34.7517 42.1646L36.1224 39.4961ZM34.7311 38.7814L35.6193 35.9159L34.0752 35.4373L33.1871 38.3028L32.2989 41.1683L33.843 41.6469L34.7311 38.7814ZM33.1871 38.3028L35.5863 36.5018L34.5769 35.1571L32.1776 36.958L29.7783 38.759L30.7878 40.1038L33.1871 38.3028ZM32.1776 36.958L34.3338 34.8721L33.2473 33.7491L31.0912 35.835L28.935 37.9209L30.0214 39.0439L32.1776 36.958ZM31.0912 35.835L33.7612 34.4671L33.049 33.0771L30.379 34.445L27.709 35.8129L28.4212 37.2029L31.0912 35.835ZM30.379 34.445L32.576 32.4021L31.4661 31.2085L29.2691 33.2514L27.0722 35.2944L28.1821 36.4879L30.379 34.445ZM29.2691 33.2514L32.2651 33.0964L32.179 31.4311L29.183 31.5861L26.187 31.7411L26.2731 33.4065L29.2691 33.2514ZM29.183 31.5861L31.9876 30.5212L31.4354 29.067L28.6308 30.132L25.8262 31.1969L26.3783 32.651L29.183 31.5861ZM28.6308 30.132L30.8699 28.1354L29.7341 26.8616L27.495 28.8582L25.2559 30.8548L26.3917 32.1286L28.6308 30.132ZM27.495 28.8582L30.2509 30.0436L30.975 28.3601L28.2191 27.1747L25.4633 25.9893L24.7391 27.6727L27.495 28.8582ZM28.2191 27.1747L30.6815 25.461L29.6367 23.9599L27.1744 25.6736L24.7121 27.3874L25.7568 28.8884L28.2191 27.1747ZM27.1744 25.6736L29.9374 26.8422L30.5942 25.2895L27.8311 24.1209L25.0681 22.9523L24.4114 24.505L27.1744 25.6736ZM27.8311 24.1209L30.8025 24.5343L31.0163 22.9974L28.0449 22.584L25.0736 22.1706L24.8597 23.7075L27.8311 24.1209ZM28.0449 22.584L30.991 22.0177L30.6851 20.4264L27.7391 20.9927L24.793 21.559L25.0989 23.1503L28.0449 22.584ZM27.7391 20.9927L30.7314 20.7782L30.6169 19.1808L27.6245 19.3953L24.6322 19.6098L24.7467 21.2072L27.7391 20.9927ZM27.6245 19.3953L30.583 19.893L30.8445 18.3384L27.8861 17.8406L24.9277 17.3429L24.6661 18.8976L27.6245 19.3953ZM27.8861 17.8406L30.3187 19.5964L31.3147 18.2164L28.8822 16.4606L26.4496 14.7048L25.4536 16.0849L27.8861 17.8406ZM28.8822 16.4606L31.8784 16.6114L31.959 15.0087L28.9628 14.8579L25.9666 14.7071L25.886 16.3098L28.8822 16.4606ZM28.9628 14.8579L31.8728 15.5873L32.2845 13.9449L29.3745 13.2155L26.4646 12.486L26.0529 14.1285L28.9628 14.8579ZM29.3745 13.2155L30.2109 16.0965L32.0054 15.5756L31.169 12.6945L30.3326 9.81346L28.5381 10.3344L29.3745 13.2155ZM31.169 12.6945L33.8862 13.966L34.6154 12.4077L31.8982 11.1362L29.181 9.86465L28.4518 11.423L31.169 12.6945ZM31.8982 11.1362L33.2932 13.7921L34.7038 13.0512L33.3088 10.3952L31.9138 7.73931L30.5032 8.48022L31.8982 11.1362ZM33.3088 10.3952L35.259 12.6749L36.5093 11.6053L34.5591 9.32568L32.6089 7.04602L31.3587 8.11558L33.3088 10.3952ZM34.5591 9.32568L35.0568 12.2841L36.6585 12.0146L36.1608 9.05621L35.6631 6.09779L34.0614 6.36726L34.5591 9.32568ZM36.1608 9.05621L37.0193 11.9308L38.5239 11.4814L37.6654 8.60685L36.8069 5.73231L35.3023 6.18167L36.1608 9.05621ZM37.6654 8.60685L39.3205 11.109L40.6601 10.2229L39.0051 7.72075L37.35 5.2186L36.0104 6.1047L37.6654 8.60685ZM39.0051 7.72075L38.2298 10.6189L40.1019 11.1196L40.8771 8.22153L41.6524 5.32343L39.7803 4.82265L39.0051 7.72075ZM40.8771 8.22153L43.1114 10.2235L44.2531 8.9493L42.0188 6.94734L39.7845 4.94539L38.6428 6.21957L40.8771 8.22153ZM42.0188 6.94734L43.0134 9.77768L44.4924 9.25794L43.4979 6.4276L42.5033 3.59726L41.0242 4.117L42.0188 6.94734ZM43.4979 6.4276L45.4909 8.66984L46.7066 7.58926L44.7135 5.34702L42.7205 3.10478L41.5048 4.18535L43.4979 6.4276ZM44.7135 5.34702L44.541 8.34205L46.3076 8.44382L46.4801 5.44878L46.6526 2.45375L44.8861 2.35199L44.7135 5.34702ZM46.4801 5.44878L48.1535 7.93873L49.4638 7.05813L47.7904 4.56818L46.117 2.07823L44.8067 2.95884L46.4801 5.44878ZM47.7904 4.56818L49.912 6.68926L51.1046 5.49641L48.983 3.37534L46.8614 1.25426L45.6689 2.4471L47.7904 4.56818ZM48.983 3.37534L48.864 6.37298L50.5731 6.44082L50.6921 3.44318L50.8111 0.445538L49.102 0.377698L48.983 3.37534ZM50.6921 3.44318L50.9452 6.43249L52.3883 6.31032L52.1353 3.32101L51.8822 0.331702L50.4391 0.453869L50.6921 3.44318ZM52.1353 3.32101L51.0715 6.12606L52.3886 6.62558L53.4524 3.82053L54.5162 1.01548L53.1991 0.515959L52.1353 3.32101ZM53.4524 3.82053L54.0857 6.75293L56.0308 6.33285L55.3975 3.40046L54.7642 0.468064L52.8191 0.888138L53.4524 3.82053ZM55.3975 3.40046L52.78 4.86636L53.6412 6.40396L56.2586 4.93806L58.8761 3.47216L58.015 1.93456L55.3975 3.40046ZM56.2586 4.93806L54.4546 7.33502L55.7003 8.27262L57.5044 5.87566L59.3084 3.4787L58.0627 2.5411L56.2586 4.93806ZM57.5044 5.87566L54.7585 7.0839L55.4328 8.61637L58.1787 7.40813L60.9246 6.19988L60.2503 4.66742L57.5044 5.87566ZM58.1787 7.40813L57.1989 10.2436L58.8427 10.8116L59.8225 7.9761L60.8022 5.1406L59.1584 4.57262L58.1787 7.40813ZM59.8225 7.9761L57.1468 9.33282L57.8793 10.7774L60.555 9.42073L63.2307 8.06402L62.4982 6.61939L59.8225 7.9761ZM60.555 9.42073L59.3085 12.1495L60.8589 12.8578L62.1054 10.129L63.3519 7.4002L61.8015 6.69195L60.555 9.42073ZM62.1054 10.129L60.1167 12.3751L61.2971 13.4202L63.2859 11.1741L65.2746 8.92802L64.0942 7.88287L62.1054 10.129ZM63.2859 11.1741L60.6502 12.607L61.4138 14.0116L64.0495 12.5787L66.6851 11.1457L65.9215 9.74121L63.2859 11.1741ZM64.0495 12.5787L61.6605 14.3933L62.6218 15.6589L65.0108 13.8443L67.3998 12.0297L66.4384 10.7641L64.0495 12.5787ZM65.0108 13.8443L62.8656 15.9415L64.0439 17.1467L66.1891 15.0495L68.3343 12.9524L67.156 11.7471L65.0108 13.8443ZM66.1891 15.0495L63.3385 14.1145L62.7225 15.9924L65.5731 16.9274L68.4236 17.8625L69.0396 15.9846L66.1891 15.0495ZM65.5731 16.9274L63.3316 18.9214L64.5506 20.2917L66.7921 18.2978L69.0336 16.3039L67.8145 14.9335L65.5731 16.9274ZM66.7921 18.2978L63.8474 17.7242L63.5359 19.3237L66.4805 19.8973L69.4252 20.4709L69.7367 18.8714L66.7921 18.2978ZM66.4805 19.8973L63.9311 18.3161L63.057 19.7253L65.6065 21.3065L68.156 22.8877L69.03 21.4785L66.4805 19.8973ZM65.6065 21.3065L62.6167 21.5533L62.7527 23.201L65.7425 22.9542L68.7323 22.7075L68.5963 21.0598L65.6065 21.3065ZM65.7425 22.9542L63.5045 20.9564L62.4138 22.1781L64.6518 24.176L66.8898 26.1739L67.9805 24.9521L65.7425 22.9542ZM64.6518 24.176L61.653 24.2613L61.7035 26.0358L64.7022 25.9505L67.701 25.8653L67.6506 24.0907L64.6518 24.176ZM64.7022 25.9505L62.2441 24.2307L61.3469 25.5131L63.805 27.2329L66.2632 28.9527L67.1604 27.6703L64.7022 25.9505ZM63.805 27.2329L60.9906 26.1942L60.4488 27.6622L63.2633 28.7009L66.0777 29.7395L66.6195 28.2716L63.805 27.2329ZM63.2633 28.7009L60.516 27.4956L59.8917 28.9187L62.6389 30.124L65.3862 31.3292L66.0105 29.9061L63.2633 28.7009ZM62.6389 30.124L60.8463 27.7185L59.4285 28.7751L61.2212 31.1806L63.0138 33.586L64.4316 32.5295L62.6389 30.124ZM61.2212 31.1806L58.3458 30.3249L57.8957 31.8373L60.7711 32.693L63.6465 33.5486L64.0965 32.0362L61.2212 31.1806ZM60.7711 32.693L58.1463 31.2402L57.3874 32.6114L60.0122 34.0641L62.637 35.5169L63.3959 34.1457L60.7711 32.693ZM60.0122 34.0641L57.3269 32.7264L56.6305 34.1244L59.3157 35.4621L62.001 36.7999L62.6974 35.4019L60.0122 34.0641ZM59.3157 35.4621L56.38 34.8442L56.0525 36.4004L58.9882 37.0183L61.9239 37.6362L62.2514 36.08L59.3157 35.4621ZM58.9882 37.0183L56.4381 35.438L55.6208 36.757L58.1708 38.3373L60.7208 39.9176L61.5382 38.5986L58.9882 37.0183ZM58.1708 38.3373L55.224 37.7747L54.8885 39.532L57.8353 40.0946L60.782 40.6573L61.1176 38.8999L58.1708 38.3373ZM57.8353 40.0946L55.8684 37.8294L54.6052 38.9262L56.5721 41.1914L58.5389 43.4567L59.8021 42.3599L57.8353 40.0946ZM56.5721 41.1914L55.013 38.6284L53.5998 39.488L55.1589 42.0511L56.718 44.6141L58.1312 43.7545L56.5721 41.1914ZM55.1589 42.0511L54.56 39.1115L52.9434 39.4408L53.5423 42.3804L54.1412 45.32L55.7578 44.9907L55.1589 42.0511ZM53.5423 42.3804L52.4733 39.5774L50.9985 40.1398L52.0676 42.9429L53.1366 45.7459L54.6114 45.1835L53.5423 42.3804ZM52.0676 42.9429L51.2246 40.0637L49.7211 40.5039L50.5641 43.3831L51.4071 46.2622L52.9106 45.822L52.0676 42.9429ZM50.5641 43.3831L50.4978 40.3838L48.8806 40.4196L48.947 43.4188L49.0133 46.4181L50.6305 46.3823L50.5641 43.3831ZM48.947 43.4188L48.6431 40.4343L47.1563 40.5856L47.4602 43.5702L47.764 46.5548L49.2508 46.4034L48.947 43.4188ZM47.4602 43.5702L45.5651 41.2446L44.5201 42.0961L46.4152 44.4217L48.3103 46.7474L49.3553 45.8958L47.4602 43.5702ZM46.4152 44.4217H49.4152V43.9058H46.4152H43.4152V44.4217H46.4152Z" fill="var(--stroke-0, white)"/>
<path id="Vector 44" d="M38.6813 32.2347C37.9643 33.7284 38.594 35.5205 40.0877 36.2375C41.5814 36.9544 43.3735 36.3248 44.0904 34.8311L41.3858 33.5329L38.6813 32.2347ZM41.4291 33.4428L44.1337 34.7409L44.53 33.9152L44.3976 33.0089L41.4291 33.4428ZM41.2136 31.9683L38.521 30.6455L38.1105 31.4811L38.2452 32.4022L41.2136 31.9683ZM41.9646 30.4398L44.6572 31.7626L45.111 30.8388L44.9022 29.831L41.9646 30.4398ZM41.6377 28.8627L38.668 28.4376L38.5936 28.9574L38.7002 29.4716L41.6377 28.8627ZM41.8587 27.3189L38.9719 26.5028L38.9174 26.6955L38.889 26.8937L41.8587 27.3189ZM42.2864 25.8061L45.1733 26.6221L45.2395 26.3878L45.2671 26.1458L42.2864 25.8061ZM42.4615 24.2702L39.6393 23.2525L39.5204 23.5823L39.4807 23.9305L42.4615 24.2702ZM42.9873 22.8119L45.8094 23.8296L46.1459 22.8968L45.86 21.9472L42.9873 22.8119ZM42.4621 21.0672L40.2803 19.0081L39.0892 20.2702L39.5895 21.9319L42.4621 21.0672ZM43.652 19.8063L45.8338 21.8654L46.5381 21.1192L46.6378 20.098L43.652 19.8063ZM43.8073 18.2167L41.3115 16.5521L40.8946 17.1772L40.8215 17.9251L43.8073 18.2167ZM44.6613 16.9363L43.0878 14.3821L42.5295 14.7261L42.1656 15.2717L44.6613 16.9363ZM45.9494 16.1428L47.5229 18.697L47.7869 18.5344L48.0121 18.3212L45.9494 16.1428ZM47.1198 15.0345L47.2608 12.0379L45.9848 11.9778L45.0572 12.8561L47.1198 15.0345ZM48.7962 15.1134L48.6553 18.1101L49.4842 18.1491L50.2152 17.7566L48.7962 15.1134ZM50.1879 14.3662L49.7218 11.4027L49.2181 11.4819L48.7689 11.7231L50.1879 14.3662ZM51.735 14.1229L52.2012 17.0865L52.8571 16.9833L53.4082 16.613L51.735 14.1229ZM53.1013 13.2048L51.4375 10.7084L51.4281 10.7148L53.1013 13.2048ZM54.4466 12.3083L55.847 9.65519L54.2683 8.82185L52.7828 9.81188L54.4466 12.3083ZM56.2225 13.2457L54.822 15.8987L56.3215 16.6902L57.773 15.8139L56.2225 13.2457ZM57.7587 12.3182L60.0655 10.4003L58.4164 8.41686L56.2082 9.74998L57.7587 12.3182ZM58.761 13.5238L56.4542 15.4417L56.4837 15.4773L56.5144 15.5119L58.761 13.5238ZM59.8473 14.7513L62.8471 14.7845L62.8599 13.6288L62.0939 12.7632L59.8473 14.7513ZM59.8292 16.3835L62.5646 17.6156L62.8221 17.0438L62.8291 16.4167L59.8292 16.3835ZM59.1716 17.8435L61.4699 19.7716L61.7365 19.4538L61.9069 19.0756L59.1716 17.8435ZM58.1597 19.0497L59.8776 21.5091L60.203 21.2818L60.4581 20.9778L58.1597 19.0497ZM56.8563 19.9601L55.1384 17.5007L54.7353 17.7822L54.4432 18.1777L56.8563 19.9601ZM55.9215 21.2257L57.6153 23.7018L58.0336 23.4157L58.3347 23.0081L55.9215 21.2257ZM54.6247 22.1128L56.081 24.7356L56.2032 24.6678L56.3185 24.5889L54.6247 22.1128ZM53.2745 22.8626L51.8182 20.2398L51.7953 20.2524L51.7727 20.2655L53.2745 22.8626ZM51.9711 23.6163L53.3971 26.2557L53.4353 26.2351L53.4729 26.2133L51.9711 23.6163ZM50.6443 24.3331L51.82 27.0931L51.9479 27.0386L52.0703 26.9725L50.6443 24.3331ZM49.2473 24.9282L48.0716 22.1681L47.643 22.3507L47.29 22.6546L49.2473 24.9282ZM47.9743 26.024L48.529 28.9723L49.3209 28.8233L49.9316 28.2976L47.9743 26.024ZM46.4326 26.3141L46.6415 29.3068L46.8157 29.2947L46.9872 29.2624L46.4326 26.3141ZM44.8523 26.4245L44.6434 23.4317L43.7738 23.4925L43.0722 24.0097L44.8523 26.4245ZM43.5095 27.4144L43.3395 30.4096L44.4192 30.4709L45.2897 29.8291L43.5095 27.4144ZM41.8105 27.3179L41.5935 30.3101L41.6169 30.3118L41.6404 30.3131L41.8105 27.3179ZM40.7042 27.2377L37.9779 28.4898L38.7182 30.1016L40.4872 30.2298L40.7042 27.2377ZM40.0005 25.7055L37.4681 24.0972L36.5932 25.4747L37.2743 26.9576L40.0005 25.7055ZM40.9665 24.1846L43.4989 25.7929L43.8112 25.3011L43.9168 24.7283L40.9665 24.1846ZM41.2268 22.7723L38.7047 21.1476L38.3838 21.6458L38.2764 22.2285L41.2268 22.7723ZM42.0748 21.4558L40.5257 18.8867L39.9297 19.246L39.5528 19.8311L42.0748 21.4558ZM43.4343 20.6361L42.7254 17.721L42.2788 17.8296L41.8852 18.0669L43.4343 20.6361ZM44.9769 20.2609L45.6858 23.176L46.4046 23.0012L46.9598 22.5121L44.9769 20.2609ZM46.2195 19.1664L45.5365 16.2452L44.8024 16.4168L44.2366 16.9152L46.2195 19.1664ZM47.7469 18.8093L48.0852 15.8284L47.5694 15.7699L47.0639 15.8881L47.7469 18.8093ZM49.4414 19.0016L51.4836 16.804L50.7606 16.1321L49.7798 16.0208L49.4414 19.0016ZM49.8935 19.4218L52.8935 19.416L52.891 18.1119L51.9357 17.2242L49.8935 19.4218ZM49.8964 20.9336L46.8964 20.9393L46.8975 21.5149L47.1116 22.0492L49.8964 20.9336ZM50.4991 22.4379L53.3608 21.5376L53.3265 21.4285L53.2839 21.3223L50.4991 22.4379ZM50.9863 23.9865L53.9474 23.505L53.9127 23.2921L53.848 23.0863L50.9863 23.9865ZM51.2414 25.5553L54.2414 25.5662L54.2423 25.3184L54.2025 25.0738L51.2414 25.5553ZM51.2357 27.1234L54.2178 27.4507L54.2351 27.2929L54.2357 27.1342L51.2357 27.1234ZM51.0643 28.6855L53.4641 30.4858L53.9568 29.829L54.0464 29.0128L51.0643 28.6855ZM49.9178 30.2138L47.518 28.4136L46.4093 29.8915L47.2302 31.5467L49.9178 30.2138ZM50.7054 31.802L53.7 31.9832L53.7482 31.1853L53.3931 30.4692L50.7054 31.802ZM50.6111 33.3604L47.6166 33.1792L47.6063 33.3505L47.6155 33.5218L50.6111 33.3604ZM50.6955 34.9265L53.6033 35.6645L53.7157 35.2215L53.6912 34.7651L50.6955 34.9265ZM50.3033 36.4717L47.3955 35.7337L47.2893 36.1523L47.3054 36.5838L50.3033 36.4717ZM50.3641 38.0991L53.2396 38.9544L53.3805 38.4808L53.362 37.9871L50.3641 38.0991ZM49.854 39.8143L50.1792 42.7966L52.1612 42.5805L52.7295 40.6695L49.854 39.8143ZM47.9925 40.0173L47.6673 37.0349L47.2697 37.0783L46.8973 37.2243L47.9925 40.0173ZM46.5396 40.5869L47.2829 43.4934L47.4623 43.4475L47.6348 43.3799L46.5396 40.5869ZM44.9345 40.9974L43.6178 43.693L44.609 44.1772L45.6778 43.9039L44.9345 40.9974ZM43.4432 40.269L40.9978 42.0068L41.4402 42.6294L42.1266 42.9646L43.4432 40.269ZM42.5135 38.9606L39.5222 38.7323L39.4396 39.8141L40.0681 40.6984L42.5135 38.9606ZM42.636 37.3553L45.6273 37.5836L45.6288 37.5643L45.63 37.545L42.636 37.3553ZM42.7431 35.6653L41.8826 32.7913L39.8813 33.3905L39.7491 35.4755L42.7431 35.6653ZM44.3812 35.1748L45.2417 38.0488L50.7241 36.4073L46.2553 32.8322L44.3812 35.1748ZM45.7746 32.4476C44.4808 31.4126 42.5929 31.6224 41.5579 32.9161C40.5229 34.2099 40.7326 36.0978 42.0264 37.1328L43.9005 34.7902L45.7746 32.4476ZM41.3858 33.5329L44.0904 34.8311L44.1337 34.7409L41.4291 33.4428L38.7245 32.1446L38.6813 32.2347L41.3858 33.5329ZM41.4291 33.4428L44.3976 33.0089L44.1821 31.5345L41.2136 31.9683L38.2452 32.4022L38.4607 33.8766L41.4291 33.4428ZM41.2136 31.9683L43.9062 33.2912L44.6572 31.7626L41.9646 30.4398L39.272 29.117L38.521 30.6455L41.2136 31.9683ZM41.9646 30.4398L44.9022 29.831L44.5753 28.2539L41.6377 28.8627L38.7002 29.4716L39.027 31.0486L41.9646 30.4398ZM41.6377 28.8627L44.6074 29.2879L44.8285 27.7441L41.8587 27.3189L38.889 26.8937L38.668 28.4376L41.6377 28.8627ZM41.8587 27.3189L44.7456 28.135L45.1733 26.6221L42.2864 25.8061L39.3995 24.99L38.9719 26.5028L41.8587 27.3189ZM42.2864 25.8061L45.2671 26.1458L45.4422 24.61L42.4615 24.2702L39.4807 23.9305L39.3057 25.4663L42.2864 25.8061ZM42.4615 24.2702L45.2836 25.2879L45.8094 23.8296L42.9873 22.8119L40.1652 21.7942L39.6393 23.2525L42.4615 24.2702ZM42.9873 22.8119L45.86 21.9472L45.3348 20.2024L42.4621 21.0672L39.5895 21.9319L40.1147 23.6767L42.9873 22.8119ZM42.4621 21.0672L44.6439 23.1262L45.8338 21.8654L43.652 19.8063L41.4702 17.7473L40.2803 19.0081L42.4621 21.0672ZM43.652 19.8063L46.6378 20.098L46.7931 18.5084L43.8073 18.2167L40.8215 17.9251L40.6662 19.5147L43.652 19.8063ZM43.8073 18.2167L46.3031 19.8814L47.1571 18.601L44.6613 16.9363L42.1656 15.2717L41.3115 16.5521L43.8073 18.2167ZM44.6613 16.9363L46.2349 19.4905L47.5229 18.697L45.9494 16.1428L44.3759 13.5886L43.0878 14.3821L44.6613 16.9363ZM45.9494 16.1428L48.0121 18.3212L49.1825 17.2129L47.1198 15.0345L45.0572 12.8561L43.8867 13.9644L45.9494 16.1428ZM47.1198 15.0345L46.9789 18.0312L48.6553 18.1101L48.7962 15.1134L48.9372 12.1167L47.2608 12.0379L47.1198 15.0345ZM48.7962 15.1134L50.2152 17.7566L51.6069 17.0094L50.1879 14.3662L48.7689 11.7231L47.3772 12.4702L48.7962 15.1134ZM50.1879 14.3662L50.6541 17.3298L52.2012 17.0865L51.735 14.1229L51.2688 11.1593L49.7218 11.4027L50.1879 14.3662ZM51.735 14.1229L53.4082 16.613L54.7745 15.6949L53.1013 13.2048L51.4281 10.7148L50.0618 11.6328L51.735 14.1229ZM53.1013 13.2048L54.7651 15.7012L56.1103 14.8046L54.4466 12.3083L52.7828 9.81188L51.4375 10.7085L53.1013 13.2048ZM54.4466 12.3083L53.0461 14.9613L54.822 15.8987L56.2225 13.2457L57.6229 10.5926L55.847 9.65519L54.4466 12.3083ZM56.2225 13.2457L57.773 15.8139L59.3092 14.8865L57.7587 12.3182L56.2082 9.74998L54.672 10.6774L56.2225 13.2457ZM57.7587 12.3182L55.4519 14.2362L56.4542 15.4417L58.761 13.5238L61.0678 11.6058L60.0655 10.4003L57.7587 12.3182ZM58.761 13.5238L56.5144 15.5119L57.6007 16.7394L59.8473 14.7513L62.0939 12.7632L61.0076 11.5356L58.761 13.5238ZM59.8473 14.7513L56.8475 14.7181L56.8294 16.3503L59.8292 16.3835L62.8291 16.4167L62.8471 14.7845L59.8473 14.7513ZM59.8292 16.3835L57.0939 15.1514L56.4363 16.6114L59.1716 17.8435L61.9069 19.0756L62.5646 17.6156L59.8292 16.3835ZM59.1716 17.8435L56.8732 15.9154L55.8614 17.1215L58.1597 19.0497L60.4581 20.9778L61.4699 19.7716L59.1716 17.8435ZM58.1597 19.0497L56.4418 16.5902L55.1384 17.5007L56.8563 19.9601L58.5743 22.4195L59.8776 21.5091L58.1597 19.0497ZM56.8563 19.9601L54.4432 18.1777L53.5084 19.4434L55.9215 21.2257L58.3347 23.0081L59.2695 21.7424L56.8563 19.9601ZM55.9215 21.2257L54.2277 18.7496L52.9309 19.6368L54.6247 22.1128L56.3185 24.5889L57.6153 23.7018L55.9215 21.2257ZM54.6247 22.1128L53.1684 19.49L51.8182 20.2398L53.2745 22.8626L54.7308 25.4854L56.081 24.7356L54.6247 22.1128ZM53.2745 22.8626L51.7727 20.2655L50.4693 21.0193L51.9711 23.6163L53.4729 26.2133L54.7763 25.4596L53.2745 22.8626ZM51.9711 23.6163L50.5451 20.9768L49.2184 21.6936L50.6443 24.3331L52.0703 26.9725L53.3971 26.2557L51.9711 23.6163ZM50.6443 24.3331L49.4687 21.573L48.0716 22.1681L49.2473 24.9282L50.4229 27.6882L51.82 27.0931L50.6443 24.3331ZM49.2473 24.9282L47.29 22.6546L46.017 23.7505L47.9743 26.024L49.9316 28.2976L51.2045 27.2017L49.2473 24.9282ZM47.9743 26.024L47.4196 23.0758L45.8779 23.3658L46.4326 26.3141L46.9872 29.2624L48.529 28.9723L47.9743 26.024ZM46.4326 26.3141L46.2236 23.3214L44.6434 23.4317L44.8523 26.4245L45.0613 29.4172L46.6415 29.3068L46.4326 26.3141ZM44.8523 26.4245L43.0722 24.0097L41.7293 24.9997L43.5095 27.4144L45.2897 29.8291L46.6325 28.8392L44.8523 26.4245ZM43.5095 27.4144L43.6796 24.4192L41.9805 24.3228L41.8105 27.3179L41.6404 30.3131L43.3395 30.4096L43.5095 27.4144ZM41.8105 27.3179L42.0274 24.3258L40.9212 24.2456L40.7042 27.2377L40.4872 30.2298L41.5935 30.3101L41.8105 27.3179ZM40.7042 27.2377L43.4304 25.9856L42.7267 24.4535L40.0005 25.7055L37.2743 26.9576L37.9779 28.4898L40.7042 27.2377ZM40.0005 25.7055L42.533 27.3139L43.4989 25.7929L40.9665 24.1846L38.434 22.5762L37.4681 24.0972L40.0005 25.7055ZM40.9665 24.1846L43.9168 24.7283L44.1771 23.316L41.2268 22.7723L38.2764 22.2285L38.0162 23.6408L40.9665 24.1846ZM41.2268 22.7723L43.7488 24.3969L44.5968 23.0804L42.0748 21.4558L39.5528 19.8311L38.7047 21.1476L41.2268 22.7723ZM42.0748 21.4558L43.6239 24.0249L44.9834 23.2052L43.4343 20.6361L41.8852 18.0669L40.5257 18.8867L42.0748 21.4558ZM43.4343 20.6361L44.1432 23.5511L45.6858 23.176L44.9769 20.2609L44.268 17.3459L42.7254 17.721L43.4343 20.6361ZM44.9769 20.2609L46.9598 22.5121L48.2024 21.4176L46.2195 19.1664L44.2366 16.9152L42.994 18.0097L44.9769 20.2609ZM46.2195 19.1664L46.9025 22.0876L48.4298 21.7305L47.7469 18.8093L47.0639 15.8881L45.5365 16.2452L46.2195 19.1664ZM47.7469 18.8093L47.4085 21.7902L49.1031 21.9825L49.4414 19.0016L49.7798 16.0208L48.0852 15.8284L47.7469 18.8093ZM49.4414 19.0016L47.3992 21.1992L47.8513 21.6194L49.8935 19.4218L51.9357 17.2242L51.4836 16.804L49.4414 19.0016ZM49.8935 19.4218L46.8935 19.4275L46.8964 20.9393L49.8964 20.9336L52.8964 20.9278L52.8935 19.416L49.8935 19.4218ZM49.8964 20.9336L47.1116 22.0492L47.7142 23.5536L50.4991 22.4379L53.2839 21.3223L52.6813 19.8179L49.8964 20.9336ZM50.4991 22.4379L47.6374 23.3382L48.1245 24.8868L50.9863 23.9865L53.848 23.0863L53.3608 21.5376L50.4991 22.4379ZM50.9863 23.9865L48.0252 24.4681L48.2803 26.0369L51.2414 25.5553L54.2025 25.0738L53.9474 23.505L50.9863 23.9865ZM51.2414 25.5553L48.2414 25.5445L48.2358 27.1126L51.2357 27.1234L54.2357 27.1342L54.2414 25.5662L51.2414 25.5553ZM51.2357 27.1234L48.2536 26.7961L48.0822 28.3583L51.0643 28.6855L54.0464 29.0128L54.2178 27.4507L51.2357 27.1234ZM51.0643 28.6855L48.6645 26.8853L47.518 28.4136L49.9178 30.2138L52.3176 32.0141L53.4641 30.4858L51.0643 28.6855ZM49.9178 30.2138L47.2302 31.5467L48.0178 33.1349L50.7054 31.802L53.3931 30.4692L52.6055 28.881L49.9178 30.2138ZM50.7054 31.802L47.7109 31.6209L47.6166 33.1792L50.6111 33.3604L53.6057 33.5416L53.7 31.9832L50.7054 31.802ZM50.6111 33.3604L47.6155 33.5218L47.6998 35.0879L50.6955 34.9265L53.6912 34.7651L53.6068 33.1991L50.6111 33.3604ZM50.6955 34.9265L47.7877 34.1885L47.3955 35.7337L50.3033 36.4717L53.2111 37.2098L53.6033 35.6645L50.6955 34.9265ZM50.3033 36.4717L47.3054 36.5838L47.3662 38.2112L50.3641 38.0991L53.362 37.9871L53.3012 36.3597L50.3033 36.4717ZM50.3641 38.0991L47.4886 37.2439L46.9785 38.9591L49.854 39.8143L52.7295 40.6695L53.2396 38.9544L50.3641 38.0991ZM49.854 39.8143L49.5288 36.832L47.6673 37.0349L47.9925 40.0173L48.3176 42.9996L50.1792 42.7966L49.854 39.8143ZM47.9925 40.0173L46.8973 37.2243L45.4445 37.794L46.5396 40.5869L47.6348 43.3799L49.0876 42.8102L47.9925 40.0173ZM46.5396 40.5869L45.7964 37.6805L44.1913 38.0909L44.9345 40.9974L45.6778 43.9039L47.2829 43.4934L46.5396 40.5869ZM44.9345 40.9974L46.2512 38.3018L44.7599 37.5734L43.4432 40.269L42.1266 42.9646L43.6178 43.693L44.9345 40.9974ZM43.4432 40.269L45.8887 38.5312L44.9589 37.2228L42.5135 38.9606L40.0681 40.6984L40.9978 42.0068L43.4432 40.269ZM42.5135 38.9606L45.5048 39.1889L45.6273 37.5836L42.636 37.3553L39.6447 37.127L39.5222 38.7323L42.5135 38.9606ZM42.636 37.3553L45.63 37.545L45.7371 35.855L42.7431 35.6653L39.7491 35.4755L39.642 37.1655L42.636 37.3553ZM42.7431 35.6653L43.6036 38.5392L45.2417 38.0488L44.3812 35.1748L43.5207 32.3009L41.8826 32.7913L42.7431 35.6653ZM44.3812 35.1748L46.2553 32.8322L45.7746 32.4476L43.9005 34.7902L42.0264 37.1328L42.5071 37.5174L44.3812 35.1748Z" fill="var(--stroke-0, white)"/>
</g>
</svg>
