<svg width="1091.12" height="310.967" overflow="visible" style="display: block;" viewBox="0 0 1091.12 310.967" fill="none" xmlns="http://www.w3.org/2000/svg">
<g id="jezero">
<g id="Vector 27" opacity="0.88">
<path d="M220.585 218.699C219.224 210.87 218.785 198.672 218.688 177.454C218.634 165.603 223.554 154.718 229.314 140.529C234.809 126.989 240.459 117.353 243.259 109.963C248.863 95.1689 261.444 83.6233 270.949 74.2376C281.318 63.9997 290.792 58.0793 298.507 52.6043C306.303 47.0714 314.185 46.2228 335.183 44.2941C341.162 43.7449 346.715 42.3832 359.705 41.4855C372.694 40.5878 392.932 40.0012 411.424 38.6724C429.915 37.3437 446.047 35.2906 455.383 34.2329C466.692 32.9519 474.383 32.302 489.996 30.9825L490.238 30.9621C500.415 30.1021 515.106 30.5089 525.594 30.8022C551.901 31.5379 564.825 37.2993 576.091 39.2457C583.068 40.4513 591.791 41.1566 600.222 43.823C606.363 45.7655 620.757 46.4894 640.435 50.0357C663.455 54.1843 680.049 58.9504 692.825 61.1634C696.657 61.8271 703.184 62.2034 715.579 64.412C732.916 67.5016 744.691 71.6868 751.615 73.3044C764.298 76.2676 774.608 79.686 781.541 81.4502C801.093 86.4262 806.898 97.7197 813.128 104.843C816.448 108.639 815.519 121.077 814.933 135.582C814.6 143.818 807.858 156.318 796.797 176.418C784.649 198.494 767.551 208.233 762.525 214.299C754.956 223.434 745.642 229.581 736.456 235.501C730.335 239.446 721.058 242.016 704.562 249.095C692.973 254.068 673.987 259.694 653.905 265.213C633.823 270.733 612.998 275.426 593.618 278.723C574.238 282.02 556.933 283.78 545.965 285.127C534.997 286.473 530.891 287.353 510.444 287.806C489.998 288.26 453.335 288.26 430.928 287.82C408.522 287.38 401.482 286.5 393.75 284.727C377.624 281.029 362.011 277.594 349.581 277.448C337.636 277.307 327.641 275.532 319.447 273.306C312.927 271.534 302.755 269.328 296.182 265.311C290.568 261.88 284.641 257.17 279.446 252.135C274.798 247.63 270.118 245.9 264.781 242.651C263.342 241.775 262.706 239.998 261.519 238.949C253.604 231.953 237.811 235.243 236.331 232.434C234.255 227.831 222.063 224.965 220.588 218.717C220.587 218.711 220.586 218.705 220.585 218.699Z" fill="var(--fill-0, #00A7FB)"/>
<path d="M831.528 159.412C825.025 169.902 821.169 178.603 818.272 188.236C814.845 198.061 810.521 208.103 804.635 217.57C801.716 222.291 798.392 226.862 795.077 230.952C793.444 232.982 791.785 234.92 790.531 236.477C789.909 237.25 789.398 237.927 789.213 238.313C789.057 238.646 789.151 238.893 790.515 237.491C784.783 245.51 777.285 252.397 769.618 257.346C764.073 260.935 759.429 263.286 755.529 265.098C741.562 272.148 736.755 271.354 730.911 272.487C725.401 273.213 720.603 273.678 715.501 274.584C701.38 277.756 688.492 279.887 667.847 286.963C665.412 287.791 662.973 288.58 660.535 289.336C638.922 296.018 616.852 299.58 597.559 301.884C577.485 304.273 560.885 305.327 551.333 308.785C550.51 309.084 549.71 309.346 548.966 309.573C534.982 313.936 526.419 306.788 510.834 305.396C506.705 305.04 501.845 305.068 495.989 305.752C469.539 308.781 452.356 307.587 430.616 303.707C427.733 303.186 424.752 302.61 421.661 301.968C415.001 300.436 404.329 299.499 391.269 295.546C378.467 291.58 363.278 286.943 349.477 286.274C338.202 285.918 327.058 284.263 317.136 281.81C308.305 279.711 299.228 278.308 290.72 274.247C288.348 273.137 286.225 272.084 284.302 271.152C279.219 268.682 274.547 265.428 270.301 261.57C268.027 259.469 264.324 257.596 258.232 253.411C254.996 251.311 253.628 249.017 252.996 248.046C252.409 247 252.293 246.981 253.511 248.01C253.804 247.347 251.202 245.463 247.665 244.414C245.893 243.841 243.938 243.356 241.717 242.838C240.594 242.573 239.429 242.314 237.954 241.921C237.172 241.709 236.393 241.502 235.17 241.033C234.063 240.415 231.858 240.284 229.378 236.098C229.329 236.015 229.21 235.75 229.166 235.664C229.689 236.384 229.925 236.23 229.832 235.968C229.75 235.688 229.431 235.254 229.026 234.809C228.2 233.903 227.051 232.925 225.869 231.936C223.493 229.92 220.86 227.962 218.553 224.945C217.502 223.545 216.56 221.735 216.262 219.738C216.254 219.712 216.239 219.63 216.232 219.603C215.92 217.353 216.695 216.559 216.915 216.098C217.252 215.579 217.469 215.368 217.698 215.132C218.113 214.725 218.456 214.473 218.754 214.264C219.364 213.841 219.887 213.548 220.394 213.271C221.393 212.735 222.304 212.306 223.154 211.909C224.841 211.125 226.339 210.453 227.382 209.873C227.931 209.56 228.291 209.54 228.701 209.533C229.12 209.541 229.537 209.263 229.961 209.105C229.962 209.105 229.962 209.104 229.963 209.104C230.23 209.015 230.543 209.007 230.845 209.239C231.145 209.462 231.39 209.938 231.438 210.498C231.545 211.614 231.047 212.775 230.245 213.678C229.03 215.034 227.733 216.172 226.405 217.381C225.748 217.978 225.071 218.589 224.469 219.19C224.169 219.49 223.882 219.794 223.696 220.041C223.605 220.161 223.539 220.277 223.584 220.268C223.608 220.258 223.67 220.218 223.798 220.011C223.893 219.791 224.292 219.327 224.097 218.002L224.073 217.894C224.55 218.798 226.877 220.27 229.997 221.449C231.559 222.074 233.296 222.675 235.299 223.54C237.27 224.612 239.752 224.905 242.712 229.558L242.523 229.172C241.19 226.783 240.114 226.647 239.9 226.389C239.611 226.195 239.698 226.153 239.864 226.089C240.215 225.976 240.915 225.87 241.658 225.737C243.179 225.476 245.007 225.158 246.979 224.888C253.954 223.967 262.155 224.161 269.541 229.874C272.099 232.12 272.799 233.479 273.131 233.741C273.411 234.072 273 233.109 271.276 231.981C275.277 234.167 281.903 237.169 287.812 243.503C291.307 247.41 295.694 251.844 302.076 255.669C304.941 257.364 310.567 258.953 318.005 260.119C319.553 260.374 321.13 260.622 322.812 260.919C332.55 262.433 341.391 262.115 349.775 260.986C367.859 259.592 382.488 261.628 398.366 264.597C406.318 266.215 417.459 266.722 431.312 268.251C432.784 268.412 434.31 268.582 435.861 268.761C467.752 272.345 484.765 265.144 509.869 261.849C520.247 260.469 528.008 259.863 542.736 258.824C550.854 258.412 559.246 258.526 568.781 258.886C576.725 259.191 583.791 259.054 590.185 258.544C616.092 256.349 631.354 248.956 647.05 240.272C659.604 233.124 675.295 224.889 690.576 216.505C695.509 213.877 700.981 211.278 706.531 208.871C711.906 206.613 718.181 203.658 716.428 204.42C725.524 198.53 731.053 194.552 734.405 190.999C739.415 185.318 741.493 184.084 743.623 182.265C745.646 180.649 747.221 179.459 748.689 178.323C751.591 176.087 753.955 174.192 756.147 172.255C760.502 168.408 764.049 164.516 767.12 160.087C771.312 153.525 775.421 147.187 778.817 141.619C780.498 138.869 781.99 136.286 782.983 134.463C783.477 133.568 783.839 132.86 784.021 132.663C784.217 132.476 784.175 132.789 784.218 134.34C784.838 128.59 785.482 123.28 785.848 119.136C786.037 117.103 786.124 115.293 786.196 114.65C786.248 114.364 786.258 114.35 786.573 115.355C787.045 116.349 787.092 118.573 791.444 123.809C786.005 116.869 784.928 114.852 783.438 113.316C782.125 111.902 781.102 111.21 779.646 110.573C778.34 110.016 776.667 109.483 774.518 109.044C763.03 106.238 754.613 103.79 744.944 101.857C729.993 98.2042 721.871 95.8648 710.303 94.0158C706.945 93.4664 703.637 92.9796 700.271 92.5505C696.619 92.0504 694.468 91.9913 687.666 90.9474C667.422 87.1069 652.287 82.4962 635.249 78.8165C632.648 78.2304 630.02 77.6642 627.362 77.1129C622.695 76.1439 617.87 75.3303 612.639 74.5534C610.012 74.1602 607.292 73.781 604.223 73.3125C600.971 72.7488 598.233 72.5769 591.734 70.6587C587.53 69.2525 581.596 68.6657 571.265 67.1748C548.649 62.2768 540.68 60.284 524.769 60.2864C513.268 60.2254 501.405 60.1393 492.766 60.8777C480.983 61.9322 469.777 62.7507 458.718 63.6702C449.175 64.4722 438.888 65.2018 428.905 65.3973C423.883 65.5019 418.689 65.5665 413.356 65.5655C396.269 65.5731 378.186 64.7846 361.298 64.5454C353.374 64.419 348.078 64.8267 337.13 65.4969C324.175 65.7067 311.677 65.9318 309.181 67.6452C297.843 74.3189 289.579 79.0837 281.989 85.4184C267.851 96.8816 258.477 105.827 254.238 114.122C254.173 114.26 254.107 114.398 254.04 114.535C246.625 128.336 241.231 135.572 237.29 143.766C231.252 156.113 226.022 165.781 226.312 177.419C226.586 185.077 227.042 193.76 228.175 203.983C229.075 211.542 229.944 221.178 232.595 224.643C234.744 228.116 241.839 232.392 248.936 238.454C253.835 243.014 260.139 247.356 266.12 252.279C269.68 255.248 273.381 258.196 276.962 261.044C282.622 265.569 284.681 267.909 283.401 269.202C281.983 270.467 276.912 270.02 269.855 267.349C266.284 266.004 262.926 264.52 259.696 262.879C252.364 259.202 245.285 255.581 238.98 251.42C234.278 248.55 228.796 246.515 223.245 244.732C219.806 243.618 216.225 242.006 212.757 239.064C192.154 214.479 195.464 204.905 199.05 179.907C199.211 179.118 199.358 178.33 199.49 177.541C203.718 152.936 207.246 142.536 207.672 131.745C208.51 125.516 209.844 119.756 212.823 114.772C216.191 109.142 219.682 105.972 222.631 102.148C227.838 91.7173 239.035 77.3642 256.711 59.817C264.133 51.7792 275.549 42.5412 285.636 34.4685C285.662 34.4478 285.689 34.4272 285.715 34.4066C307.903 19.5406 321.481 22.3979 332.905 19.4919C338.281 18.2776 349.882 15.9601 357.879 15.0704C379.077 12.547 395.373 11.1994 409.323 9.44456C426.162 7.36394 439.505 5.11867 451.859 3.12377C461.271 1.594 473.957 0.763462 487.636 0.178856C501.612 -0.434532 513.744 0.657286 526.413 1.52828C544.694 2.07832 570.55 9.23875 580.834 11.7943C587.046 12.8888 597.653 13.6423 608.774 16.7827C608.612 16.7183 608.507 16.6755 608.461 16.6493C608.209 16.4804 610.953 16.8746 613.586 17.1041C616.341 17.3704 619.568 17.6689 622.999 18.0253C629.861 18.7335 637.588 19.6909 645.66 21.0459C662.989 23.7858 683.137 29.0502 697.925 31.7206C698.091 31.7496 700.177 31.9961 702.076 32.2048C704.047 32.4252 706.181 32.6749 708.293 32.948C712.54 33.4951 716.744 34.134 720.85 34.832C734.846 37.0545 750.912 41.7616 758.575 43.513C771.035 46.119 782.756 49.4956 789.379 50.6488C795.391 51.9179 801.185 53.7291 806.494 55.9933C827.72 64.9735 837.409 81.8645 838.104 82.9993C845.931 93.0126 845.724 97.8957 846.657 101.631C847.237 105.295 847.232 107.787 847.162 109.965C846.976 114.257 846.352 117.272 845.669 120.16C844.274 125.842 842.462 130.704 840.746 136.626C839.011 147.486 835.137 153.117 831.528 159.412Z" fill="var(--stroke-0, #00A7FB)"/>
</g>
<g id="Vector 28" opacity="0.7">
<path d="M743.342 59.1848C736.835 60.1306 717.657 76.0495 705.48 84.3707C703.247 84.3596 701.088 84.3475 699.01 84.3341C653.056 84.0381 647.111 83.1888 602.865 82.7641C558.619 82.3394 478.5 82.3394 436.253 82.6311C394.006 82.9228 389.765 83.6386 384.719 83.7721C374.017 84.0552 363.557 87.0989 348.156 88.3533C337.728 89.2027 322.141 88.8737 312.476 89.4943C299.114 90.3522 289.896 89.1385 281.81 91.3559C277.117 92.6428 263.334 92.8269 244.595 95.2165C235.647 96.3575 225.417 95.7999 209.524 97.507C193.55 99.2228 181.972 102.231 172.956 103.658C161.25 105.511 152.354 108.633 146.979 109.226C141.844 109.792 130.491 110.92 117.343 117.406C107.803 122.112 100.293 124.854 91.0052 129.721C76.0092 137.579 62.9816 145.296 55.1365 155.947C43.1431 172.23 35.7256 184.592 36.7861 188.74C37.2236 190.452 38.0137 191.525 39.2268 191.726C41.7962 192.15 50.8846 197.093 85.2144 204.899C93.3644 206.752 98.7434 207.601 113.392 208.026C128.041 208.45 151.255 208.45 163.884 208.742C176.512 209.034 178.494 209.6 203.548 209.883C228.603 210.166 275.316 210.166 300.568 210.749C325.82 211.333 329.47 212.754 333.528 213.031C341.803 213.598 356.582 214.85 373.005 217.471C379.267 218.471 381.532 219.037 407.749 219.903C433.967 220.77 482.703 221.15 509.779 223.052C542.276 225.334 551.514 225.786 559.447 226.904C568.579 228.19 575.498 228.567 580.448 229.477C587.444 230.764 602.219 232.283 619.079 231.468C633.805 230.756 644.948 227.589 654.373 226.749C657.552 226.466 661.798 226.466 706.362 219.174C750.925 211.882 833.309 197.727 879.46 189.482C925.61 181.238 935.236 178.973 948.653 174.486C962.071 169.999 978.774 163.488 991.647 159.211C1004.52 154.935 1013.46 153.393 1023.23 149.483C1043.91 141.2 1056.84 135.754 1060.42 133.8L1060.54 133.733C1063.68 132.019 1068.59 129.342 1069.27 123.321L1069.3 122.992C1070.14 115.573 1070.83 109.434 1068.81 107.051C1064.37 101.779 1058.76 98.5657 1050.64 93.3334C1044.63 89.46 1036.66 84.7433 1028.63 73.5803C1023.19 66.0222 1017.3 62.1284 1011.04 57.306C1009.75 56.3108 1008.62 56.0277 995.074 55.8861C981.528 55.7446 956.332 55.7446 942.129 56.0363C927.927 56.328 924.813 56.8942 894.524 57.1773C864.236 57.4604 808.464 57.4604 779.12 57.7521C749.776 58.0438 746.952 58.6599 743.342 59.1848Z" fill="var(--fill-0, #00A7FB)"/>
<path d="M163.356 231.684C163.355 231.684 163.355 231.684 163.354 231.683C146.241 229.697 129.744 231.118 112.666 233.058C103.35 234.213 90.0602 235.123 78.6006 233.987C70.5931 233.525 62.4631 232.911 53.7485 231.678C49.4472 231.073 44.9345 230.293 40.2749 229.261C37.9364 228.742 35.5557 228.156 33.1531 227.499C31.9697 227.177 30.7619 226.829 29.7929 226.563C29.3269 226.437 28.8883 226.323 28.8429 226.35C28.8339 226.368 28.9057 226.419 29.3723 226.584C29.8614 226.734 30.553 227.049 33.3053 227.553C22.1677 226.169 11.409 217.428 7.65372 211.425C3.42639 205.237 2.29824 201.047 1.35391 197.798C-1.63336 182.685 1.16629 179.363 1.77301 175.34C2.76799 171.756 3.6981 169.458 4.56531 167.385C6.30503 163.327 7.85837 160.457 9.42131 157.713C12.535 152.313 15.6509 147.81 18.9612 143.43C21.4212 140.188 23.7753 137.268 26.0642 134.533C48.2471 109.581 64.1069 107.678 76.6509 102.329C87.9283 98.1368 97.3228 96.2422 105.539 93.4767C116.606 89.1183 130.424 85.8393 144.296 84.9006C144.21 85.1028 149.034 84.0139 153.372 82.9162C157.947 81.7875 163.253 80.514 169.124 79.4533C170.567 79.1745 172.239 78.808 174.052 78.3875C183.703 76.0911 195.439 73.6131 206.83 72.4271C219.719 70.8907 234.231 71.2412 241.459 70.6287C248.393 69.8981 255.183 69.4264 261.634 69.0903C264.84 68.9216 267.997 68.7846 270.85 68.6454C272.269 68.576 273.639 68.5016 274.726 68.4294C275.273 68.3934 275.745 68.3566 276.016 68.3397C276.258 68.3356 276.426 68.2892 275.554 68.5421C295.203 64.7406 302.568 67.6168 311.018 66.7838C326.714 66.294 338.246 66.6396 346.277 65.2859C349.316 64.799 352.091 64.1475 354.624 63.3735C364.471 60.3377 373.567 58.9775 384.095 60.178C396.351 62.094 409.257 66.6694 436.132 65.1541C437.449 65.0792 438.848 64.9889 440.31 64.8822C486.938 61.462 515.206 63.359 555.969 68.1194C566.733 69.3876 583.426 70.6234 602.971 71.7745C632.207 73.3744 667.367 75.6918 699.065 75.7013C726.66 75.8186 751.617 74.9562 767.187 72.9782C803.825 68.3094 844.668 73.6901 875.434 76.9638C882.902 77.7491 889.676 78.4106 895.723 78.7729C905.445 79.3421 913.069 80.2165 918.843 80.8673C921.326 81.146 922.065 81.7563 922.631 82.4886C922.631 82.4891 922.631 82.4896 922.632 82.4902C922.753 82.7452 922.811 83.0447 922.638 83.4072C922.464 83.77 922.077 84.1377 921.631 84.4366C920.725 85.04 919.456 85.4636 917.831 85.6345C906.961 86.6735 892.588 87.8229 875.559 89.9775C868.121 90.917 860.105 92.0293 851.72 93.3496C800.717 101.329 795.105 92.9043 726.129 96.8282C716.618 97.3569 707.537 97.948 698.918 98.5459C664.839 101.001 636.149 102.791 602.667 103.367C582.748 103.662 560.784 103.274 534.815 101.588C492.465 98.8628 467.144 103.49 436.421 106.92C421.285 108.657 406.017 109.841 385.435 110.843C379.66 110.749 366.24 113.626 350.242 113.967C339.985 114.159 330.971 113.266 321.603 112.46C318.813 112.212 316.149 112.008 313.913 111.883C301.065 111.597 289.637 110.23 287.159 110.86C282.587 111.923 280.964 111.849 278.803 112.065C276.814 112.213 275.029 112.312 273.332 112.411C269.942 112.605 266.824 112.798 263.82 113.045C257.823 113.533 252.336 114.217 247.132 115.115C230.976 117.218 222.04 117.823 211.993 120.495C200.932 123.197 192.459 127.225 177.417 131.838C174.348 132.941 171.202 134.219 167.531 135.72C163.399 137.205 161.123 139.012 150.494 141.108C142.891 142.973 138.449 145.167 132.799 148.742C123.408 154.086 114.51 158.053 107.899 161.959C106.607 162.693 105.328 163.423 104.069 164.15C94.0007 169.756 85.9431 175.971 84.9265 177.889C81.5174 182.507 78.1956 187.141 75.4387 191.327C74.0865 193.375 72.8436 195.403 72.1777 196.595C71.858 197.142 71.6785 197.573 71.9297 196.85C72.0569 196.438 72.3159 195.786 72.7075 193.923C72.8905 191.887 74.3135 189.27 72.2354 179.678C71.6609 177.762 71.0429 174.896 67.6334 169.817C64.6865 164.934 55.105 156.947 45.1798 155.707C48.2144 156.238 49.5255 156.689 50.4795 156.966C51.4988 157.281 52.0559 157.479 52.5566 157.656C53.5572 158.015 54.0903 158.226 54.6434 158.44C55.6616 158.838 56.4296 159.146 57.2095 159.452C58.7309 160.049 60.2586 160.625 61.8164 161.189C64.9513 162.322 68.2526 163.424 71.6869 164.506C78.5133 166.658 85.7196 168.7 93.0021 170.647C97.1719 171.767 99.1972 172.302 102.556 172.815C105.853 173.316 110.036 173.691 114.378 174.011C130.746 175.161 147.644 175.856 164.618 176.941C180.142 178.071 191.016 179.231 203.888 179.837C234.357 181.418 261.481 182.315 281.991 182.262C288.189 182.243 294.546 182.225 301.226 182.266C306.764 182.306 312.371 182.387 318.459 182.643C321.485 182.773 324.632 182.946 328.016 183.239C329.709 183.386 331.502 183.574 333.169 183.775C334.837 183.984 336.204 184.124 335.513 184.026C349.102 184.746 363.06 186.006 377.686 188.138C385.55 189.499 397.031 189.457 408.743 189.835C440.583 190.604 474.772 190.552 511.853 193.52C521.711 194.409 531.495 195.312 541.58 196.318C548.238 197.017 554.89 197.51 563.41 198.782C569.669 199.855 574.704 199.997 585.545 201.767C594.237 203.329 606.76 203.894 617.715 203.239C627.114 202.831 634.957 200.356 651.829 198.179C666.291 196.569 684.527 193.053 701.601 190.079C753.264 180.805 806.124 171.342 856.469 165.027C862.402 164.28 868.498 163.504 874.677 162.707C896.705 159.642 921.304 157.358 941.096 151.885C954.798 148.041 969.278 143.088 984.811 138.633C996.729 135.162 1008.14 133.381 1015.75 130.805C1028.21 126.485 1042.7 121.437 1051.71 117.845C1052.83 117.303 1053.27 117.106 1053.49 117.027C1053.7 116.959 1053.6 117.068 1053.33 117.44C1052.73 118.108 1051.81 120.296 1051.9 121.372C1052.35 118.598 1052.78 115.984 1053.02 114.082C1053.15 113.16 1053.2 112.378 1053.26 112.371C1053.3 112.383 1053.32 112.602 1053.57 113.371C1053.84 114.116 1054.26 115.62 1056.09 117.791C1054.39 114.891 1048.57 110.852 1042.25 106.357C1033.46 100.589 1022.95 90.9135 1017.33 81.709C1014.16 76.361 1009.6 72.5196 1003.38 67.2486C1003.48 67.3132 1004.37 67.9151 1005.12 68.2138C1005.87 68.529 1006.34 68.6207 1006.55 68.6556C1006.98 68.7097 1006.72 68.6098 1006.41 68.5493C1005.73 68.4103 1004.67 68.2839 1003.64 68.1751C1001.52 67.9565 999.34 67.7823 997.205 67.6155C996.46 67.5569 995.716 67.4999 994.953 67.4441C973.43 65.8934 956.78 64.9202 942.303 64.4919C925.869 64.185 911.143 64.4344 894.594 64.6648C880.064 64.923 863.732 65.471 842.416 66.4034C823.851 67.2222 801.88 67.3107 779.209 66.7392C767.513 66.5604 754.976 65.6598 744.361 66.195C744.648 66.0746 744.149 66.1233 743.686 66.2636C743.182 66.408 742.576 66.6345 741.951 66.8956C740.691 67.4228 739.333 68.09 737.965 68.8014C735.256 70.2095 732.461 71.8117 729.716 73.3991C724.197 76.6007 718.703 79.885 713.197 82.9251C703.075 88.6291 697.993 88.9642 698.512 86.9136C698.903 85.0062 703.641 80.2807 712.213 72.6341C721.931 64.807 727.254 57.4397 742.287 51.9307C757.429 49.6736 768.968 49.9074 779.025 48.1458C782.346 47.6092 785.403 46.9488 788.23 46.1095C822.721 35.8053 837.424 31.9826 880.909 37.6273C885.664 38.2413 890.14 38.6216 894.353 38.8092C914.293 39.7574 927.687 36.0916 941.662 33.2703C951.699 31.2397 960.673 29.6472 970.408 30.2106C979.643 30.7578 985.46 32.1377 995.308 33.478C997.567 33.7849 999.986 34.0865 1002.89 34.4195C1004.38 34.5911 1005.91 34.7563 1008 35.0139C1009.08 35.1565 1010.21 35.2753 1012.3 35.6703C1013.39 35.8938 1014.74 36.1405 1017.03 36.9693C1019.21 37.6707 1022.76 39.8369 1023.79 40.7672C1027.64 44.4445 1036.8 50.4178 1044.89 61.8756C1048.78 67.2479 1051.79 70.5985 1061.58 76.3712C1066.94 80.0227 1074.87 83.022 1084.69 93.6548C1090.68 101.425 1090.25 105.737 1090.85 108.785C1091.17 111.842 1091.13 113.974 1091.09 115.934C1090.98 119.782 1090.71 122.802 1090.51 125.705C1090.04 132.05 1086.67 139.631 1082.25 144.325C1077.97 149.101 1073.15 151.762 1070.95 153.099C1067.85 154.836 1066.39 155.522 1064.43 156.507C1052.78 162.238 1042.36 166.941 1032.08 171.609C1018.1 177.559 1008.06 179.717 999.609 183.178C985.401 188.669 971.354 194.86 957.235 200.148C926.919 210.872 904.832 213.837 884.639 218.476C859.498 223.747 839.021 227.851 821.411 231.442C795.969 236.615 755.408 242.041 711.087 248.048C693.597 250.3 677.152 252.954 656.864 254.711C649.786 255.196 634.464 258.739 620.426 259.31C608.228 259.928 596.62 259.746 584.829 258.775C581.906 258.52 578.921 258.214 575.272 257.62C572.432 257.248 563.551 256.722 555.393 255.671C543.808 254.476 525.065 253.738 507.707 252.556C477.025 250.81 441.304 250.791 406.757 249.923C394.74 249.441 382.767 249.726 368.231 247.383C355.522 245.496 342.948 244.356 331.423 243.801C327.547 243.526 326.16 243.247 324.996 243.146C323.844 243.023 322.807 242.935 321.68 242.857C319.434 242.7 316.969 242.595 314.512 242.53C309.555 242.399 304.588 242.409 299.835 242.486C293.258 242.594 287.131 242.81 281.659 243.087C238.532 245.361 223.829 242.434 203.226 238.445C193.149 236.505 179.547 233.937 163.356 231.684Z" fill="var(--stroke-0, #00A7FB)"/>
</g>
</g>
</svg>
