<svg width="587.592" height="401.1" overflow="visible" style="display: block;" viewBox="0 0 587.592 401.1" fill="none" xmlns="http://www.w3.org/2000/svg">
<g id="Vector 2">
<path d="M172.539 66.2569C159.898 73.2293 150.285 77.5587 138.769 83.1123C136.316 83.6652 134.207 84.1436 131.983 84.4354C124.852 84.8919 114.711 87.6727 101.056 90.6886C79.1701 99.6671 56.9726 103.018 45.7737 116.047C40.0185 122.743 35.469 129.217 26.855 141.198C17.8834 153.677 5.31667 166.06 12.1421 216.907C15.1718 239.478 20.5242 256.388 32.5272 274.106C46.5761 294.844 68.8725 315.399 87.6299 332.612C98.6352 342.711 113.03 352.697 134.238 357.231C150.321 360.668 162.226 366.099 196.922 366.887C226.48 367.558 279.509 370.002 307.819 363.837C341.679 356.463 353.706 354.961 365.011 350.016C377.663 344.482 390.078 341.85 398.878 336.873C419.72 325.086 442.266 312.181 457.91 302.28C478.71 289.117 506.405 277.985 523.866 250.318C534.905 232.824 547.066 218.779 551.251 207.023C554.689 197.366 561.026 175.677 554.17 143.197C546.789 108.231 540.001 86.5935 530.112 76.4598C511.677 57.5688 494.395 43.0367 484.071 40.1443C472.54 36.914 458.893 32.6643 427.474 31.6223C406.826 30.9375 369.818 30.2364 349.475 31.4079C325.451 32.7913 309.375 30.0906 280.69 37.2322C239.014 47.608 212.014 55.3636 205.776 55.6113C200.028 55.8395 187.183 58.1799 172.539 66.2569Z" fill="var(--fill-0, #00A7FB)"/>
<path d="M421.792 350.971C417.612 352.613 413.754 354.57 410.131 356.771C393.702 365.689 384.057 370.267 376.98 377.38C354.754 391.072 340.132 396.568 319.209 399.936C318.042 400.096 316.922 400.241 315.779 400.384C266.251 404.332 262.139 390.568 213.465 392.686C207.68 392.847 201.88 392.842 196.335 392.768C172.559 393.225 143.474 385.084 129.287 380.394C110.163 375.661 95.4036 367.215 85.3685 362.563C78.0089 359.155 73.7591 355.084 70.7653 350.99C64.9038 342.241 63.6866 332.556 46.1528 318.275C33.1684 307.488 23.759 297.104 16.4624 284.989C9.84139 273.94 5.25034 261.318 3.31015 246.881C2.32609 239.882 1.1424 229.826 0.577579 218.46C-1.18007 195.346 0.0136385 156.182 19.5371 135.937C26.5405 125.69 32.434 116.033 37.1185 108.608C37.6412 107.823 38.1667 107.077 38.6833 106.37C57.3506 84.6265 80.9634 86.3598 97.516 82.0587C97.8104 81.921 98.7308 81.6656 99.0445 81.5803C108.65 81.22 117.541 80.7261 125.027 80.2533C127.362 80.1118 129.591 80.1 131.717 80.2793L131.441 80.3062C134.686 80.4745 137.873 80.3334 140.523 80.4937C142.246 80.5844 143.182 81.3735 143.368 82.293C143.368 82.2936 143.368 82.2942 143.369 82.2948C143.592 83.4441 142.693 84.7901 140.696 85.3861C138.334 86.0751 135.681 87.0224 132.424 87.793C132.379 87.7967 132.245 87.8141 132.2 87.8149C124.365 89.3466 114.377 93.8866 102.921 99.1305L104.338 98.687C103.245 99.4282 102.142 100.169 101.022 100.915C78.0709 116.182 66.2901 112.8 54.5635 123.602C50.4346 128.292 46.1174 134.611 40.8998 143.457C39.8042 145.313 38.729 147.158 37.6775 148.979C22.5614 171.877 30.134 187.529 33.2527 214.074C35.0185 224.966 36.6434 235.846 40.2376 247.741C42.1212 253.913 44.9316 259.06 48.1819 263.501C63.5219 283.403 81.6556 288.507 106.418 312.138C112.949 318.296 119.266 324.522 129.271 330.976C132.385 332.96 135.599 334.531 138.829 335.755C167.627 346.988 180.205 345.665 197.477 342.451C219.31 338.251 240.9 332.846 276.348 329.8C284.832 328.962 293.722 327.974 299.737 326.721C318.008 322.668 343.277 319.328 350.617 317.108C365.588 311.443 379.85 308.535 382.348 307.645C405.245 296.727 426.526 286.608 442.267 277.563C450.671 272.67 457.358 269.206 462.617 265.957C477.781 256.77 490.451 247.127 498.03 234.013C507.066 219.007 520.509 201.424 522.019 196.616C526.384 184.828 527.796 170.988 526.328 155.643C526.125 153.528 525.849 151.43 525.482 149.253C523.595 138.526 521.205 127.579 518.147 117.48C515.453 107.767 510.029 97.0527 508.972 97.0883C502.47 90.7501 495.727 84.5831 489.116 79.2014C485.824 76.5244 482.532 74.0336 479.637 72.1197C478.209 71.1736 476.854 70.3644 475.916 69.8855C475.449 69.6451 475.092 69.4913 474.978 69.4585C474.876 69.4253 474.995 69.5262 475.773 69.7636C458.394 64.659 444.505 63.1164 426.48 61.586C420.409 61.0972 414.302 60.5667 408.276 59.9705C390.401 58.2404 369.954 56.3875 350.88 55.808C324.36 55.261 305.603 52.1691 285.362 55.9991C255.598 60.8136 232.399 66.2914 206.298 68.7493C203.745 68.469 200.053 68.7885 197.021 69.2156C189.478 70.3054 182.907 72.4268 177.266 74.8274C160 82.4437 148.157 86.6249 134.273 93.9103C126.269 98.0957 117.385 103.2 106.247 110.076C99.3399 114.359 91.3858 118.882 83.2666 123.492C70.228 130.862 56.4489 139.587 42.9779 148.227C38.2785 151.318 33.4168 153.674 28.6711 155.587C21.417 158.344 18.4607 158.632 17.8565 156.993C17.5543 154.807 21.0901 150.9 26.5253 146.077C29.4358 143.459 32.1301 140.966 34.542 138.502C46.7304 126.257 58.5909 118.478 64.5059 109.661C66.4787 106.718 68.4099 104.021 70.2383 101.58C82.0261 86.1741 90.5352 79.0813 115.393 72.178C117.857 71.5042 120.161 70.7598 122.329 69.9568C143.122 62.3651 149.826 50.089 159.841 43.2349C161.738 42.0203 163.755 40.9634 165.921 40.109C177.516 36.2401 181.203 35.8086 204.935 34.4352C209.811 34.7648 234.845 28.0935 270.052 16.344C271.765 15.7816 273.393 15.2443 275.079 14.6962C303.929 4.9713 331.824 6.06363 347.879 3.69206C384.206 0.267916 408.251 0.372749 428.522 0.0113811C432.99 -0.021637 437.263 0.0175076 441.379 0.124527C453.53 0.280842 474.457 3.48051 492.521 9.98053C512.912 17.5546 518.255 25.0827 527.493 32.7537C535.84 40.4379 543.416 48.3391 550.804 56.2673C570.488 80.1747 571.237 96.6369 576.989 112.388C579.244 119.78 581.402 128.082 583.483 137.01C588.671 159.163 590.326 188.737 580.119 217.3C568.217 244.906 557.434 253.698 550.149 266.904C531.975 296.299 506.396 310.857 494.155 319.881C486.131 325.53 480.515 329.009 476.38 331.466C456.059 343.429 447.746 340.672 421.792 350.971Z" fill="var(--stroke-0, #00A7FB)"/>
</g>
</svg>
