<svg width="81.7505" height="53.1304" overflow="visible" style="display: block;" viewBox="0 0 81.7505 53.1304" fill="none" xmlns="http://www.w3.org/2000/svg">
<path id="Vector 54" d="M2.85668 43.6125C0.362143 44.7968 -0.699963 47.7792 0.484404 50.2737C1.66877 52.7683 4.65111 53.8304 7.14566 52.646L5.00117 48.1292L2.85668 43.6125ZM5.09151 48.0863L7.23599 52.6031L7.83668 52.3179L8.34195 51.8856L5.09151 48.0863ZM6.96847 46.4805L10.2189 50.2798L10.7136 49.8566L11.0834 49.3208L6.96847 46.4805ZM8.59837 44.1191L7.27834 39.2965L5.51935 39.778L4.4834 41.2789L8.59837 44.1191ZM11.2119 43.4038L12.5319 48.2264L13.1347 48.0614L13.6784 47.753L11.2119 43.4038ZM13.5326 42.0876L13.7535 37.0925L12.3169 37.029L11.0661 37.7384L13.5326 42.0876ZM16.3239 42.2111L16.1031 47.2062L17.0219 47.2468L17.8951 46.9578L16.3239 42.2111ZM18.7965 41.3926L20.3676 46.1394L20.449 46.1125L20.5294 46.0828L18.7965 41.3926ZM21.2377 40.4907L21.5917 35.5032L20.5162 35.4269L19.5048 35.8006L21.2377 40.4907ZM24.0492 40.6902L23.6952 45.6777L25.379 45.7972L26.7907 44.8716L24.0492 40.6902ZM26.2991 39.2151L25.6319 34.2598L24.5069 34.4113L23.5575 35.0337L26.2991 39.2151ZM29.0108 38.85L29.678 43.8053L31.9104 43.5047L33.1644 41.6335L29.0108 38.85ZM30.6841 36.3531L27.6553 32.3749L26.9936 32.8787L26.5306 33.5696L30.6841 36.3531ZM32.7566 34.7752L32.4176 29.7867L30.9211 29.8884L29.7277 30.797L32.7566 34.7752ZM35.6474 34.5787L35.9864 39.5672L37.4329 39.4689L38.6024 38.6121L35.6474 34.5787ZM37.7533 33.0358L40.7084 37.0692L41.2899 36.6431L41.7273 36.0702L37.7533 33.0358ZM39.4744 30.7818L39.1175 25.7946L36.8686 25.9555L35.5004 27.7475L39.4744 30.7818ZM42.3304 30.5775L42.6872 35.5647L43.2937 35.5213L43.8721 35.3338L42.3304 30.5775ZM44.8822 29.7503L46.4239 34.5067L48.4364 33.8544L49.3695 31.9557L44.8822 29.7503ZM46.224 27.0202L45.1541 22.136L42.7998 22.6517L41.7367 24.8148L46.224 27.0202ZM48.9589 26.4211L50.0288 31.3053L51.3502 31.0159L52.3455 30.0996L48.9589 26.4211ZM50.8864 24.6466L54.2729 28.3251L54.3057 28.2949L54.338 28.2642L50.8864 24.6466ZM52.7814 22.8385L51.1919 18.0979L50.1358 18.452L49.3299 19.2209L52.7814 22.8385ZM55.3694 21.9708L56.9589 26.7114L58.7114 26.1238L59.6603 24.5376L55.3694 21.9708ZM56.8255 19.5366L53.7061 15.629L52.9991 16.1934L52.5347 16.9698L56.8255 19.5366ZM58.8584 17.9137L58.0965 12.9721L56.78 13.1751L55.7389 14.0062L58.8584 17.9137ZM61.7445 17.4687L62.5064 22.4103L65.1601 22.0012L66.2847 19.563L61.7445 17.4687ZM62.9774 14.7958L62.5643 9.81287L59.6585 10.0538L58.4372 12.7015L62.9774 14.7958ZM66.0932 14.5375L66.5063 19.5204L68.9703 19.3161L70.3037 17.2341L66.0932 14.5375ZM67.5698 12.232L64.7602 8.09609L63.9122 8.67214L63.3593 9.5354L67.5698 12.232ZM69.7122 10.7766L67.7431 6.18073L67.3007 6.37026L66.9026 6.64069L69.7122 10.7766ZM72.1605 9.72766L74.1297 14.3236L75.8409 13.5904L76.656 11.9165L72.1605 9.72766ZM73.4875 7.00226L70.9946 2.66807L69.6641 3.43337L68.9921 4.8134L73.4875 7.00226ZM75.7888 5.67864L78.0407 1.21449L75.6332 0L73.2958 1.34445L75.7888 5.67864ZM74.4974 10.6274C76.9629 11.8711 79.9698 10.8807 81.2136 8.41524C82.4573 5.94976 81.4669 2.94285 79.0014 1.69911L76.7494 6.16326L74.4974 10.6274ZM5.00117 48.1292L7.14566 52.646L7.23599 52.6031L5.09151 48.0863L2.94702 43.5696L2.85668 43.6125L5.00117 48.1292ZM5.09151 48.0863L8.34195 51.8856L10.2189 50.2798L6.96847 46.4805L3.71802 42.6812L1.84106 44.287L5.09151 48.0863ZM6.96847 46.4805L11.0834 49.3208L12.7133 46.9594L8.59837 44.1191L4.4834 41.2789L2.85349 43.6403L6.96847 46.4805ZM8.59837 44.1191L9.9184 48.9417L12.5319 48.2264L11.2119 43.4038L9.89183 38.5811L7.27834 39.2965L8.59837 44.1191ZM11.2119 43.4038L13.6784 47.753L15.9991 46.4369L13.5326 42.0876L11.0661 37.7384L8.74535 39.0545L11.2119 43.4038ZM13.5326 42.0876L13.3117 47.0828L16.1031 47.2062L16.3239 42.2111L16.5448 37.2159L13.7535 37.0925L13.5326 42.0876ZM16.3239 42.2111L17.8951 46.9578L20.3676 46.1394L18.7965 41.3926L17.2253 36.6459L14.7528 37.4643L16.3239 42.2111ZM18.7965 41.3926L20.5294 46.0828L22.9705 45.1808L21.2377 40.4907L19.5048 35.8006L17.0636 36.7025L18.7965 41.3926ZM21.2377 40.4907L20.8837 45.4781L23.6952 45.6777L24.0492 40.6902L24.4032 35.7028L21.5917 35.5032L21.2377 40.4907ZM24.0492 40.6902L26.7907 44.8716L29.0406 43.3965L26.2991 39.2151L23.5575 35.0337L21.3076 36.5089L24.0492 40.6902ZM26.2991 39.2151L26.9663 44.1704L29.678 43.8053L29.0108 38.85L28.3436 33.8947L25.6319 34.2598L26.2991 39.2151ZM29.0108 38.85L33.1644 41.6335L34.8377 39.1366L30.6841 36.3531L26.5306 33.5696L24.8573 36.0665L29.0108 38.85ZM30.6841 36.3531L33.713 40.3313L35.7855 38.7534L32.7566 34.7752L29.7277 30.797L27.6553 32.3749L30.6841 36.3531ZM32.7566 34.7752L33.0956 39.7637L35.9864 39.5672L35.6474 34.5787L35.3084 29.5902L32.4176 29.7867L32.7566 34.7752ZM35.6474 34.5787L38.6024 38.6121L40.7084 37.0692L37.7533 33.0358L34.7983 29.0025L32.6924 30.5454L35.6474 34.5787ZM37.7533 33.0358L41.7273 36.0702L43.4484 33.8162L39.4744 30.7818L35.5004 27.7475L33.7794 30.0014L37.7533 33.0358ZM39.4744 30.7818L39.8312 35.7691L42.6872 35.5647L42.3304 30.5775L41.9735 25.5902L39.1175 25.7946L39.4744 30.7818ZM42.3304 30.5775L43.8721 35.3338L46.4239 34.5067L44.8822 29.7503L43.3404 24.994L40.7886 25.8211L42.3304 30.5775ZM44.8822 29.7503L49.3695 31.9557L50.7113 29.2256L46.224 27.0202L41.7367 24.8148L40.3949 27.5449L44.8822 29.7503ZM46.224 27.0202L47.2938 31.9044L50.0288 31.3053L48.9589 26.4211L47.8891 21.5369L45.1541 22.136L46.224 27.0202ZM48.9589 26.4211L52.3455 30.0996L54.2729 28.3251L50.8864 24.6466L47.4998 20.9681L45.5724 22.7426L48.9589 26.4211ZM50.8864 24.6466L54.338 28.2642L56.233 26.456L52.7814 22.8385L49.3299 19.2209L47.4348 21.0291L50.8864 24.6466ZM52.7814 22.8385L54.3709 27.5791L56.9589 26.7114L55.3694 21.9708L53.7799 17.2301L51.1919 18.0979L52.7814 22.8385ZM55.3694 21.9708L59.6603 24.5376L61.1164 22.1034L56.8255 19.5366L52.5347 16.9698L51.0785 19.4039L55.3694 21.9708ZM56.8255 19.5366L59.945 23.4441L61.9779 21.8213L58.8584 17.9137L55.7389 14.0062L53.7061 15.629L56.8255 19.5366ZM58.8584 17.9137L59.6203 22.8553L62.5064 22.4103L61.7445 17.4687L60.9826 12.5271L58.0965 12.9721L58.8584 17.9137ZM61.7445 17.4687L66.2847 19.563L67.5177 16.89L62.9774 14.7958L58.4372 12.7015L57.2042 15.3745L61.7445 17.4687ZM62.9774 14.7958L63.3905 19.7787L66.5063 19.5204L66.0932 14.5375L65.6802 9.55456L62.5643 9.81287L62.9774 14.7958ZM66.0932 14.5375L70.3037 17.2341L71.7803 14.9287L67.5698 12.232L63.3593 9.5354L61.8828 11.8408L66.0932 14.5375ZM67.5698 12.232L70.3794 16.368L72.5218 14.9126L69.7122 10.7766L66.9026 6.64069L64.7602 8.09609L67.5698 12.232ZM69.7122 10.7766L71.6814 15.3726L74.1297 14.3236L72.1605 9.72766L70.1914 5.13174L67.7431 6.18073L69.7122 10.7766ZM72.1605 9.72766L76.656 11.9165L77.983 9.19111L73.4875 7.00226L68.9921 4.8134L67.6651 7.5388L72.1605 9.72766ZM73.4875 7.00226L75.9805 11.3364L78.2817 10.0128L75.7888 5.67864L73.2958 1.34445L70.9946 2.66807L73.4875 7.00226ZM75.7888 5.67864L73.5368 10.1428L74.4974 10.6274L76.7494 6.16326L79.0014 1.69911L78.0407 1.21449L75.7888 5.67864Z" fill="var(--stroke-0, white)"/>
</svg>
