<svg width="15.048" height="47.9049" overflow="visible" style="display: block;" viewBox="0 0 15.048 47.9049" fill="none" xmlns="http://www.w3.org/2000/svg">
<path id="Vector 56" d="M14.1279 5.26761C14.2756 2.51014 12.16 0.155012 9.40251 0.00728893C6.64504 -0.140434 4.28992 1.97518 4.14219 4.73265L9.13503 5.00013L14.1279 5.26761ZM9.12968 5.09999L4.13684 4.83251L4.09243 5.6616L4.31836 6.46054L9.12968 5.09999ZM9.84896 7.64355L14.6547 9.02357L15.048 7.65407L14.6603 6.28299L9.84896 7.64355ZM9.11825 10.1882L13.387 12.7916L13.738 12.2161L13.924 11.5682L9.11825 10.1882ZM7.56346 12.7375L3.29474 10.134L1.87381 12.4638L3.06457 14.9192L7.56346 12.7375ZM8.84385 15.3777L13.2078 17.8181L14.4806 15.5422L13.3427 13.1959L8.84385 15.3777ZM7.40893 17.9436L3.04495 15.5032L1.92124 17.5126L2.71747 19.6728L7.40893 17.9436ZM8.37632 20.5682L13.1873 21.9299L13.6303 20.365L13.0678 18.8389L8.37632 20.5682ZM7.64374 23.1565L2.83273 21.7948L2.51924 22.9023L2.72161 24.0355L7.64374 23.1565ZM8.10949 25.7644L3.18737 26.6435L3.29255 27.2324L3.53371 27.7799L8.10949 25.7644ZM9.26306 28.3834L13.8584 30.3538L14.7148 28.3566L13.8388 26.3679L9.26306 28.3834ZM8.15421 30.9694L3.55885 28.9989L3.33647 29.5176L3.23527 30.0727L8.15421 30.9694ZM7.686 33.5379L12.4205 35.1456L12.5389 34.7969L12.6049 34.4346L7.686 33.5379ZM6.84345 36.0193L2.10895 34.4116L1.54156 36.0826L2.1487 37.7395L6.84345 36.0193ZM7.86276 38.8011L12.3907 40.9219L13.274 39.0361L12.5575 37.0808L7.86276 38.8011ZM6.69854 41.2866L2.17063 39.1658L1.951 39.6347L1.83212 40.1386L6.69854 41.2866ZM6.31678 42.9049L1.45036 41.7569L0 47.9049H6.31678V42.9049ZM7.1044 47.9049C9.86582 47.9049 12.1044 45.6663 12.1044 42.9049C12.1044 40.1435 9.86582 37.9049 7.1044 37.9049V42.9049V47.9049ZM9.13503 5.00013L4.14219 4.73265L4.13684 4.83251L9.12968 5.09999L14.1225 5.36746L14.1279 5.26761L9.13503 5.00013ZM9.12968 5.09999L4.31836 6.46054L5.03763 9.00411L9.84896 7.64355L14.6603 6.28299L13.941 3.73943L9.12968 5.09999ZM9.84896 7.64355L5.04318 6.26353L4.31247 8.80815L9.11825 10.1882L13.924 11.5682L14.6547 9.02357L9.84896 7.64355ZM9.11825 10.1882L4.84953 7.58471L3.29474 10.134L7.56346 12.7375L11.8322 15.3409L13.387 12.7916L9.11825 10.1882ZM7.56346 12.7375L3.06457 14.9192L4.34496 17.5594L8.84385 15.3777L13.3427 13.1959L12.0623 10.5557L7.56346 12.7375ZM8.84385 15.3777L4.47986 12.9373L3.04495 15.5032L7.40893 17.9436L11.7729 20.384L13.2078 17.8181L8.84385 15.3777ZM7.40893 17.9436L2.71747 19.6728L3.68486 22.2974L8.37632 20.5682L13.0678 18.8389L12.1004 16.2144L7.40893 17.9436ZM8.37632 20.5682L3.56531 19.2065L2.83273 21.7948L7.64374 23.1565L12.4547 24.5182L13.1873 21.9299L8.37632 20.5682ZM7.64374 23.1565L2.72161 24.0355L3.18737 26.6435L8.10949 25.7644L13.0316 24.8854L12.5659 22.2774L7.64374 23.1565ZM8.10949 25.7644L3.53371 27.7799L4.68727 30.3989L9.26306 28.3834L13.8388 26.3679L12.6853 23.7489L8.10949 25.7644ZM9.26306 28.3834L4.6677 26.4129L3.55885 28.9989L8.15421 30.9694L12.7496 32.9398L13.8584 30.3538L9.26306 28.3834ZM8.15421 30.9694L3.23527 30.0727L2.76706 32.6413L7.686 33.5379L12.6049 34.4346L13.0732 31.866L8.15421 30.9694ZM7.686 33.5379L2.95149 31.9303L2.10895 34.4116L6.84345 36.0193L11.578 37.6269L12.4205 35.1456L7.686 33.5379ZM6.84345 36.0193L2.1487 37.7395L3.16801 40.5213L7.86276 38.8011L12.5575 37.0808L11.5382 34.299L6.84345 36.0193ZM7.86276 38.8011L3.33485 36.6802L2.17063 39.1658L6.69854 41.2866L11.2264 43.4075L12.3907 40.9219L7.86276 38.8011ZM6.69854 41.2866L1.83212 40.1386L1.45036 41.7569L6.31678 42.9049L11.1832 44.0529L11.565 42.4346L6.69854 41.2866ZM6.31678 42.9049V47.9049H7.1044V42.9049V37.9049H6.31678V42.9049Z" fill="var(--stroke-0, white)"/>
</svg>
