<svg width="60.7664" height="24.2675" overflow="visible" style="display: block;" viewBox="0 0 60.7664 24.2675" fill="none" xmlns="http://www.w3.org/2000/svg">
<path id="Vector 55" d="M4.09169 13.1336C1.37631 13.6358 -0.417891 16.2441 0.0842419 18.9595C0.586374 21.6749 3.19469 23.4691 5.91007 22.9669L5.00088 18.0503L4.09169 13.1336ZM5.09922 18.0321L6.00841 22.9487L6.15483 22.9217L6.29939 22.8859L5.09922 18.0321ZM7.57858 17.419L9.50524 12.8052L7.98144 12.1689L6.37841 12.5652L7.57858 17.419ZM10.2391 18.53L8.31242 23.1439L11.0031 24.2675L13.306 22.479L10.2391 18.53ZM12.6984 16.62L14.9837 12.1728L12.1488 10.7161L9.63154 12.6711L12.6984 16.62ZM15.4411 18.0294L13.1559 22.4766L15.225 23.5398L17.3711 22.6419L15.4411 18.0294ZM17.9435 16.9823L18.6957 12.0392L17.3082 11.828L16.0135 12.3698L17.9435 16.9823ZM20.6185 17.3894L19.8663 22.3324L20.4343 22.4189L21.0072 22.3742L20.6185 17.3894ZM23.223 17.1863L23.6117 22.1711L23.78 22.158L23.947 22.1336L23.223 17.1863ZM25.8487 16.802L26.5727 21.7493L27.7633 21.5751L28.7443 20.8782L25.8487 16.802ZM28.1423 15.1727L28.7352 10.2079L26.8195 9.97919L25.2467 11.0965L28.1423 15.1727ZM30.9769 15.5111L30.3841 20.4759L32.52 20.7309L34.174 19.3554L30.9769 15.5111ZM33.1278 13.7224L29.9744 9.84209L29.9524 9.85996L29.9307 9.87807L33.1278 13.7224ZM35.2614 11.9884L36.7861 7.2266L34.2085 6.40124L32.1081 8.10818L35.2614 11.9884ZM38.3952 12.9919L36.8704 17.7537L38.7361 18.3511L40.511 17.5222L38.3952 12.9919ZM40.6151 11.9551L38.5258 7.41256L38.5125 7.41866L38.4993 7.42484L40.6151 11.9551ZM43.0835 10.8198L44.3681 5.98761L42.629 5.52529L40.9941 6.27724L43.0835 10.8198ZM45.8852 11.5646L44.6006 16.3968L47.3618 17.1308L49.3961 15.1247L45.8852 11.5646ZM48.0724 9.40766L46.9398 4.53763L45.5659 4.85715L44.5616 5.84759L48.0724 9.40766ZM50.6095 8.81762L50.7239 3.81893L50.0923 3.80448L49.477 3.94759L50.6095 8.81762ZM53.2825 8.87875L53.1682 13.8774L54.3847 13.9053L55.478 13.3709L53.2825 8.87875ZM55.6927 7.7008L60.6751 7.28147L60.0622 0L53.4972 3.20861L55.6927 7.7008ZM50.7838 8.99341C51.0154 11.7451 53.4338 13.7881 56.1855 13.5565C58.9372 13.3249 60.9801 10.9065 60.7486 8.15477L55.7662 8.57409L50.7838 8.99341ZM5.00088 18.0503L5.91007 22.9669L6.00841 22.9487L5.09922 18.0321L4.19003 13.1155L4.09169 13.1336L5.00088 18.0503ZM5.09922 18.0321L6.29939 22.8859L8.77875 22.2729L7.57858 17.419L6.37841 12.5652L3.89905 13.1783L5.09922 18.0321ZM7.57858 17.419L5.65192 22.0329L8.31242 23.1439L10.2391 18.53L12.1657 13.9161L9.50524 12.8052L7.57858 17.419ZM10.2391 18.53L13.306 22.479L15.7653 20.569L12.6984 16.62L9.63154 12.6711L7.17219 14.5811L10.2391 18.53ZM12.6984 16.62L10.4132 21.0672L13.1559 22.4766L15.4411 18.0294L17.7263 13.5821L14.9837 12.1728L12.6984 16.62ZM15.4411 18.0294L17.3711 22.6419L19.8735 21.5948L17.9435 16.9823L16.0135 12.3698L13.5111 13.4169L15.4411 18.0294ZM17.9435 16.9823L17.1913 21.9254L19.8663 22.3324L20.6185 17.3894L21.3707 12.4463L18.6957 12.0392L17.9435 16.9823ZM20.6185 17.3894L21.0072 22.3742L23.6117 22.1711L23.223 17.1863L22.8343 12.2014L20.2298 12.4045L20.6185 17.3894ZM23.223 17.1863L23.947 22.1336L26.5727 21.7493L25.8487 16.802L25.1247 11.8547L22.499 12.239L23.223 17.1863ZM25.8487 16.802L28.7443 20.8782L31.038 19.2489L28.1423 15.1727L25.2467 11.0965L22.953 12.7258L25.8487 16.802ZM28.1423 15.1727L27.5495 20.1374L30.3841 20.4759L30.9769 15.5111L31.5697 10.5464L28.7352 10.2079L28.1423 15.1727ZM30.9769 15.5111L34.174 19.3554L36.3248 17.5667L33.1278 13.7224L29.9307 9.87807L27.7798 11.6668L30.9769 15.5111ZM33.1278 13.7224L36.2811 17.6026L38.4147 15.8687L35.2614 11.9884L32.1081 8.10818L29.9744 9.84209L33.1278 13.7224ZM35.2614 11.9884L33.7366 16.7503L36.8704 17.7537L38.3952 12.9919L39.9199 8.23006L36.7861 7.2266L35.2614 11.9884ZM38.3952 12.9919L40.511 17.5222L42.7309 16.4854L40.6151 11.9551L38.4993 7.42484L36.2794 8.46164L38.3952 12.9919ZM40.6151 11.9551L42.7044 16.4976L45.1728 15.3623L43.0835 10.8198L40.9941 6.27724L38.5258 7.41256L40.6151 11.9551ZM43.0835 10.8198L41.7989 15.6519L44.6006 16.3968L45.8852 11.5646L47.1698 6.73243L44.3681 5.98761L43.0835 10.8198ZM45.8852 11.5646L49.3961 15.1247L51.5832 12.9677L48.0724 9.40766L44.5616 5.84759L42.3744 8.00452L45.8852 11.5646ZM48.0724 9.40766L49.205 14.2777L51.7421 13.6877L50.6095 8.81762L49.477 3.94759L46.9398 4.53763L48.0724 9.40766ZM50.6095 8.81762L50.4952 13.8163L53.1682 13.8774L53.2825 8.87875L53.3968 3.88006L50.7239 3.81893L50.6095 8.81762ZM53.2825 8.87875L55.478 13.3709L57.8882 12.193L55.6927 7.7008L53.4972 3.20861L51.087 4.38656L53.2825 8.87875ZM55.6927 7.7008L50.7103 8.12012L50.7838 8.99341L55.7662 8.57409L60.7486 8.15477L60.6751 7.28147L55.6927 7.7008Z" fill="var(--stroke-0, white)"/>
</svg>
