<svg width="278.674" height="347.663" overflow="visible" style="display: block;" viewBox="0 0 278.674 347.663" fill="none" xmlns="http://www.w3.org/2000/svg">
<path id="Vector 57" d="M5.25458 1.79069C4.86248 0.466826 3.47141 -0.288518 2.14754 0.103583C0.823677 0.495684 0.0683324 1.88675 0.460434 3.21062L2.85751 2.50065L5.25458 1.79069ZM2.8859 2.59654L5.32342 3.152L5.4688 2.514L5.28298 1.88658L2.8859 2.59654ZM2.59923 3.85454L0.161718 3.29907L0 4.00873L0.244488 4.6943L2.59923 3.85454ZM3.04563 5.10628L0.690888 5.94603L0.718894 6.02456L0.752069 6.10105L3.04563 5.10628ZM3.57293 6.32203L6.07096 6.42133L6.09363 5.85094L5.86649 5.32725L3.57293 6.32203ZM3.51903 7.67786L1.02101 7.57856L0.99062 8.34297L1.39321 8.99348L3.51903 7.67786ZM4.2342 8.83345L6.48224 7.73968L6.42676 7.62565L6.36003 7.51783L4.2342 8.83345ZM4.8123 10.0216L7.30167 10.2519L7.36603 9.55615L7.06034 8.92785L4.8123 10.0216ZM4.68368 11.412L2.19431 11.1818L2.11421 12.0476L2.58874 12.7763L4.68368 11.412ZM5.42228 12.5462L7.55668 11.2446L7.53742 11.213L7.51722 11.1819L5.42228 12.5462ZM6.11901 13.6887L8.55351 14.2572L8.78622 13.2607L8.25341 12.387L6.11901 13.6887ZM5.77526 15.1606L3.34076 14.5921L3.09897 15.6275L3.67703 16.5198L5.77526 15.1606ZM6.50714 16.2905L4.40891 17.6497L4.42699 17.6776L4.44582 17.705L6.50714 16.2905ZM7.26439 17.3939L9.70936 16.8723L9.606 16.3878L9.32571 15.9794L7.26439 17.3939ZM7.53613 18.6676L10.0037 18.2663L9.99388 18.2058L9.9811 18.1459L7.53613 18.6676ZM7.7504 19.9851L10.2421 19.7815L10.234 19.6822L10.218 19.5838L7.7504 19.9851ZM7.8624 21.3557L5.3707 21.5593L5.44734 22.4972L6.12338 23.1518L7.8624 21.3557ZM8.86982 22.3311L11.0765 21.1562L10.8916 20.8088L10.6088 20.5351L8.86982 22.3311ZM9.48196 23.4808L11.9183 22.9205L11.8442 22.598L11.6887 22.3059L9.48196 23.4808ZM9.7813 24.7823L7.34492 25.3427L7.46721 25.8744L7.7999 26.3068L9.7813 24.7823ZM10.5871 25.8296L8.60567 27.354L8.63018 27.3859L8.65571 27.417L10.5871 25.8296ZM11.4292 26.8542L13.6137 25.6384L13.5039 25.4412L13.3606 25.2668L11.4292 26.8542ZM12.0624 27.9918L14.554 27.7869L14.5097 27.2483L14.2469 26.776L12.0624 27.9918ZM12.179 29.4091L9.6874 29.614L9.73987 30.2519L10.0924 30.7861L12.179 29.4091ZM12.8941 30.4927L10.8075 31.8697L11.1399 32.3734L11.6655 32.6699L12.8941 30.4927ZM14.21 31.2352L16.5987 30.4977L16.3052 29.547L15.4386 29.058L14.21 31.2352ZM14.6047 32.5137L12.216 33.2513L12.3467 33.6745L12.6148 34.0271L14.6047 32.5137ZM15.3962 33.5545L17.8914 33.7089L17.9488 32.781L17.3861 32.0411L15.3962 33.5545ZM15.2998 35.1123L12.8046 34.9579L12.6945 36.7371L14.3407 37.421L15.2998 35.1123ZM16.8061 35.7381L19.2469 35.1972L18.9657 33.9281L17.7653 33.4294L16.8061 35.7381ZM17.1011 37.0693L14.6603 37.6101L14.7242 37.8983L14.8534 38.1636L17.1011 37.0693ZM17.6718 38.2415L20.0514 37.475L19.9971 37.3064L19.9196 37.1472L17.6718 38.2415ZM18.0843 39.5222L15.7047 40.2887L15.963 41.0907L16.6541 41.5727L18.0843 39.5222ZM19.2384 40.3272L21.2747 38.8769L21.0237 38.5244L20.6687 38.2768L19.2384 40.3272ZM20.0023 41.3998L22.492 41.173L22.4307 40.4999L22.0386 39.9495L20.0023 41.3998ZM20.1327 42.8308L17.643 43.0576L17.7703 44.4546L19.029 45.074L20.1327 42.8308ZM21.5224 43.5145L24.019 43.3836L23.9422 41.9188L22.6261 41.2713L21.5224 43.5145ZM21.5993 44.9811L19.1027 45.112L19.1536 46.0821L19.8461 46.7633L21.5993 44.9811ZM22.561 45.9271L24.3335 44.1641L24.3239 44.1544L24.3141 44.1448L22.561 45.9271ZM23.491 46.8622L25.465 45.3281L25.3713 45.2075L25.2636 45.0992L23.491 46.8622ZM24.2956 47.8974L26.7904 47.7365L26.741 46.9699L26.2696 46.3633L24.2956 47.8974ZM24.3909 49.3752L21.8961 49.5361L21.9755 50.7666L23.0001 51.4526L24.3909 49.3752ZM25.5662 50.1621L27.9264 49.3378L27.6511 48.5493L26.9571 48.0847L25.5662 50.1621ZM26.0113 51.4364L28.4681 50.9737L28.4334 50.7893L28.3715 50.6121L26.0113 51.4364ZM26.2678 52.7987L23.811 53.2613L24.0471 54.5154L25.2013 55.0598L26.2678 52.7987ZM27.6663 53.4583L29.7995 52.1547L29.4094 51.5164L28.7328 51.1972L27.6663 53.4583ZM28.3401 54.5609L30.5991 53.49L30.5424 53.3703L30.4733 53.2573L28.3401 54.5609ZM28.9004 55.7426L26.6414 56.8136L26.6798 56.8945L26.7239 56.9726L28.9004 55.7426ZM29.5509 56.8937L27.3744 58.1237L27.6092 58.5392L27.9806 58.839L29.5509 56.8937ZM30.5973 57.7384L32.9099 56.7887L32.6664 56.1957L32.1676 55.7931L30.5973 57.7384ZM31.1014 58.9659L33.5696 58.5682L33.5237 58.2832L33.414 58.0162L31.1014 58.9659ZM31.3298 60.3832L28.8617 60.781L29.0777 62.1219L30.3203 62.6703L31.3298 60.3832ZM32.7289 61.0008L35.0319 60.0279L34.6459 59.1142L33.7385 58.7137L32.7289 61.0008ZM33.2458 62.2243L35.5555 61.2676L35.5521 61.2595L35.5487 61.2514L33.2458 62.2243ZM33.7554 63.4547L31.4457 64.4114L31.5846 64.7468L31.8132 65.0288L33.7554 63.4547ZM34.5683 64.4577L32.626 66.0317L32.7929 66.2376L32.9992 66.4039L34.5683 64.4577ZM35.635 65.3177L37.9672 64.4174L37.7259 63.7921L37.2041 63.3714L35.635 65.3177ZM36.1186 66.5704L38.6037 66.2983L38.5682 65.9742L38.4508 65.6701L36.1186 66.5704ZM36.2757 68.0054L33.7906 68.2776L33.8687 68.9909L34.3132 69.5541L36.2757 68.0054ZM37.0853 69.0313L35.1228 70.58L35.2062 70.6857L35.3004 70.7817L37.0853 69.0313ZM38.0278 69.9923L40.0139 68.4739L39.9204 68.3517L39.8127 68.2418L38.0278 69.9923ZM38.8064 71.0107L36.8204 72.5291L36.8695 72.5933L36.9226 72.6542L38.8064 71.0107ZM39.6659 71.9957L37.7821 73.6393L37.7822 73.6394L39.6659 71.9957ZM40.5368 72.9938L42.9336 72.2829L42.7787 71.7606L42.4205 71.3502L40.5368 72.9938ZM40.9231 74.2963L38.5263 75.0072L38.6359 75.3768L38.8518 75.6962L40.9231 74.2963ZM41.6453 75.3649L43.9169 74.3209L43.8313 74.1347L43.7166 73.9649L41.6453 75.3649ZM42.1973 76.5661L39.9257 77.61L39.9344 77.6288L39.9433 77.6475L42.1973 76.5661ZM42.7736 77.7671L40.5196 78.8486L40.9626 79.772L41.9262 80.1191L42.7736 77.7671ZM44.2697 78.3061L46.4222 77.0347L45.9643 76.2593L45.117 75.9541L44.2697 78.3061ZM44.9298 79.4238L47.4265 79.2949L47.3948 78.6814L47.0824 78.1524L44.9298 79.4238ZM45.0086 80.9501L42.5119 81.0789L42.5847 82.4895L43.8305 83.1551L45.0086 80.9501ZM46.3115 81.6462L48.7448 81.0727L48.4858 79.9734L47.4896 79.4412L46.3115 81.6462ZM46.6275 82.987L44.1942 83.5605L44.3475 84.211L44.8049 84.6982L46.6275 82.987ZM47.5281 83.9463L45.7056 85.6575L45.8343 85.7946L45.9821 85.9109L47.5281 83.9463ZM48.609 84.7968L51.0885 84.4778L50.9581 83.4642L50.155 82.8322L48.609 84.7968ZM48.7949 86.2424L46.3154 86.5614L46.4932 87.9438L47.7627 88.5193L48.7949 86.2424ZM50.1718 86.8666L52.3777 85.6901L51.9779 84.9405L51.2041 84.5897L50.1718 86.8666ZM50.7872 88.0205L53.2845 87.9037L53.2582 87.341L52.9931 86.844L50.7872 88.0205ZM50.8591 89.5569L48.3618 89.6736L48.4195 90.9081L49.4354 91.6119L50.8591 89.5569ZM52.0032 90.3495L53.9385 88.7669L53.7159 88.4947L53.4268 88.2945L52.0032 90.3495ZM52.8237 91.3529L55.249 90.7463L55.1132 90.2034L54.759 89.7702L52.8237 91.3529ZM53.16 92.6977L50.7347 93.3042L50.821 93.6491L51 93.9563L53.16 92.6977ZM53.8208 93.8317L51.6607 95.0903L51.9919 95.6586L52.5598 95.9904L53.8208 93.8317ZM55.0639 94.5579L57.418 93.7162L57.1114 92.8586L56.3249 92.3992L55.0639 94.5579ZM55.5135 95.8152L53.1595 96.6569L53.3564 97.2077L53.7773 97.6139L55.5135 95.8152ZM56.4677 96.7362L58.328 95.0661L58.2683 94.9996L58.204 94.9375L56.4677 96.7362ZM57.3482 97.7169L59.6431 96.7252L59.4811 96.3505L59.2085 96.0468L57.3482 97.7169ZM57.8759 98.938L55.581 99.9297L55.6304 100.044L55.6909 100.153L57.8759 98.938ZM58.506 100.071L56.3211 101.286L56.4477 101.514L56.6184 101.71L58.506 100.071ZM59.3623 101.057L61.8344 100.685L61.7262 99.9666L61.25 99.4183L59.3623 101.057ZM59.5786 102.492L57.1066 102.865L57.2893 104.077L58.3597 104.675L59.5786 102.492ZM60.8547 103.205L63.2909 102.643L63.0418 101.563L62.0737 101.022L60.8547 103.205ZM61.1664 104.557L58.7303 105.118L59.0008 106.292L60.087 106.812L61.1664 104.557ZM62.514 105.202L65.0134 105.148L64.9802 103.611L63.5934 102.947L62.514 105.202ZM62.5476 106.761L60.0482 106.815L60.0859 108.56L61.7374 109.126L62.5476 106.761ZM64.0856 107.288L66.0378 105.726L65.5837 105.158L64.8959 104.923L64.0856 107.288ZM64.8983 108.304L67.3905 108.501L67.4687 107.515L66.8505 106.742L64.8983 108.304ZM64.7662 109.969L62.274 109.772L62.1238 111.666L63.9086 112.318L64.7662 109.969ZM66.2609 110.515L68.7607 110.542L68.78 108.774L67.1185 108.167L66.2609 110.515ZM66.2434 112.115L63.7436 112.087L63.7292 113.402L64.8043 114.159L66.2434 112.115ZM67.3804 112.915L68.8248 110.874L68.8196 110.871L67.3804 112.915ZM68.5032 113.71L70.914 113.048L70.6773 112.186L69.9476 111.669L68.5032 113.71ZM68.8674 115.037L66.4566 115.698L66.6121 116.265L67.0035 116.703L68.8674 115.037ZM69.7416 116.014L71.6771 114.432L71.6422 114.389L71.6055 114.348L69.7416 116.014ZM70.5708 117.029L73.065 116.86L73.0112 116.064L72.5063 115.446L70.5708 117.029ZM70.673 118.539L68.1787 118.708L68.2714 120.078L69.477 120.735L70.673 118.539ZM71.9454 119.232L74.3926 118.721L74.1563 117.59L73.1413 117.037L71.9454 119.232ZM72.2341 120.615L69.7869 121.126L69.9569 121.94L70.5806 122.49L72.2341 120.615ZM73.2403 121.503L75.2294 119.988L75.0795 119.791L74.8939 119.627L73.2403 121.503ZM74.0319 122.542L76.4449 121.888L76.317 121.417L76.021 121.028L74.0319 122.542ZM74.3918 123.87L71.9789 124.524L72.2228 125.424L72.9962 125.944L74.3918 123.87ZM75.5462 124.647L74.1506 126.721L74.1916 126.748L74.2337 126.774L75.5462 124.647ZM76.7522 125.391L79.2325 125.077L79.0827 123.891L78.0647 123.263L76.7522 125.391ZM76.9368 126.853L74.4565 127.166L74.5087 127.58L74.6925 127.954L76.9368 126.853ZM77.517 128.035L75.2727 129.136L75.6044 129.812L76.2541 130.193L77.517 128.035ZM78.748 128.756L81.164 128.113L80.8994 127.118L80.0109 126.598L78.748 128.756ZM79.1036 130.093L76.6876 130.735L76.9937 131.886L78.0804 132.374L79.1036 130.093ZM80.4859 130.713L82.8742 129.974L82.5402 128.894L81.5091 128.432L80.4859 130.713ZM80.8908 132.022L83.3416 131.528L83.3165 131.404L83.2791 131.283L80.8908 132.022ZM81.1708 133.412L78.72 133.905L78.8172 134.388L79.09 134.798L81.1708 133.412ZM81.8905 134.492L79.8098 135.878L80.0215 136.196L80.3185 136.436L81.8905 134.492ZM82.9416 135.342L85.3109 134.545L85.0789 133.856L84.5136 133.399L82.9416 135.342ZM83.3749 136.629L81.0056 137.427L81.2142 138.047L81.6993 138.485L83.3749 136.629ZM84.3669 137.525L86.6144 136.43L86.4021 135.995L86.0425 135.67L84.3669 137.525ZM84.9424 138.707L82.6949 139.802L82.8066 140.031L82.9622 140.233L84.9424 138.707ZM85.736 139.737L83.7558 141.263L83.8984 141.448L84.0729 141.603L85.736 139.737ZM86.7327 140.625L85.0696 142.491L85.0932 142.512L85.1174 142.533L86.7327 140.625ZM87.7589 141.493L89.9417 140.275L89.7205 139.879L89.3742 139.585L87.7589 141.493ZM88.397 142.636L86.2143 143.855L86.3198 144.044L86.4561 144.212L88.397 142.636ZM89.2172 143.646L91.1948 142.117L91.1767 142.094L91.1581 142.071L89.2172 143.646ZM90.0129 144.675L92.2414 143.542L92.1346 143.332L91.9904 143.146L90.0129 144.675ZM90.6085 145.847L88.38 146.98L88.5163 147.248L88.7123 147.476L90.6085 145.847ZM91.4602 146.838L89.564 148.467L89.7062 148.633L89.8748 148.771L91.4602 146.838ZM92.5026 147.693L94.9435 147.152L94.7565 146.308L94.088 145.76L92.5026 147.693ZM92.8075 149.07L90.3667 149.61L90.4122 149.816L90.4915 150.011L92.8075 149.07ZM93.3104 150.307L90.9944 151.248L91.1215 151.561L91.3269 151.829L93.3104 150.307ZM94.1025 151.34L96.3828 150.315L96.2634 150.049L96.086 149.818L94.1025 151.34ZM94.6461 152.549L92.3658 153.574L92.4993 153.871L92.7044 154.124L94.6461 152.549ZM95.4669 153.561L93.5253 155.136L93.6316 155.267L93.7546 155.383L95.4669 153.561ZM96.433 154.469L98.3623 152.879L98.2612 152.757L98.1454 152.648L96.433 154.469ZM97.2619 155.475L95.3327 157.065L95.3752 157.117L95.4204 157.166L97.2619 155.475ZM98.1479 156.44L96.3064 158.131L96.3114 158.136L96.3164 158.142L98.1479 156.44ZM99.04 157.4L100.909 155.74L100.891 155.719L100.871 155.699L99.04 157.4ZM99.9085 158.378L102.381 158.011L102.272 157.275L101.778 156.718L99.9085 158.378ZM100.123 159.823L97.6506 160.191L97.8363 161.44L98.9514 162.032L100.123 159.823ZM101.406 160.504L103.3 158.872L102.993 158.516L102.578 158.296L101.406 160.504ZM102.258 161.492L104.583 160.574L104.428 160.181L104.152 159.86L102.258 161.492ZM102.75 162.738L100.425 163.657L100.432 163.675L100.44 163.693L102.75 162.738ZM103.261 163.973L100.951 164.928L101.199 165.528L101.706 165.931L103.261 163.973ZM104.32 164.814L106.023 162.984L105.951 162.917L105.875 162.857L104.32 164.814ZM105.291 165.717L107.711 165.089L107.528 164.383L106.994 163.887L105.291 165.717ZM105.641 167.065L108.072 166.482L108.067 166.459L108.061 166.437L105.641 167.065ZM105.969 168.43L103.538 169.013L103.843 170.285L105.061 170.759L105.969 168.43ZM107.415 168.994L109.78 168.183L109.404 167.086L108.323 166.665L107.415 168.994ZM107.856 170.279L105.492 171.091L105.586 171.367L105.743 171.614L107.856 170.279ZM108.551 171.38L106.438 172.715L106.488 172.794L106.544 172.87L108.551 171.38ZM109.325 172.422L107.317 173.912L107.44 174.077L107.587 174.22L109.325 172.422ZM110.275 173.341L112.214 171.763L112.12 171.647L112.012 171.543L110.275 173.341ZM111.099 174.353L113.245 173.071L113.152 172.915L113.038 172.775L111.099 174.353ZM111.769 175.474L109.623 176.756L109.904 177.227L110.357 177.537L111.769 175.474ZM112.907 176.253L115.119 175.087L114.83 174.539L114.319 174.189L112.907 176.253ZM113.518 177.411L115.968 176.915L115.897 176.563L115.729 176.245L113.518 177.411ZM113.802 178.815L111.351 179.31L111.542 180.251L112.313 180.823L113.802 178.815ZM114.899 179.628L116.455 177.671L116.422 177.645L116.388 177.62L114.899 179.628ZM115.956 180.468L118.321 179.658L118.084 178.966L117.511 178.51L115.956 180.468ZM116.395 181.752L114.03 182.561L114.239 183.171L114.716 183.603L116.395 181.752ZM117.376 182.642L119.53 181.371L119.337 181.045L119.056 180.79L117.376 182.642ZM118.043 183.771L115.889 185.041L115.953 185.148L116.026 185.249L118.043 183.771ZM118.812 184.821L121.192 184.054L121.068 183.669L120.829 183.343L118.812 184.821ZM119.232 186.123L116.853 186.89L116.894 187.02L116.95 187.145L119.232 186.123ZM119.773 187.331L117.492 188.353L117.603 188.602L117.765 188.82L119.773 187.331ZM120.549 188.377L118.54 189.866L119.026 190.52L119.803 190.763L120.549 188.377ZM122.098 188.861L124.319 187.714L123.84 186.786L122.843 186.474L122.098 188.861ZM122.701 190.031L125.192 189.817L125.15 189.324L124.923 188.884L122.701 190.031ZM122.831 191.543L120.34 191.757L120.419 192.679L121.08 193.328L122.831 191.543ZM123.766 192.461L125.568 190.728L125.543 190.702L125.518 190.677L123.766 192.461ZM124.681 193.412L126.862 192.191L126.705 191.91L126.483 191.679L124.681 193.412ZM125.323 194.558L123.141 195.78L123.188 195.863L123.241 195.943L125.323 194.558ZM126.043 195.641L123.962 197.026L124.127 197.275L124.346 197.477L126.043 195.641ZM127.011 196.536L125.314 198.372L125.487 198.532L125.686 198.656L127.011 196.536ZM128.197 197.277L130.666 196.887L130.489 195.761L129.522 195.157L128.197 197.277ZM128.426 198.731L125.957 199.121L126.157 200.387L127.301 200.964L128.426 198.731ZM129.728 199.388L131.637 197.773L131.308 197.384L130.853 197.155L129.728 199.388ZM130.567 200.379L132.982 199.734L132.837 199.192L132.476 198.765L130.567 200.379ZM130.925 201.721L128.51 202.366L128.657 202.915L129.026 203.347L130.925 201.721ZM131.779 202.718L129.88 204.344L129.912 204.381L129.946 204.417L131.779 202.718ZM132.671 203.68L135.136 203.263L135.011 202.528L134.504 201.981L132.671 203.68ZM132.914 205.116L130.449 205.533L130.691 206.965L132.055 207.464L132.914 205.116ZM134.364 205.647L136.862 205.552L136.799 203.875L135.223 203.299L134.364 205.647ZM134.424 207.23L131.926 207.325L131.975 208.612L133.052 209.319L134.424 207.23ZM135.586 207.993L137.613 206.53L137.344 206.156L136.959 205.904L135.586 207.993ZM136.347 209.047L134.32 210.51L134.444 210.682L134.596 210.831L136.347 209.047ZM137.28 209.962L139.702 209.342L139.529 208.666L139.031 208.178L137.28 209.962ZM137.63 211.325L135.208 211.946L135.326 212.406L135.605 212.791L137.63 211.325ZM138.398 212.385L140.551 211.116L140.491 211.014L140.422 210.919L138.398 212.385ZM139.062 213.513L136.909 214.783L137.062 215.043L137.273 215.259L139.062 213.513ZM139.973 214.447L138.183 216.192L138.433 216.449L138.745 216.625L139.973 214.447ZM141.204 215.141L143.505 214.164L143.173 213.381L142.432 212.964L141.204 215.141ZM141.732 216.385L139.431 217.362L139.542 217.624L139.709 217.853L141.732 216.385ZM142.497 217.439L140.474 218.907L140.761 219.304L141.177 219.563L142.497 217.439ZM143.673 218.17L145.824 216.896L145.512 216.37L144.993 216.047L143.673 218.17ZM144.337 219.291L146.795 218.837L146.715 218.4L146.488 218.017L144.337 219.291ZM144.604 220.738L142.145 221.191L142.421 222.686L143.875 223.129L144.604 220.738ZM146.138 221.205L148.623 220.926L148.439 219.293L146.867 218.814L146.138 221.205ZM146.306 222.701L143.822 222.98L143.962 224.23L145.05 224.862L146.306 222.701ZM147.518 223.406L149.559 221.962L149.245 221.518L148.775 221.244L147.518 223.406ZM148.276 224.477L146.235 225.921L146.321 226.043L146.422 226.154L148.276 224.477ZM149.151 225.445L151.44 224.44L151.277 224.069L151.005 223.768L149.151 225.445ZM149.684 226.66L147.395 227.665L147.502 227.909L147.659 228.126L149.684 226.66ZM150.448 227.716L148.423 229.182L148.741 229.622L149.214 229.89L150.448 227.716ZM151.682 228.417L154.06 227.647L153.761 226.723L152.916 226.243L151.682 228.417ZM152.106 229.728L154.504 229.023L154.495 228.991L154.485 228.959L152.106 229.728ZM152.496 231.053L150.097 231.758L150.383 232.729L151.263 233.228L152.496 231.053ZM153.733 231.754L155.311 229.815L155.148 229.683L154.966 229.579L153.733 231.754ZM154.771 232.599L156.894 231.278L156.673 230.924L156.349 230.66L154.771 232.599ZM155.457 233.702L157.885 233.108L157.791 232.72L157.58 232.381L155.457 233.702ZM155.795 235.084L153.367 235.678L153.578 236.539L154.284 237.075L155.795 235.084ZM156.874 235.903L155.363 237.895L155.375 237.904L155.387 237.913L156.874 235.903ZM157.956 236.703L159.761 234.974L159.614 234.821L159.443 234.694L157.956 236.703ZM158.848 237.635L161.334 237.371L161.244 236.523L160.654 235.906L158.848 237.635ZM159.012 239.182L156.526 239.446L156.687 240.958L158.103 241.511L159.012 239.182ZM160.417 239.73L162.362 238.16L161.945 237.643L161.326 237.401L160.417 239.73ZM161.226 240.733L163.52 239.739L163.385 239.427L163.172 239.163L161.226 240.733ZM161.763 241.973L159.469 242.967L159.471 242.971L161.763 241.973ZM162.303 243.214L160.011 244.212L160.155 244.542L160.386 244.818L162.303 243.214ZM163.133 244.205L165.16 242.742L165.108 242.67L165.05 242.602L163.133 244.205ZM163.894 245.261L161.867 246.724L162.368 247.417L163.187 247.659L163.894 245.261ZM165.42 245.71L167.894 245.351L167.664 243.766L166.127 243.313L165.42 245.71ZM165.636 247.2L163.162 247.559L163.368 248.98L164.7 249.518L165.636 247.2ZM167.01 247.754L169.488 247.424L169.295 245.981L167.946 245.436L167.01 247.754ZM167.213 249.277L164.734 249.608L164.849 250.469L165.473 251.073L167.213 249.277ZM168.149 250.184L166.409 251.98L166.597 252.162L166.819 252.301L168.149 250.184ZM169.307 250.911L171.587 249.885L171.277 249.196L170.637 248.794L169.307 250.911ZM169.864 252.148L167.584 253.174L167.635 253.286L167.696 253.392L169.864 252.148ZM170.517 253.285L168.349 254.53L168.721 255.178L169.388 255.516L170.517 253.285ZM171.783 253.925L173.579 252.186L173.286 251.884L172.912 251.695L171.783 253.925ZM172.694 254.866L175.06 254.058L174.879 253.528L174.489 253.126L172.694 254.866ZM173.14 256.172L170.774 256.98L170.854 257.215L170.98 257.431L173.14 256.172ZM173.808 257.319L171.648 258.577L172 259.183L172.616 259.517L173.808 257.319ZM175.037 257.986L176.904 256.323L176.613 255.997L176.229 255.788L175.037 257.986ZM175.894 258.948L174.028 260.611L174.212 260.817L174.436 260.979L175.894 258.948ZM176.993 259.736L179.37 258.961L179.116 258.183L178.451 257.705L176.993 259.736ZM177.427 261.066L175.05 261.842L175.213 262.342L175.564 262.734L177.427 261.066ZM178.294 262.035L180.602 261.073L180.439 260.682L180.156 260.367L178.294 262.035ZM178.822 263.301L176.515 264.264L176.685 264.672L176.986 264.997L178.822 263.301ZM179.696 264.247L177.86 265.943L178.03 266.128L178.234 266.275L179.696 264.247ZM180.792 265.037L182.969 263.809L182.699 263.33L182.254 263.009L180.792 265.037ZM181.441 266.188L179.263 267.416L179.412 267.68L179.62 267.901L181.441 266.188ZM182.334 267.138L180.513 268.851L180.884 269.244L181.384 269.45L182.334 267.138ZM183.678 267.69L185.997 266.755L185.603 265.778L184.628 265.378L183.678 267.69ZM184.191 268.962L181.872 269.897L182.118 270.507L182.633 270.917L184.191 268.962ZM185.229 269.789L187.563 268.895L187.32 268.259L186.787 267.834L185.229 269.789ZM185.721 271.075L183.387 271.969L183.508 272.285L183.708 272.558L185.721 271.075ZM186.503 272.137L184.491 273.619L184.825 274.074L185.323 274.34L186.503 272.137ZM187.713 272.785L189.261 270.822L189.088 270.686L188.894 270.582L187.713 272.785ZM188.756 273.607L191.198 273.072L191.006 272.198L190.303 271.643L188.756 273.607ZM189.075 275.064L186.632 275.599L186.829 276.498L187.563 277.055L189.075 275.064ZM190.133 275.868L191.985 274.189L191.829 274.017L191.645 273.877L190.133 275.868ZM191.003 276.827L189.151 278.507L189.226 278.589L189.307 278.664L191.003 276.827ZM191.966 277.716L190.27 279.553L190.508 279.773L190.794 279.925L191.966 277.716ZM193.175 278.358L195.44 277.3L195.086 276.541L194.347 276.149L193.175 278.358ZM193.757 279.602L191.491 280.66L191.829 281.383L192.524 281.777L193.757 279.602ZM194.933 280.269L196.354 278.212L196.262 278.148L196.165 278.093L194.933 280.269ZM196.032 281.028L198.517 280.757L198.394 279.621L197.453 278.971L196.032 281.028ZM196.208 282.644L193.723 282.915L193.93 284.818L195.822 285.114L196.208 282.644ZM197.833 282.898L200.267 282.327L199.882 280.688L198.219 280.428L197.833 282.898ZM198.177 284.366L195.743 284.937L195.876 285.506L196.249 285.958L198.177 284.366ZM199.008 285.373L197.08 286.965L197.182 287.088L197.298 287.197L199.008 285.373ZM199.959 286.265L198.25 288.089L198.284 288.12L198.318 288.151L199.959 286.265ZM200.938 287.116L202.619 285.266L202.599 285.248L202.579 285.23L200.938 287.116ZM201.907 287.997L200.226 289.847L200.285 289.901L200.348 289.951L201.907 287.997ZM202.929 288.812L205.247 287.876L205.001 287.267L204.488 286.858L202.929 288.812ZM203.456 290.12L201.138 291.055L201.44 291.805L202.124 292.236L203.456 290.12ZM204.588 290.833L203.256 292.948L203.481 293.09L203.732 293.182L204.588 290.833ZM205.929 291.321L208.128 290.131L207.676 289.297L206.785 288.972L205.929 291.321ZM206.575 292.515L204.376 293.705L204.458 293.857L204.561 293.996L206.575 292.515ZM207.357 293.579L205.343 295.06L205.737 295.596L206.346 295.866L207.357 293.579ZM208.624 294.14L210.364 292.344L210.043 292.034L209.636 291.854L208.624 294.14ZM209.554 295.041L211.861 294.077L211.663 293.603L211.294 293.245L209.554 295.041ZM210.102 296.352L207.796 297.316L208.013 297.836L208.433 298.213L210.102 296.352ZM211.072 297.221L209.403 299.083L209.79 299.429L210.282 299.593L211.072 297.221ZM212.435 297.675L214.477 296.233L214.003 295.562L213.224 295.303L212.435 297.675ZM213.196 298.754L211.154 300.196L211.48 300.658L211.973 300.934L213.196 298.754ZM214.368 299.411L216.819 298.92L216.593 297.793L215.591 297.231L214.368 299.411ZM214.681 300.976L212.23 301.467L212.497 302.801L213.762 303.301L214.681 300.976ZM215.982 301.49L217.893 299.878L217.487 299.397L216.901 299.166L215.982 301.49ZM216.826 302.491L214.915 304.103L215.145 304.376L215.443 304.574L216.826 302.491ZM217.922 303.218L219.693 301.454L219.515 301.275L219.304 301.135L217.922 303.218ZM218.839 304.139L220.818 302.612L220.722 302.487L220.61 302.375L218.839 304.139ZM219.646 305.185L217.666 306.712L218.219 307.43L219.105 307.626L219.646 305.185ZM221.107 305.509L223.052 303.94L222.503 303.258L221.648 303.069L221.107 305.509ZM221.933 306.533L224.34 305.861L224.202 305.365L223.878 304.964L221.933 306.533ZM222.348 308.022L219.941 308.695L220.319 310.05L221.674 310.429L222.348 308.022ZM223.74 308.411L226.031 307.412L225.557 306.324L224.414 306.004L223.74 308.411ZM224.315 309.73L222.024 310.729L222.324 311.417L222.953 311.826L224.315 309.73ZM225.417 310.446L224.055 312.542L224.386 312.757L224.767 312.86L225.417 310.446ZM226.808 310.821L228.632 309.111L228.145 308.592L227.458 308.407L226.808 310.821ZM227.702 311.774L225.877 313.484L225.953 313.565L226.036 313.639L227.702 311.774ZM228.671 312.64L230.945 311.601L230.727 311.124L230.336 310.775L228.671 312.64ZM229.271 313.954L226.997 314.992L227.247 315.539L227.718 315.913L229.271 313.954ZM230.292 314.763L228.738 316.722L229.406 317.251L230.258 317.263L230.292 314.763ZM231.947 314.785L233.522 312.844L232.848 312.297L231.98 312.285L231.947 314.785ZM232.954 315.602L234.996 314.159L234.797 313.878L234.529 313.661L232.954 315.602ZM233.736 316.708L235.897 315.451L235.841 315.355L235.777 315.265L233.736 316.708ZM234.44 317.92L232.279 319.176L232.589 319.71L233.111 320.037L234.44 317.92ZM235.548 318.615L234.219 320.733L234.393 320.842L234.583 320.921L235.548 318.615ZM236.787 319.133L238.135 317.028L237.952 316.911L237.751 316.827L236.787 319.133ZM237.884 319.836L239.816 318.249L239.565 317.944L239.232 317.731L237.884 319.836ZM238.734 320.872L236.802 322.458L237.396 323.181L238.318 323.337L238.734 320.872ZM240.167 321.114L242.4 319.989L241.831 318.86L240.583 318.649L240.167 321.114ZM240.825 322.421L238.592 323.545L238.727 323.813L238.922 324.042L240.825 322.421ZM241.695 323.442L239.792 325.063L240.106 325.432L240.535 325.657L241.695 323.442ZM242.859 324.052L244.436 322.111L244.241 321.953L244.019 321.837L242.859 324.052ZM243.872 324.875L242.295 326.815L242.56 327.03L242.873 327.166L243.872 324.875ZM245.088 325.405L244.089 327.697L244.212 327.75L244.339 327.79L245.088 325.405ZM246.386 325.813L247.698 323.684L247.432 323.521L247.135 323.427L246.386 325.813ZM247.493 326.495L249.55 325.074L249.252 324.642L248.805 324.367L247.493 326.495ZM248.285 327.643L246.228 329.063L246.623 329.635L247.256 329.921L248.285 327.643ZM249.488 328.186L250.977 326.177L250.761 326.018L250.517 325.907L249.488 328.186ZM250.534 328.961L252.276 327.168L252.157 327.052L252.023 326.953L250.534 328.961ZM251.483 329.883L249.74 331.676L250.383 332.3L251.275 332.375L251.483 329.883ZM252.957 330.006L254.513 328.049L253.92 327.578L253.165 327.515L252.957 330.006ZM253.979 330.819L252.423 332.776L252.489 332.828L252.559 332.876L253.979 330.819ZM255.049 331.558L253.628 333.615L253.671 333.644L253.714 333.672L255.049 331.558ZM256.147 332.251L254.812 334.365L254.879 334.407L254.949 334.445L256.147 332.251ZM257.291 332.876L258.987 331.039L258.76 330.829L258.489 330.681L257.291 332.876ZM258.261 333.771L256.566 335.608L256.853 335.873L257.207 336.038L258.261 333.771ZM259.45 334.324L260.573 332.09L260.538 332.073L260.504 332.057L259.45 334.324ZM260.618 334.911L261.949 332.795L261.848 332.731L261.741 332.677L260.618 334.911ZM261.717 335.603L263.3 333.667L263.18 333.569L263.048 333.487L261.717 335.603ZM262.731 336.432L264.68 334.867L264.516 334.662L264.313 334.497L262.731 336.432ZM263.592 337.504L261.642 339.069L262.236 339.809L263.171 339.969L263.592 337.504ZM264.98 337.742L266.335 335.641L265.905 335.364L265.401 335.277L264.98 337.742ZM266.073 338.447L268.247 337.212L267.944 336.679L267.428 336.346L266.073 338.447ZM266.8 339.726L264.626 340.961L264.884 341.415L265.303 341.728L266.8 339.726ZM267.839 340.503L266.342 342.506L266.728 342.794L267.193 342.919L267.839 340.503ZM269.16 340.857L270.808 338.977L270.37 338.593L269.806 338.442L269.16 340.857ZM270.147 341.722L268.499 343.602L268.731 343.806L269.006 343.947L270.147 341.722ZM271.311 342.319L272.514 340.128L272.483 340.111L272.451 340.095L271.311 342.319ZM272.454 342.947L274.431 341.417L274.113 341.006L273.657 340.756L272.454 342.947ZM273.328 344.076L271.35 345.606L272.193 346.694L273.563 346.565L273.328 344.076ZM274.806 343.936L276.393 342.005L275.597 341.35L274.57 341.447L274.806 343.936ZM275.874 344.814L274.287 346.745L275.404 347.663L276.757 347.153L275.874 344.814ZM277.056 347.04C278.348 346.552 279 345.11 278.512 343.818C278.025 342.526 276.582 341.874 275.291 342.362L276.173 344.701L277.056 347.04ZM2.85751 2.50065L0.460434 3.21062L0.488832 3.3065L2.8859 2.59654L5.28298 1.88658L5.25458 1.79069L2.85751 2.50065ZM2.8859 2.59654L0.448393 2.04107L0.161718 3.29907L2.59923 3.85454L5.03674 4.41L5.32342 3.152L2.8859 2.59654ZM2.59923 3.85454L0.244488 4.6943L0.690888 5.94603L3.04563 5.10628L5.40037 4.26652L4.95397 3.01478L2.59923 3.85454ZM3.04563 5.10628L0.752069 6.10105L1.27937 7.3168L3.57293 6.32203L5.86649 5.32725L5.33919 4.1115L3.04563 5.10628ZM3.57293 6.32203L1.07491 6.22272L1.02101 7.57856L3.51903 7.67786L6.01706 7.77716L6.07096 6.42133L3.57293 6.32203ZM3.51903 7.67786L1.39321 8.99348L2.10837 10.1491L4.2342 8.83345L6.36003 7.51783L5.64486 6.36224L3.51903 7.67786ZM4.2342 8.83345L1.98616 9.92722L2.56426 11.1154L4.8123 10.0216L7.06034 8.92785L6.48224 7.73968L4.2342 8.83345ZM4.8123 10.0216L2.32293 9.79134L2.19431 11.1818L4.68368 11.412L7.17305 11.6423L7.30167 10.2519L4.8123 10.0216ZM4.68368 11.412L2.58874 12.7763L3.32734 13.9105L5.42228 12.5462L7.51722 11.1819L6.77862 10.0478L4.68368 11.412ZM5.42228 12.5462L3.28788 13.8479L3.98461 14.9903L6.11901 13.6887L8.25341 12.387L7.55668 11.2446L5.42228 12.5462ZM6.11901 13.6887L3.68451 13.1201L3.34076 14.5921L5.77526 15.1606L8.20976 15.7292L8.55351 14.2572L6.11901 13.6887ZM5.77526 15.1606L3.67703 16.5198L4.40891 17.6497L6.50714 16.2905L8.60536 14.9312L7.87349 13.8014L5.77526 15.1606ZM6.50714 16.2905L4.44582 17.705L5.20307 18.8085L7.26439 17.3939L9.32571 15.9794L8.56845 14.8759L6.50714 16.2905ZM7.26439 17.3939L4.81942 17.9156L5.09116 19.1892L7.53613 18.6676L9.9811 18.1459L9.70936 16.8723L7.26439 17.3939ZM7.53613 18.6676L5.06855 19.0689L5.28282 20.3864L7.7504 19.9851L10.218 19.5838L10.0037 18.2663L7.53613 18.6676ZM7.7504 19.9851L5.25871 20.1887L5.3707 21.5593L7.8624 21.3557L10.3541 21.1521L10.2421 19.7815L7.7504 19.9851ZM7.8624 21.3557L6.12338 23.1518L7.13081 24.1272L8.86982 22.3311L10.6088 20.5351L9.60141 19.5597L7.8624 21.3557ZM8.86982 22.3311L6.66311 23.5061L7.27525 24.6558L9.48196 23.4808L11.6887 22.3059L11.0765 21.1562L8.86982 22.3311ZM9.48196 23.4808L7.04557 24.0412L7.34492 25.3427L9.7813 24.7823L12.2177 24.2219L11.9183 22.9205L9.48196 23.4808ZM9.7813 24.7823L7.7999 26.3068L8.60567 27.354L10.5871 25.8296L12.5685 24.3051L11.7627 23.2578L9.7813 24.7823ZM10.5871 25.8296L8.65571 27.417L9.49788 28.4416L11.4292 26.8542L13.3606 25.2668L12.5184 24.2422L10.5871 25.8296ZM11.4292 26.8542L9.24479 28.07L9.87796 29.2076L12.0624 27.9918L14.2469 26.776L13.6137 25.6384L11.4292 26.8542ZM12.0624 27.9918L9.57083 28.1968L9.6874 29.614L12.179 29.4091L14.6706 29.2041L14.554 27.7869L12.0624 27.9918ZM12.179 29.4091L10.0924 30.7861L10.8075 31.8697L12.8941 30.4927L14.9807 29.1157L14.2656 28.032L12.179 29.4091ZM12.8941 30.4927L11.6655 32.6699L12.9813 33.4125L14.21 31.2352L15.4386 29.058L14.1228 28.3154L12.8941 30.4927ZM14.21 31.2352L11.8212 31.9728L12.216 33.2513L14.6047 32.5137L16.9935 31.7762L16.5987 30.4977L14.21 31.2352ZM14.6047 32.5137L12.6148 34.0271L13.4063 35.0678L15.3962 33.5545L17.3861 32.0411L16.5946 31.0004L14.6047 32.5137ZM15.3962 33.5545L12.901 33.4001L12.8046 34.9579L15.2998 35.1123L17.795 35.2667L17.8914 33.7089L15.3962 33.5545ZM15.2998 35.1123L14.3407 37.421L15.847 38.0468L16.8061 35.7381L17.7653 33.4294L16.2589 32.8036L15.2998 35.1123ZM16.8061 35.7381L14.3654 36.2789L14.6603 37.6101L17.1011 37.0693L19.5419 36.5284L19.2469 35.1972L16.8061 35.7381ZM17.1011 37.0693L14.8534 38.1636L15.424 39.3358L17.6718 38.2415L19.9196 37.1472L19.3489 35.975L17.1011 37.0693ZM17.6718 38.2415L15.2922 39.0079L15.7047 40.2887L18.0843 39.5222L20.4639 38.7558L20.0514 37.475L17.6718 38.2415ZM18.0843 39.5222L16.6541 41.5727L17.8082 42.3777L19.2384 40.3272L20.6687 38.2768L19.5146 37.4718L18.0843 39.5222ZM19.2384 40.3272L17.2021 41.7775L17.966 42.8501L20.0023 41.3998L22.0386 39.9495L21.2747 38.8769L19.2384 40.3272ZM20.0023 41.3998L17.5126 41.6266L17.643 43.0576L20.1327 42.8308L22.6224 42.6039L22.492 41.173L20.0023 41.3998ZM20.1327 42.8308L19.029 45.074L20.4187 45.7577L21.5224 43.5145L22.6261 41.2713L21.2364 40.5876L20.1327 42.8308ZM21.5224 43.5145L19.0258 43.6454L19.1027 45.112L21.5993 44.9811L24.0959 44.8502L24.019 43.3836L21.5224 43.5145ZM21.5993 44.9811L19.8461 46.7633L20.8078 47.7093L22.561 45.9271L24.3141 44.1448L23.3525 43.1988L21.5993 44.9811ZM22.561 45.9271L20.7884 47.69L21.7185 48.6252L23.491 46.8622L25.2636 45.0992L24.3335 44.1641L22.561 45.9271ZM23.491 46.8622L21.5171 48.3963L22.3217 49.4316L24.2956 47.8974L26.2696 46.3633L25.465 45.3281L23.491 46.8622ZM24.2956 47.8974L21.8008 48.0583L21.8961 49.5361L24.3909 49.3752L26.8857 49.2143L26.7904 47.7365L24.2956 47.8974ZM24.3909 49.3752L23.0001 51.4526L24.1754 52.2395L25.5662 50.1621L26.9571 48.0847L25.7818 47.2978L24.3909 49.3752ZM25.5662 50.1621L23.206 50.9864L23.6511 52.2607L26.0113 51.4364L28.3715 50.6121L27.9264 49.3378L25.5662 50.1621ZM26.0113 51.4364L23.5545 51.899L23.811 53.2613L26.2678 52.7987L28.7246 52.336L28.4681 50.9737L26.0113 51.4364ZM26.2678 52.7987L25.2013 55.0598L26.5998 55.7194L27.6663 53.4583L28.7328 51.1972L27.3343 50.5376L26.2678 52.7987ZM27.6663 53.4583L25.5331 54.762L26.2069 55.8646L28.3401 54.5609L30.4733 53.2573L29.7995 52.1547L27.6663 53.4583ZM28.3401 54.5609L26.0812 55.6319L26.6414 56.8136L28.9004 55.7426L31.1593 54.6716L30.5991 53.49L28.3401 54.5609ZM28.9004 55.7426L26.7239 56.9726L27.3744 58.1237L29.5509 56.8937L31.7274 55.6637L31.0769 54.5126L28.9004 55.7426ZM29.5509 56.8937L27.9806 58.839L29.027 59.6837L30.5973 57.7384L32.1676 55.7931L31.1212 54.9484L29.5509 56.8937ZM30.5973 57.7384L28.2847 58.6881L28.7888 59.9156L31.1014 58.9659L33.414 58.0162L32.9099 56.7887L30.5973 57.7384ZM31.1014 58.9659L28.6333 59.3636L28.8617 60.781L31.3298 60.3832L33.798 59.9855L33.5696 58.5682L31.1014 58.9659ZM31.3298 60.3832L30.3203 62.6703L31.7194 63.2879L32.7289 61.0008L33.7385 58.7137L32.3394 58.0961L31.3298 60.3832ZM32.7289 61.0008L30.426 61.9737L30.9429 63.1972L33.2458 62.2243L35.5487 61.2514L35.0319 60.0279L32.7289 61.0008ZM33.2458 62.2243L30.9361 63.181L31.4457 64.4114L33.7554 63.4547L36.0651 62.498L35.5555 61.2676L33.2458 62.2243ZM33.7554 63.4547L31.8132 65.0288L32.626 66.0317L34.5683 64.4577L36.5105 62.8836L35.6977 61.8807L33.7554 63.4547ZM34.5683 64.4577L32.9992 66.4039L34.0659 67.2639L35.635 65.3177L37.2041 63.3714L36.1374 62.5114L34.5683 64.4577ZM35.635 65.3177L33.3027 66.218L33.7863 67.4707L36.1186 66.5704L38.4508 65.6701L37.9672 64.4174L35.635 65.3177ZM36.1186 66.5704L33.6334 66.8426L33.7906 68.2776L36.2757 68.0054L38.7609 67.7332L38.6037 66.2983L36.1186 66.5704ZM36.2757 68.0054L34.3132 69.5541L35.1228 70.58L37.0853 69.0313L39.0478 67.4825L38.2382 66.4566L36.2757 68.0054ZM37.0853 69.0313L35.3004 70.7817L36.2429 71.7428L38.0278 69.9923L39.8127 68.2418L38.8702 67.2808L37.0853 69.0313ZM38.0278 69.9923L36.0418 71.5107L36.8204 72.5291L38.8064 71.0107L40.7925 69.4922L40.0139 68.4739L38.0278 69.9923ZM38.8064 71.0107L36.9226 72.6542L37.7821 73.6393L39.6659 71.9957L41.5497 70.3521L40.6902 69.3671L38.8064 71.0107ZM39.6659 71.9957L37.7822 73.6394L38.6531 74.6375L40.5368 72.9938L42.4205 71.3502L41.5496 70.3521L39.6659 71.9957ZM40.5368 72.9938L38.14 73.7047L38.5263 75.0072L40.9231 74.2963L43.3199 73.5854L42.9336 72.2829L40.5368 72.9938ZM40.9231 74.2963L38.8518 75.6962L39.574 76.7648L41.6453 75.3649L43.7166 73.9649L42.9944 72.8964L40.9231 74.2963ZM41.6453 75.3649L39.3737 76.4088L39.9257 77.61L42.1973 76.5661L44.4689 75.5222L43.9169 74.3209L41.6453 75.3649ZM42.1973 76.5661L39.9433 77.6475L40.5196 78.8486L42.7736 77.7671L45.0276 76.6857L44.4513 75.4846L42.1973 76.5661ZM42.7736 77.7671L41.9262 80.1191L43.4223 80.6581L44.2697 78.3061L45.117 75.9541L43.6209 75.4151L42.7736 77.7671ZM44.2697 78.3061L42.1171 79.5775L42.7772 80.6951L44.9298 79.4238L47.0824 78.1524L46.4222 77.0347L44.2697 78.3061ZM44.9298 79.4238L42.4331 79.5527L42.5119 81.0789L45.0086 80.9501L47.5053 80.8212L47.4265 79.2949L44.9298 79.4238ZM45.0086 80.9501L43.8305 83.1551L45.1334 83.8512L46.3115 81.6462L47.4896 79.4412L46.1867 78.7451L45.0086 80.9501ZM46.3115 81.6462L43.8782 82.2197L44.1942 83.5605L46.6275 82.987L49.0608 82.4135L48.7448 81.0727L46.3115 81.6462ZM46.6275 82.987L44.8049 84.6982L45.7056 85.6575L47.5281 83.9463L49.3507 82.2351L48.4501 81.2758L46.6275 82.987ZM47.5281 83.9463L45.9821 85.9109L47.063 86.7615L48.609 84.7968L50.155 82.8322L49.0741 81.9816L47.5281 83.9463ZM48.609 84.7968L46.1294 85.1158L46.3154 86.5614L48.7949 86.2424L51.2745 85.9234L51.0885 84.4778L48.609 84.7968ZM48.7949 86.2424L47.7627 88.5193L49.1396 89.1435L50.1718 86.8666L51.2041 84.5897L49.8272 83.9654L48.7949 86.2424ZM50.1718 86.8666L47.966 88.0431L48.5814 89.197L50.7872 88.0205L52.9931 86.844L52.3777 85.6901L50.1718 86.8666ZM50.7872 88.0205L48.29 88.1372L48.3618 89.6736L50.8591 89.5569L53.3563 89.4402L53.2845 87.9037L50.7872 88.0205ZM50.8591 89.5569L49.4354 91.6119L50.5795 92.4045L52.0032 90.3495L53.4268 88.2945L52.2827 87.5018L50.8591 89.5569ZM52.0032 90.3495L50.0679 91.9321L50.8884 92.9355L52.8237 91.3529L54.759 89.7702L53.9385 88.7669L52.0032 90.3495ZM52.8237 91.3529L50.3984 91.9594L50.7347 93.3042L53.16 92.6977L55.5853 92.0911L55.249 90.7463L52.8237 91.3529ZM53.16 92.6977L51 93.9563L51.6607 95.0903L53.8208 93.8317L55.9809 92.5731L55.3201 91.4391L53.16 92.6977ZM53.8208 93.8317L52.5598 95.9904L53.803 96.7166L55.0639 94.5579L56.3249 92.3992L55.0818 91.673L53.8208 93.8317ZM55.0639 94.5579L52.7099 95.3996L53.1595 96.6569L55.5135 95.8152L57.8676 94.9735L57.418 93.7162L55.0639 94.5579ZM55.5135 95.8152L53.7773 97.6139L54.7315 98.535L56.4677 96.7362L58.204 94.9375L57.2497 94.0164L55.5135 95.8152ZM56.4677 96.7362L54.6074 98.4064L55.4879 99.3871L57.3482 97.7169L59.2085 96.0468L58.328 95.0661L56.4677 96.7362ZM57.3482 97.7169L55.0533 98.7087L55.581 99.9297L57.8759 98.938L60.1707 97.9462L59.6431 96.7252L57.3482 97.7169ZM57.8759 98.938L55.6909 100.153L56.3211 101.286L58.506 100.071L60.6909 98.8563L60.0608 97.723L57.8759 98.938ZM58.506 100.071L56.6184 101.71L57.4747 102.697L59.3623 101.057L61.25 99.4183L60.3937 98.4321L58.506 100.071ZM59.3623 101.057L56.8903 101.43L57.1066 102.865L59.5786 102.492L62.0507 102.12L61.8344 100.685L59.3623 101.057ZM59.5786 102.492L58.3597 104.675L59.6358 105.388L60.8547 103.205L62.0737 101.022L60.7975 100.309L59.5786 102.492ZM60.8547 103.205L58.4186 103.766L58.7303 105.118L61.1664 104.557L63.6025 103.995L63.2909 102.643L60.8547 103.205ZM61.1664 104.557L60.087 106.812L61.4346 107.457L62.514 105.202L63.5934 102.947L62.2458 102.302L61.1664 104.557ZM62.514 105.202L60.0146 105.256L60.0482 106.815L62.5476 106.761L65.0471 106.707L65.0134 105.148L62.514 105.202ZM62.5476 106.761L61.7374 109.126L63.2753 109.653L64.0856 107.288L64.8959 104.923L63.3579 104.396L62.5476 106.761ZM64.0856 107.288L62.1335 108.85L62.9461 109.865L64.8983 108.304L66.8505 106.742L66.0378 105.726L64.0856 107.288ZM64.8983 108.304L62.4061 108.106L62.274 109.772L64.7662 109.969L67.2583 110.167L67.3905 108.501L64.8983 108.304ZM64.7662 109.969L63.9086 112.318L65.4033 112.863L66.2609 110.515L67.1185 108.167L65.6237 107.621L64.7662 109.969ZM66.2609 110.515L63.761 110.488L63.7436 112.087L66.2434 112.115L68.7433 112.142L68.7607 110.542L66.2609 110.515ZM66.2434 112.115L64.8043 114.159L65.9413 114.959L67.3804 112.915L68.8196 110.871L67.6826 110.07L66.2434 112.115ZM67.3804 112.915L65.9361 114.956L67.0588 115.75L68.5032 113.71L69.9476 111.669L68.8248 110.874L67.3804 112.915ZM68.5032 113.71L66.0924 114.372L66.4566 115.698L68.8674 115.037L71.2782 114.375L70.914 113.048L68.5032 113.71ZM68.8674 115.037L67.0035 116.703L67.8777 117.681L69.7416 116.014L71.6055 114.348L70.7313 113.37L68.8674 115.037ZM69.7416 116.014L67.806 117.597L68.6352 118.611L70.5708 117.029L72.5063 115.446L71.6771 114.432L69.7416 116.014ZM70.5708 117.029L68.0765 117.198L68.1787 118.708L70.673 118.539L73.1673 118.37L73.065 116.86L70.5708 117.029ZM70.673 118.539L69.477 120.735L70.7494 121.428L71.9454 119.232L73.1413 117.037L71.8689 116.344L70.673 118.539ZM71.9454 119.232L69.4981 119.743L69.7869 121.126L72.2341 120.615L74.6813 120.104L74.3926 118.721L71.9454 119.232ZM72.2341 120.615L70.5806 122.49L71.5867 123.378L73.2403 121.503L74.8939 119.627L73.8877 118.74L72.2341 120.615ZM73.2403 121.503L71.2512 123.017L72.0429 124.057L74.0319 122.542L76.021 121.028L75.2294 119.988L73.2403 121.503ZM74.0319 122.542L71.619 123.196L71.9789 124.524L74.3918 123.87L76.8048 123.216L76.4449 121.888L74.0319 122.542ZM74.3918 123.87L72.9962 125.944L74.1506 126.721L75.5462 124.647L76.9418 122.572L75.7874 121.796L74.3918 123.87ZM75.5462 124.647L74.2337 126.774L75.4397 127.518L76.7522 125.391L78.0647 123.263L76.8587 122.519L75.5462 124.647ZM76.7522 125.391L74.2719 125.704L74.4565 127.166L76.9368 126.853L79.4171 126.54L79.2325 125.077L76.7522 125.391ZM76.9368 126.853L74.6925 127.954L75.2727 129.136L77.517 128.035L79.7613 126.934L79.1811 125.751L76.9368 126.853ZM77.517 128.035L76.2541 130.193L77.4851 130.913L78.748 128.756L80.0109 126.598L78.7799 125.877L77.517 128.035ZM78.748 128.756L76.332 129.398L76.6876 130.735L79.1036 130.093L81.5196 129.45L81.164 128.113L78.748 128.756ZM79.1036 130.093L78.0804 132.374L79.4626 132.994L80.4859 130.713L81.5091 128.432L80.1269 127.812L79.1036 130.093ZM80.4859 130.713L78.0976 131.452L78.5025 132.76L80.8908 132.022L83.2791 131.283L82.8742 129.974L80.4859 130.713ZM80.8908 132.022L78.44 132.515L78.72 133.905L81.1708 133.412L83.6216 132.918L83.3416 131.528L80.8908 132.022ZM81.1708 133.412L79.09 134.798L79.8098 135.878L81.8905 134.492L83.9713 133.107L83.2515 132.026L81.1708 133.412ZM81.8905 134.492L80.3185 136.436L81.3695 137.286L82.9416 135.342L84.5136 133.399L83.4626 132.549L81.8905 134.492ZM82.9416 135.342L80.5723 136.14L81.0056 137.427L83.3749 136.629L85.7442 135.832L85.3109 134.545L82.9416 135.342ZM83.3749 136.629L81.6993 138.485L82.6913 139.381L84.3669 137.525L86.0425 135.67L85.0505 134.774L83.3749 136.629ZM84.3669 137.525L82.1194 138.62L82.6949 139.802L84.9424 138.707L87.1899 137.612L86.6144 136.43L84.3669 137.525ZM84.9424 138.707L82.9622 140.233L83.7558 141.263L85.736 139.737L87.7163 138.211L86.9227 137.181L84.9424 138.707ZM85.736 139.737L84.0729 141.603L85.0696 142.491L86.7327 140.625L88.3959 138.758L87.3992 137.87L85.736 139.737ZM86.7327 140.625L85.1174 142.533L86.1436 143.402L87.7589 141.493L89.3742 139.585L88.348 138.717L86.7327 140.625ZM87.7589 141.493L85.5762 142.712L86.2143 143.855L88.397 142.636L90.5798 141.417L89.9417 140.275L87.7589 141.493ZM88.397 142.636L86.4561 144.212L87.2763 145.222L89.2172 143.646L91.1581 142.071L90.338 141.06L88.397 142.636ZM89.2172 143.646L87.2396 145.176L88.0353 146.205L90.0129 144.675L91.9904 143.146L91.1948 142.117L89.2172 143.646ZM90.0129 144.675L87.7844 145.808L88.38 146.98L90.6085 145.847L92.837 144.714L92.2414 143.542L90.0129 144.675ZM90.6085 145.847L88.7123 147.476L89.564 148.467L91.4602 146.838L93.3564 145.209L92.5047 144.218L90.6085 145.847ZM91.4602 146.838L89.8748 148.771L90.9172 149.626L92.5026 147.693L94.088 145.76L93.0456 144.905L91.4602 146.838ZM92.5026 147.693L90.0618 148.234L90.3667 149.61L92.8075 149.07L95.2484 148.529L94.9435 147.152L92.5026 147.693ZM92.8075 149.07L90.4915 150.011L90.9944 151.248L93.3104 150.307L95.6264 149.366L95.1235 148.128L92.8075 149.07ZM93.3104 150.307L91.3269 151.829L92.119 152.861L94.1025 151.34L96.086 149.818L95.2939 148.785L93.3104 150.307ZM94.1025 151.34L91.8222 152.364L92.3658 153.574L94.6461 152.549L96.9264 151.524L96.3828 150.315L94.1025 151.34ZM94.6461 152.549L92.7044 154.124L93.5253 155.136L95.4669 153.561L97.4085 151.986L96.5877 150.974L94.6461 152.549ZM95.4669 153.561L93.7546 155.383L94.7207 156.291L96.433 154.469L98.1454 152.648L97.1792 151.74L95.4669 153.561ZM96.433 154.469L94.5038 156.059L95.3327 157.065L97.2619 155.475L99.1912 153.885L98.3623 152.879L96.433 154.469ZM97.2619 155.475L95.4204 157.166L96.3064 158.131L98.1479 156.44L99.9894 154.749L99.1035 153.784L97.2619 155.475ZM98.1479 156.44L96.3164 158.142L97.2084 159.102L99.04 157.4L100.871 155.699L99.9794 154.738L98.1479 156.44ZM99.04 157.4L97.1705 159.06L98.0391 160.038L99.9085 158.378L101.778 156.718L100.909 155.74L99.04 157.4ZM99.9085 158.378L97.4357 158.746L97.6506 160.191L100.123 159.823L102.596 159.456L102.381 158.011L99.9085 158.378ZM100.123 159.823L98.9514 162.032L100.234 162.712L101.406 160.504L102.578 158.296L101.295 157.615L100.123 159.823ZM101.406 160.504L99.5126 162.136L100.364 163.124L102.258 161.492L104.152 159.86L103.3 158.872L101.406 160.504ZM102.258 161.492L99.9331 162.411L100.425 163.657L102.75 162.738L105.075 161.819L104.583 160.574L102.258 161.492ZM102.75 162.738L100.44 163.693L100.951 164.928L103.261 163.973L105.571 163.018L105.061 161.782L102.75 162.738ZM103.261 163.973L101.706 165.931L102.766 166.772L104.32 164.814L105.875 162.857L104.816 162.015L103.261 163.973ZM104.32 164.814L102.618 166.645L103.589 167.548L105.291 165.717L106.994 163.887L106.023 162.984L104.32 164.814ZM105.291 165.717L102.872 166.345L103.221 167.693L105.641 167.065L108.061 166.437L107.711 165.089L105.291 165.717ZM105.641 167.065L103.21 167.648L103.538 169.013L105.969 168.43L108.4 167.847L108.072 166.482L105.641 167.065ZM105.969 168.43L105.061 170.759L106.508 171.323L107.415 168.994L108.323 166.665L106.877 166.101L105.969 168.43ZM107.415 168.994L105.051 169.805L105.492 171.091L107.856 170.279L110.221 169.468L109.78 168.183L107.415 168.994ZM107.856 170.279L105.743 171.614L106.438 172.715L108.551 171.38L110.665 170.045L109.97 168.945L107.856 170.279ZM108.551 171.38L106.544 172.87L107.317 173.912L109.325 172.422L111.333 170.933L110.559 169.891L108.551 171.38ZM109.325 172.422L107.587 174.22L108.538 175.139L110.275 173.341L112.012 171.543L111.062 170.625L109.325 172.422ZM110.275 173.341L108.336 174.919L109.16 175.931L111.099 174.353L113.038 172.775L112.214 171.763L110.275 173.341ZM111.099 174.353L108.953 175.635L109.623 176.756L111.769 175.474L113.915 174.191L113.245 173.071L111.099 174.353ZM111.769 175.474L110.357 177.537L111.495 178.316L112.907 176.253L114.319 174.189L113.18 173.41L111.769 175.474ZM112.907 176.253L110.696 177.419L111.306 178.577L113.518 177.411L115.729 176.245L115.119 175.087L112.907 176.253ZM113.518 177.411L111.067 177.907L111.351 179.31L113.802 178.815L116.252 178.319L115.968 176.915L113.518 177.411ZM113.802 178.815L112.313 180.823L113.41 181.636L114.899 179.628L116.388 177.62L115.291 176.806L113.802 178.815ZM114.899 179.628L113.344 181.585L114.4 182.425L115.956 180.468L117.511 178.51L116.455 177.671L114.899 179.628ZM115.956 180.468L113.59 181.277L114.03 182.561L116.395 181.752L118.76 180.942L118.321 179.658L115.956 180.468ZM116.395 181.752L114.716 183.603L115.697 184.493L117.376 182.642L119.056 180.79L118.075 179.9L116.395 181.752ZM117.376 182.642L115.223 183.912L115.889 185.041L118.043 183.771L120.196 182.501L119.53 181.371L117.376 182.642ZM118.043 183.771L116.026 185.249L116.796 186.299L118.812 184.821L120.829 183.343L120.059 182.293L118.043 183.771ZM118.812 184.821L116.433 185.588L116.853 186.89L119.232 186.123L121.611 185.356L121.192 184.054L118.812 184.821ZM119.232 186.123L116.95 187.145L117.492 188.353L119.773 187.331L122.055 186.309L121.513 185.101L119.232 186.123ZM119.773 187.331L117.765 188.82L118.54 189.866L120.549 188.377L122.557 186.887L121.782 185.842L119.773 187.331ZM120.549 188.377L119.803 190.763L121.352 191.247L122.098 188.861L122.843 186.474L121.294 185.99L120.549 188.377ZM122.098 188.861L119.876 190.007L120.48 191.177L122.701 190.031L124.923 188.884L124.319 187.714L122.098 188.861ZM122.701 190.031L120.21 190.244L120.34 191.757L122.831 191.543L125.322 191.33L125.192 189.817L122.701 190.031ZM122.831 191.543L121.08 193.328L122.015 194.245L123.766 192.461L125.518 190.677L124.582 189.759L122.831 191.543ZM123.766 192.461L121.965 194.195L122.879 195.145L124.681 193.412L126.483 191.679L125.568 190.728L123.766 192.461ZM124.681 193.412L122.499 194.633L123.141 195.78L125.323 194.558L127.504 193.337L126.862 192.191L124.681 193.412ZM125.323 194.558L123.241 195.943L123.962 197.026L126.043 195.641L128.125 194.257L127.404 193.174L125.323 194.558ZM126.043 195.641L124.346 197.477L125.314 198.372L127.011 196.536L128.708 194.7L127.74 193.805L126.043 195.641ZM127.011 196.536L125.686 198.656L126.872 199.397L128.197 197.277L129.522 195.157L128.336 194.416L127.011 196.536ZM128.197 197.277L125.727 197.667L125.957 199.121L128.426 198.731L130.896 198.342L130.666 196.887L128.197 197.277ZM128.426 198.731L127.301 200.964L128.603 201.62L129.728 199.388L130.853 197.155L129.552 196.499L128.426 198.731ZM129.728 199.388L127.819 201.002L128.658 201.993L130.567 200.379L132.476 198.765L131.637 197.773L129.728 199.388ZM130.567 200.379L128.151 201.024L128.51 202.366L130.925 201.721L133.34 201.075L132.982 199.734L130.567 200.379ZM130.925 201.721L129.026 203.347L129.88 204.344L131.779 202.718L133.678 201.092L132.824 200.095L130.925 201.721ZM131.779 202.718L129.946 204.417L130.837 205.379L132.671 203.68L134.504 201.981L133.613 201.019L131.779 202.718ZM132.671 203.68L130.206 204.097L130.449 205.533L132.914 205.116L135.379 204.7L135.136 203.263L132.671 203.68ZM132.914 205.116L132.055 207.464L133.505 207.995L134.364 205.647L135.223 203.299L133.772 202.769L132.914 205.116ZM134.364 205.647L131.866 205.742L131.926 207.325L134.424 207.23L136.923 207.135L136.862 205.552L134.364 205.647ZM134.424 207.23L133.052 209.319L134.213 210.082L135.586 207.993L136.959 205.904L135.797 205.14L134.424 207.23ZM135.586 207.993L133.559 209.456L134.32 210.51L136.347 209.047L138.374 207.584L137.613 206.53L135.586 207.993ZM136.347 209.047L134.596 210.831L135.53 211.747L137.28 209.962L139.031 208.178L138.098 207.262L136.347 209.047ZM137.28 209.962L134.859 210.583L135.208 211.946L137.63 211.325L140.051 210.704L139.702 209.342L137.28 209.962ZM137.63 211.325L135.605 212.791L136.373 213.852L138.398 212.385L140.422 210.919L139.655 209.859L137.63 211.325ZM138.398 212.385L136.244 213.655L136.909 214.783L139.062 213.513L141.216 212.244L140.551 211.116L138.398 212.385ZM139.062 213.513L137.273 215.259L138.183 216.192L139.973 214.447L141.763 212.701L140.852 211.768L139.062 213.513ZM139.973 214.447L138.745 216.625L139.976 217.319L141.204 215.141L142.432 212.964L141.201 212.269L139.973 214.447ZM141.204 215.141L138.903 216.118L139.431 217.362L141.732 216.385L144.034 215.408L143.505 214.164L141.204 215.141ZM141.732 216.385L139.709 217.853L140.474 218.907L142.497 217.439L144.521 215.971L143.756 214.917L141.732 216.385ZM142.497 217.439L141.177 219.563L142.353 220.293L143.673 218.17L144.993 216.047L143.817 215.316L142.497 217.439ZM143.673 218.17L141.522 219.445L142.186 220.566L144.337 219.291L146.488 218.017L145.824 216.896L143.673 218.17ZM144.337 219.291L141.879 219.745L142.145 221.191L144.604 220.738L147.062 220.284L146.795 218.837L144.337 219.291ZM144.604 220.738L143.875 223.129L145.409 223.597L146.138 221.205L146.867 218.814L145.333 218.346L144.604 220.738ZM146.138 221.205L143.654 221.485L143.822 222.98L146.306 222.701L148.791 222.422L148.623 220.926L146.138 221.205ZM146.306 222.701L145.05 224.862L146.262 225.567L147.518 223.406L148.775 221.244L147.563 220.54L146.306 222.701ZM147.518 223.406L145.477 224.849L146.235 225.921L148.276 224.477L150.317 223.034L149.559 221.962L147.518 223.406ZM148.276 224.477L146.422 226.154L147.296 227.121L149.151 225.445L151.005 223.768L150.13 222.8L148.276 224.477ZM149.151 225.445L146.861 226.449L147.395 227.665L149.684 226.66L151.973 225.656L151.44 224.44L149.151 225.445ZM149.684 226.66L147.659 228.126L148.423 229.182L150.448 227.716L152.474 226.251L151.71 225.195L149.684 226.66ZM150.448 227.716L149.214 229.89L150.447 230.591L151.682 228.417L152.916 226.243L151.683 225.542L150.448 227.716ZM151.682 228.417L149.303 229.186L149.727 230.498L152.106 229.728L154.485 228.959L154.06 227.647L151.682 228.417ZM152.106 229.728L149.707 230.434L150.097 231.758L152.496 231.053L154.894 230.348L154.504 229.023L152.106 229.728ZM152.496 231.053L151.263 233.228L152.501 233.929L153.733 231.754L154.966 229.579L153.728 228.878L152.496 231.053ZM153.733 231.754L152.155 233.694L153.193 234.538L154.771 232.599L156.349 230.66L155.311 229.815L153.733 231.754ZM154.771 232.599L152.648 233.919L153.334 235.022L155.457 233.702L157.58 232.381L156.894 231.278L154.771 232.599ZM155.457 233.702L153.029 234.296L153.367 235.678L155.795 235.084L158.224 234.49L157.885 233.108L155.457 233.702ZM155.795 235.084L154.284 237.075L155.363 237.895L156.874 235.903L158.386 233.912L157.307 233.093L155.795 235.084ZM156.874 235.903L155.387 237.913L156.468 238.713L157.956 236.703L159.443 234.694L158.362 233.894L156.874 235.903ZM157.956 236.703L156.15 238.432L157.042 239.364L158.848 237.635L160.654 235.906L159.761 234.974L157.956 236.703ZM158.848 237.635L156.362 237.9L156.526 239.446L159.012 239.182L161.498 238.917L161.334 237.371L158.848 237.635ZM159.012 239.182L158.103 241.511L159.508 242.059L160.417 239.73L161.326 237.401L159.921 236.853L159.012 239.182ZM160.417 239.73L158.471 241.3L159.28 242.302L161.226 240.733L163.172 239.163L162.362 238.16L160.417 239.73ZM161.226 240.733L158.932 241.726L159.469 242.967L161.763 241.973L164.057 240.979L163.52 239.739L161.226 240.733ZM161.763 241.973L159.471 242.971L160.011 244.212L162.303 243.214L164.596 242.216L164.055 240.975L161.763 241.973ZM162.303 243.214L160.386 244.818L161.215 245.809L163.133 244.205L165.05 242.602L164.221 241.61L162.303 243.214ZM163.133 244.205L161.106 245.669L161.867 246.724L163.894 245.261L165.921 243.797L165.16 242.742L163.133 244.205ZM163.894 245.261L163.187 247.659L164.713 248.108L165.42 245.71L166.127 243.313L164.601 242.863L163.894 245.261ZM165.42 245.71L162.946 246.07L163.162 247.559L165.636 247.2L168.11 246.84L167.894 245.351L165.42 245.71ZM165.636 247.2L164.7 249.518L166.073 250.072L167.01 247.754L167.946 245.436L166.572 244.882L165.636 247.2ZM167.01 247.754L164.532 248.085L164.734 249.608L167.213 249.277L169.691 248.947L169.488 247.424L167.01 247.754ZM167.213 249.277L165.473 251.073L166.409 251.98L168.149 250.184L169.888 248.388L168.952 247.482L167.213 249.277ZM168.149 250.184L166.819 252.301L167.978 253.029L169.307 250.911L170.637 248.794L169.478 248.067L168.149 250.184ZM169.307 250.911L167.028 251.938L167.584 253.174L169.864 252.148L172.144 251.121L171.587 249.885L169.307 250.911ZM169.864 252.148L167.696 253.392L168.349 254.53L170.517 253.285L172.685 252.04L172.032 250.903L169.864 252.148ZM170.517 253.285L169.388 255.516L170.654 256.156L171.783 253.925L172.912 251.695L171.645 251.054L170.517 253.285ZM171.783 253.925L169.988 255.665L170.898 256.605L172.694 254.866L174.489 253.126L173.579 252.186L171.783 253.925ZM172.694 254.866L170.328 255.673L170.774 256.98L173.14 256.172L175.506 255.365L175.06 254.058L172.694 254.866ZM173.14 256.172L170.98 257.431L171.648 258.577L173.808 257.319L175.968 256.061L175.3 254.914L173.14 256.172ZM173.808 257.319L172.616 259.517L173.845 260.183L175.037 257.986L176.229 255.788L175 255.122L173.808 257.319ZM175.037 257.986L173.171 259.649L174.028 260.611L175.894 258.948L177.761 257.284L176.904 256.323L175.037 257.986ZM175.894 258.948L174.436 260.979L175.535 261.767L176.993 259.736L178.451 257.705L177.352 256.917L175.894 258.948ZM176.993 259.736L174.616 260.512L175.05 261.842L177.427 261.066L179.803 260.291L179.37 258.961L176.993 259.736ZM177.427 261.066L175.564 262.734L176.432 263.703L178.294 262.035L180.156 260.367L179.289 259.398L177.427 261.066ZM178.294 262.035L175.987 262.997L176.515 264.264L178.822 263.301L181.13 262.339L180.602 261.073L178.294 262.035ZM178.822 263.301L176.986 264.997L177.86 265.943L179.696 264.247L181.533 262.551L180.659 261.605L178.822 263.301ZM179.696 264.247L178.234 266.275L179.329 267.065L180.792 265.037L182.254 263.009L181.158 262.219L179.696 264.247ZM180.792 265.037L178.614 266.265L179.263 267.416L181.441 266.188L183.618 264.96L182.969 263.809L180.792 265.037ZM181.441 266.188L179.62 267.901L180.513 268.851L182.334 267.138L184.155 265.425L183.262 264.475L181.441 266.188ZM182.334 267.138L181.384 269.45L182.727 270.002L183.678 267.69L184.628 265.378L183.285 264.825L182.334 267.138ZM183.678 267.69L181.359 268.625L181.872 269.897L184.191 268.962L186.509 268.027L185.997 266.755L183.678 267.69ZM184.191 268.962L182.633 270.917L183.671 271.744L185.229 269.789L186.787 267.834L185.749 267.007L184.191 268.962ZM185.229 269.789L182.894 270.683L183.387 271.969L185.721 271.075L188.056 270.181L187.563 268.895L185.229 269.789ZM185.721 271.075L183.708 272.558L184.491 273.619L186.503 272.137L188.516 270.654L187.734 269.592L185.721 271.075ZM186.503 272.137L185.323 274.34L186.533 274.989L187.713 272.785L188.894 270.582L187.684 269.933L186.503 272.137ZM187.713 272.785L186.166 274.748L187.208 275.57L188.756 273.607L190.303 271.643L189.261 270.822L187.713 272.785ZM188.756 273.607L186.313 274.141L186.632 275.599L189.075 275.064L191.517 274.53L191.198 273.072L188.756 273.607ZM189.075 275.064L187.563 277.055L188.621 277.859L190.133 275.868L191.645 273.877L190.587 273.073L189.075 275.064ZM190.133 275.868L188.281 277.548L189.151 278.507L191.003 276.827L192.855 275.148L191.985 274.189L190.133 275.868ZM191.003 276.827L189.307 278.664L190.27 279.553L191.966 277.716L193.661 275.879L192.699 274.99L191.003 276.827ZM191.966 277.716L190.794 279.925L192.004 280.566L193.175 278.358L194.347 276.149L193.137 275.507L191.966 277.716ZM193.175 278.358L190.91 279.416L191.491 280.66L193.757 279.602L196.022 278.544L195.44 277.3L193.175 278.358ZM193.757 279.602L192.524 281.777L193.7 282.444L194.933 280.269L196.165 278.093L194.989 277.427L193.757 279.602ZM194.933 280.269L193.512 282.326L194.611 283.085L196.032 281.028L197.453 278.971L196.354 278.212L194.933 280.269ZM196.032 281.028L193.547 281.299L193.723 282.915L196.208 282.644L198.693 282.373L198.517 280.757L196.032 281.028ZM196.208 282.644L195.822 285.114L197.447 285.368L197.833 282.898L198.219 280.428L196.594 280.174L196.208 282.644ZM197.833 282.898L195.398 283.468L195.743 284.937L198.177 284.366L200.611 283.796L200.267 282.327L197.833 282.898ZM198.177 284.366L196.249 285.958L197.08 286.965L199.008 285.373L200.936 283.781L200.104 282.775L198.177 284.366ZM199.008 285.373L197.298 287.197L198.25 288.089L199.959 286.265L201.669 284.441L200.717 283.549L199.008 285.373ZM199.959 286.265L198.318 288.151L199.297 289.002L200.938 287.116L202.579 285.23L201.6 284.379L199.959 286.265ZM200.938 287.116L199.257 288.967L200.226 289.847L201.907 287.997L203.588 286.146L202.619 285.266L200.938 287.116ZM201.907 287.997L200.348 289.951L201.369 290.766L202.929 288.812L204.488 286.858L203.467 286.043L201.907 287.997ZM202.929 288.812L200.61 289.747L201.138 291.055L203.456 290.12L205.775 289.185L205.247 287.876L202.929 288.812ZM203.456 290.12L202.124 292.236L203.256 292.948L204.588 290.833L205.92 288.717L204.788 288.004L203.456 290.12ZM204.588 290.833L203.732 293.182L205.073 293.67L205.929 291.321L206.785 288.972L205.444 288.484L204.588 290.833ZM205.929 291.321L203.73 292.511L204.376 293.705L206.575 292.515L208.774 291.325L208.128 290.131L205.929 291.321ZM206.575 292.515L204.561 293.996L205.343 295.06L207.357 293.579L209.372 292.099L208.589 291.034L206.575 292.515ZM207.357 293.579L206.346 295.866L207.613 296.426L208.624 294.14L209.636 291.854L208.369 291.293L207.357 293.579ZM208.624 294.14L206.885 295.935L207.815 296.837L209.554 295.041L211.294 293.245L210.364 292.344L208.624 294.14ZM209.554 295.041L207.248 296.005L207.796 297.316L210.102 296.352L212.409 295.388L211.861 294.077L209.554 295.041ZM210.102 296.352L208.433 298.213L209.403 299.083L211.072 297.221L212.741 295.36L211.771 294.49L210.102 296.352ZM211.072 297.221L210.282 299.593L211.645 300.047L212.435 297.675L213.224 295.303L211.862 294.849L211.072 297.221ZM212.435 297.675L210.392 299.117L211.154 300.196L213.196 298.754L215.239 297.312L214.477 296.233L212.435 297.675ZM213.196 298.754L211.973 300.934L213.144 301.591L214.368 299.411L215.591 297.231L214.42 296.574L213.196 298.754ZM214.368 299.411L211.916 299.902L212.23 301.467L214.681 300.976L217.133 300.485L216.819 298.92L214.368 299.411ZM214.681 300.976L213.762 303.301L215.063 303.815L215.982 301.49L216.901 299.166L215.6 298.651L214.681 300.976ZM215.982 301.49L214.071 303.103L214.915 304.103L216.826 302.491L218.737 300.879L217.893 299.878L215.982 301.49ZM216.826 302.491L215.443 304.574L216.539 305.301L217.922 303.218L219.304 301.135L218.208 300.408L216.826 302.491ZM217.922 303.218L216.15 304.982L217.067 305.903L218.839 304.139L220.61 302.375L219.693 301.454L217.922 303.218ZM218.839 304.139L216.859 305.665L217.666 306.712L219.646 305.185L221.625 303.659L220.818 302.612L218.839 304.139ZM219.646 305.185L219.105 307.626L220.566 307.95L221.107 305.509L221.648 303.069L220.186 302.745L219.646 305.185ZM221.107 305.509L219.161 307.079L219.987 308.103L221.933 306.533L223.878 304.964L223.052 303.94L221.107 305.509ZM221.933 306.533L219.525 307.206L219.941 308.695L222.348 308.022L224.756 307.349L224.34 305.861L221.933 306.533ZM222.348 308.022L221.674 310.429L223.066 310.819L223.74 308.411L224.414 306.004L223.023 305.614L222.348 308.022ZM223.74 308.411L221.448 309.411L222.024 310.729L224.315 309.73L226.606 308.73L226.031 307.412L223.74 308.411ZM224.315 309.73L222.953 311.826L224.055 312.542L225.417 310.446L226.779 308.35L225.677 307.634L224.315 309.73ZM225.417 310.446L224.767 312.86L226.158 313.235L226.808 310.821L227.458 308.407L226.067 308.032L225.417 310.446ZM226.808 310.821L224.984 312.53L225.877 313.484L227.702 311.774L229.526 310.065L228.632 309.111L226.808 310.821ZM227.702 311.774L226.036 313.639L227.006 314.505L228.671 312.64L230.336 310.775L229.367 309.91L227.702 311.774ZM228.671 312.64L226.397 313.679L226.997 314.992L229.271 313.954L231.545 312.915L230.945 311.601L228.671 312.64ZM229.271 313.954L227.718 315.913L228.738 316.722L230.292 314.763L231.845 312.804L230.824 311.995L229.271 313.954ZM230.292 314.763L230.258 317.263L231.913 317.285L231.947 314.785L231.98 312.285L230.325 312.263L230.292 314.763ZM231.947 314.785L230.372 316.727L231.379 317.544L232.954 315.602L234.529 313.661L233.522 312.844L231.947 314.785ZM232.954 315.602L230.913 317.046L231.694 318.151L233.736 316.708L235.777 315.265L234.996 314.159L232.954 315.602ZM233.736 316.708L231.574 317.964L232.279 319.176L234.44 317.92L236.602 316.664L235.897 315.451L233.736 316.708ZM234.44 317.92L233.111 320.037L234.219 320.733L235.548 318.615L236.877 316.498L235.769 315.802L234.44 317.92ZM235.548 318.615L234.583 320.921L235.822 321.44L236.787 319.133L237.751 316.827L236.513 316.309L235.548 318.615ZM236.787 319.133L235.438 321.239L236.535 321.941L237.884 319.836L239.232 317.731L238.135 317.028L236.787 319.133ZM237.884 319.836L235.952 321.423L236.802 322.458L238.734 320.872L240.666 319.285L239.816 318.249L237.884 319.836ZM238.734 320.872L238.318 323.337L239.75 323.579L240.167 321.114L240.583 318.649L239.151 318.407L238.734 320.872ZM240.167 321.114L237.934 322.238L238.592 323.545L240.825 322.421L243.058 321.296L242.4 319.989L240.167 321.114ZM240.825 322.421L238.922 324.042L239.792 325.063L241.695 323.442L243.598 321.821L242.728 320.799L240.825 322.421ZM241.695 323.442L240.535 325.657L241.699 326.266L242.859 324.052L244.019 321.837L242.855 321.227L241.695 323.442ZM242.859 324.052L241.282 325.992L242.295 326.815L243.872 324.875L245.449 322.935L244.436 322.111L242.859 324.052ZM243.872 324.875L242.873 327.166L244.089 327.697L245.088 325.405L246.087 323.113L244.871 322.583L243.872 324.875ZM245.088 325.405L244.339 327.79L245.637 328.198L246.386 325.813L247.135 323.427L245.837 323.02L245.088 325.405ZM246.386 325.813L245.074 327.941L246.181 328.623L247.493 326.495L248.805 324.367L247.698 323.684L246.386 325.813ZM247.493 326.495L245.436 327.915L246.228 329.063L248.285 327.643L250.342 326.222L249.55 325.074L247.493 326.495ZM248.285 327.643L247.256 329.921L248.459 330.464L249.488 328.186L250.517 325.907L249.314 325.364L248.285 327.643ZM249.488 328.186L247.999 330.194L249.045 330.969L250.534 328.961L252.023 326.953L250.977 326.177L249.488 328.186ZM250.534 328.961L248.791 330.754L249.74 331.676L251.483 329.883L253.225 328.09L252.276 327.168L250.534 328.961ZM251.483 329.883L251.275 332.375L252.749 332.498L252.957 330.006L253.165 327.515L251.69 327.392L251.483 329.883ZM252.957 330.006L251.401 331.963L252.423 332.776L253.979 330.819L255.535 328.862L254.513 328.049L252.957 330.006ZM253.979 330.819L252.559 332.876L253.628 333.615L255.049 331.558L256.47 329.501L255.4 328.762L253.979 330.819ZM255.049 331.558L253.714 333.672L254.812 334.365L256.147 332.251L257.481 330.137L256.384 329.444L255.049 331.558ZM256.147 332.251L254.949 334.445L256.094 335.07L257.291 332.876L258.489 330.681L257.345 330.057L256.147 332.251ZM257.291 332.876L255.596 334.713L256.566 335.608L258.261 333.771L259.957 331.934L258.987 331.039L257.291 332.876ZM258.261 333.771L257.207 336.038L258.395 336.59L259.45 334.324L260.504 332.057L259.315 331.504L258.261 333.771ZM259.45 334.324L258.327 336.557L259.495 337.145L260.618 334.911L261.741 332.677L260.573 332.09L259.45 334.324ZM260.618 334.911L259.286 337.027L260.385 337.718L261.717 335.603L263.048 333.487L261.949 332.795L260.618 334.911ZM261.717 335.603L260.134 337.538L261.148 338.367L262.731 336.432L264.313 334.497L263.3 333.667L261.717 335.603ZM262.731 336.432L260.781 337.997L261.642 339.069L263.592 337.504L265.541 335.939L264.68 334.867L262.731 336.432ZM263.592 337.504L263.171 339.969L264.559 340.206L264.98 337.742L265.401 335.277L264.013 335.04L263.592 337.504ZM264.98 337.742L263.625 339.843L264.718 340.548L266.073 338.447L267.428 336.346L266.335 335.641L264.98 337.742ZM266.073 338.447L263.899 339.681L264.626 340.961L266.8 339.726L268.974 338.492L268.247 337.212L266.073 338.447ZM266.8 339.726L265.303 341.728L266.342 342.506L267.839 340.503L269.336 338.501L268.297 337.724L266.8 339.726ZM267.839 340.503L267.193 342.919L268.514 343.272L269.16 340.857L269.806 338.442L268.485 338.088L267.839 340.503ZM269.16 340.857L267.512 342.736L268.499 343.602L270.147 341.722L271.795 339.843L270.808 338.977L269.16 340.857ZM270.147 341.722L269.006 343.947L270.17 344.544L271.311 342.319L272.451 340.095L271.288 339.498L270.147 341.722ZM271.311 342.319L270.107 344.511L271.251 345.139L272.454 342.947L273.657 340.756L272.514 340.128L271.311 342.319ZM272.454 342.947L270.477 344.477L271.35 345.606L273.328 344.076L275.305 342.546L274.431 341.417L272.454 342.947ZM273.328 344.076L273.563 346.565L275.041 346.425L274.806 343.936L274.57 341.447L273.092 341.587L273.328 344.076ZM274.806 343.936L273.218 345.868L274.287 346.745L275.874 344.814L277.461 342.882L276.393 342.005L274.806 343.936ZM275.874 344.814L276.757 347.153L277.056 347.04L276.173 344.701L275.291 342.362L274.991 342.475L275.874 344.814Z" fill="var(--stroke-0, black)"/>
</svg>
